Gidole-Regular.ufo
<glyph name="exclam" format="2">
  <advance width="500"/>
  <unicode hex="0021"/>
  <outline>
    <contour>
      <point x="250" y="204" type="curve" smooth="yes"/>
      <point x="315" y="204"/>
      <point x="360" y="159"/>
      <point x="360" y="94" type="curve" smooth="yes"/>
      <point x="360" y="29"/>
      <point x="315" y="-16"/>
      <point x="250" y="-16" type="curve" smooth="yes"/>
      <point x="185" y="-16"/>
      <point x="140" y="29"/>
      <point x="140" y="94" type="curve" smooth="yes"/>
      <point x="140" y="159"/>
      <point x="185" y="204"/>
    </contour>
    <contour>
      <point x="172" y="1416" type="line"/>
      <point x="328" y="1416" type="line"/>
      <point x="328" y="1051" type="line" smooth="yes"/>
      <point x="328" y="812"/>
      <point x="308" y="388"/>
      <point x="308" y="388" type="curve"/>
      <point x="192" y="388" type="line"/>
      <point x="192" y="388"/>
      <point x="172" y="810"/>
      <point x="172" y="1051" type="curve" smooth="yes"/>
    </contour>
  </outline>
</glyph>
<glyph name="numbersign" format="2">
  <advance width="1270"/>
  <unicode hex="0023"/>
  <outline>
    <contour>
      <point x="825" y="997" type="line"/>
      <point x="516" y="997" type="line"/>
      <point x="445" y="447" type="line"/>
      <point x="754" y="447" type="line"/>
    </contour>
    <contour>
      <point x="835" y="0" type="line"/>
      <point x="694" y="0" type="line"/>
      <point x="737" y="323" type="line"/>
      <point x="428" y="323" type="line"/>
      <point x="385" y="0" type="line"/>
      <point x="244" y="0" type="line"/>
      <point x="287" y="323" type="line"/>
      <point x="126" y="323" type="line"/>
      <point x="126" y="447" type="line"/>
      <point x="304" y="447" type="line"/>
      <point x="375" y="997" type="line"/>
      <point x="214" y="997" type="line"/>
      <point x="214" y="1121" type="line"/>
      <point x="392" y="1121" type="line"/>
      <point x="431" y="1416" type="line"/>
      <point x="572" y="1416" type="line"/>
      <point x="533" y="1121" type="line"/>
      <point x="842" y="1121" type="line"/>
      <point x="881" y="1416" type="line"/>
      <point x="1022" y="1416" type="line"/>
      <point x="983" y="1121" type="line"/>
      <point x="1144" y="1121" type="line"/>
      <point x="1144" y="997" type="line"/>
      <point x="966" y="997" type="line"/>
      <point x="895" y="447" type="line"/>
      <point x="1056" y="447" type="line"/>
      <point x="1056" y="323" type="line"/>
      <point x="878" y="323" type="line"/>
    </contour>
  </outline>
</glyph>
<glyph name="dollar" format="2">
  <advance width="1095"/>
  <unicode hex="0024"/>
  <outline>
    <contour>
      <point x="491" y="1616" type="line"/>
      <point x="597" y="1616" type="line"/>
      <point x="597" y="1433" type="line"/>
      <point x="731" y="1421"/>
      <point x="850" y="1368"/>
      <point x="939" y="1313" type="curve"/>
      <point x="866" y="1191" type="line"/>
      <point x="785" y="1241"/>
      <point x="694" y="1281"/>
      <point x="597" y="1292" type="curve"/>
      <point x="597" y="791" type="line"/>
      <point x="697" y="770"/>
      <point x="795" y="743"/>
      <point x="882" y="654" type="curve" smooth="yes"/>
      <point x="943" y="592"/>
      <point x="989" y="498"/>
      <point x="989" y="389" type="curve" smooth="yes"/>
      <point x="989" y="283"/>
      <point x="951" y="185"/>
      <point x="877" y="110" type="curve" smooth="yes"/>
      <point x="811" y="43"/>
      <point x="713" y="-4"/>
      <point x="597" y="-16" type="curve"/>
      <point x="597" y="-200" type="line"/>
      <point x="491" y="-200" type="line"/>
      <point x="491" y="-17" type="line"/>
      <point x="335" y="-5"/>
      <point x="198" y="61"/>
      <point x="96" y="131" type="curve"/>
      <point x="172" y="253" type="line"/>
      <point x="258" y="193"/>
      <point x="368" y="137"/>
      <point x="491" y="124" type="curve"/>
      <point x="491" y="670" type="line"/>
      <point x="404" y="689"/>
      <point x="317" y="716"/>
      <point x="238" y="786" type="curve" smooth="yes"/>
      <point x="172" y="845"/>
      <point x="118" y="943"/>
      <point x="118" y="1052" type="curve" smooth="yes"/>
      <point x="118" y="1158"/>
      <point x="160" y="1260"/>
      <point x="247" y="1335" type="curve" smooth="yes"/>
      <point x="309" y="1388"/>
      <point x="394" y="1424"/>
      <point x="491" y="1433" type="curve"/>
    </contour>
    <contour>
      <point x="597" y="647" type="curve"/>
      <point x="597" y="125" type="line"/>
      <point x="665" y="135"/>
      <point x="719" y="162"/>
      <point x="759" y="202" type="curve" smooth="yes"/>
      <point x="805" y="248"/>
      <point x="833" y="313"/>
      <point x="833" y="389" type="curve" smooth="yes"/>
      <point x="833" y="459"/>
      <point x="803" y="525"/>
      <point x="762" y="565" type="curve" smooth="yes"/>
      <point x="716" y="610"/>
      <point x="665" y="630"/>
    </contour>
    <contour>
      <point x="491" y="814" type="curve"/>
      <point x="491" y="1292" type="line"/>
      <point x="434" y="1284"/>
      <point x="387" y="1262"/>
      <point x="352" y="1231" type="curve" smooth="yes"/>
      <point x="305" y="1190"/>
      <point x="274" y="1127"/>
      <point x="274" y="1053" type="curve" smooth="yes"/>
      <point x="274" y="989"/>
      <point x="303" y="929"/>
      <point x="343" y="890" type="curve" smooth="yes"/>
      <point x="384" y="850"/>
      <point x="431" y="830"/>
    </contour>
  </outline>
</glyph>
<glyph name="percent" format="2">
  <advance width="1508"/>
  <unicode hex="0025"/>
  <outline>
    <contour>
      <point x="1137" y="560" type="curve" smooth="yes"/>
      <point x="1008" y="560"/>
      <point x="1008" y="445"/>
      <point x="1008" y="339" type="curve" smooth="yes"/>
      <point x="1008" y="233"/>
      <point x="1008" y="118"/>
      <point x="1137" y="118" type="curve" smooth="yes"/>
      <point x="1266" y="118"/>
      <point x="1266" y="233"/>
      <point x="1266" y="339" type="curve" smooth="yes"/>
      <point x="1266" y="445"/>
      <point x="1266" y="560"/>
    </contour>
    <contour>
      <point x="1137" y="678" type="curve" smooth="yes"/>
      <point x="1219" y="678"/>
      <point x="1289" y="647"/>
      <point x="1332" y="598" type="curve" smooth="yes"/>
      <point x="1397" y="524"/>
      <point x="1398" y="430"/>
      <point x="1398" y="339" type="curve" smooth="yes"/>
      <point x="1398" y="248"/>
      <point x="1397" y="154"/>
      <point x="1332" y="80" type="curve" smooth="yes"/>
      <point x="1289" y="31"/>
      <point x="1219" y="0"/>
      <point x="1137" y="0" type="curve" smooth="yes"/>
      <point x="1055" y="0"/>
      <point x="985" y="31"/>
      <point x="942" y="80" type="curve" smooth="yes"/>
      <point x="877" y="154"/>
      <point x="876" y="248"/>
      <point x="876" y="339" type="curve" smooth="yes"/>
      <point x="876" y="430"/>
      <point x="877" y="524"/>
      <point x="942" y="598" type="curve" smooth="yes"/>
      <point x="985" y="647"/>
      <point x="1055" y="678"/>
    </contour>
    <contour>
      <point x="371" y="1314" type="curve" smooth="yes"/>
      <point x="242" y="1314"/>
      <point x="242" y="1199"/>
      <point x="242" y="1093" type="curve" smooth="yes"/>
      <point x="242" y="987"/>
      <point x="242" y="872"/>
      <point x="371" y="872" type="curve" smooth="yes"/>
      <point x="500" y="872"/>
      <point x="500" y="987"/>
      <point x="500" y="1093" type="curve" smooth="yes"/>
      <point x="500" y="1199"/>
      <point x="500" y="1314"/>
    </contour>
    <contour>
      <point x="371" y="1432" type="curve" smooth="yes"/>
      <point x="453" y="1432"/>
      <point x="523" y="1401"/>
      <point x="566" y="1352" type="curve" smooth="yes"/>
      <point x="631" y="1278"/>
      <point x="632" y="1184"/>
      <point x="632" y="1093" type="curve" smooth="yes"/>
      <point x="632" y="1002"/>
      <point x="631" y="908"/>
      <point x="566" y="834" type="curve" smooth="yes"/>
      <point x="523" y="785"/>
      <point x="453" y="754"/>
      <point x="371" y="754" type="curve" smooth="yes"/>
      <point x="289" y="754"/>
      <point x="219" y="785"/>
      <point x="176" y="834" type="curve" smooth="yes"/>
      <point x="111" y="908"/>
      <point x="110" y="1002"/>
      <point x="110" y="1093" type="curve" smooth="yes"/>
      <point x="110" y="1184"/>
      <point x="111" y="1278"/>
      <point x="176" y="1352" type="curve" smooth="yes"/>
      <point x="219" y="1401"/>
      <point x="289" y="1432"/>
    </contour>
    <contour>
      <point x="1081" y="1352" type="line"/>
      <point x="1195" y="1280" type="line"/>
      <point x="427" y="64" type="line"/>
      <point x="313" y="136" type="line"/>
    </contour>
  </outline>
</glyph>
<glyph name="ampersand" format="2">
  <advance width="1395"/>
  <unicode hex="0026"/>
  <outline>
    <contour>
      <point x="627" y="1432" type="curve" smooth="yes"/>
      <point x="804" y="1432"/>
      <point x="942" y="1308"/>
      <point x="942" y="1126" type="curve" smooth="yes"/>
      <point x="942" y="935"/>
      <point x="802" y="854"/>
      <point x="734" y="806" type="curve" smooth="yes"/>
      <point x="673" y="763" type="line"/>
      <point x="976" y="357" type="line"/>
      <point x="1096" y="490" type="line"/>
      <point x="1202" y="394" type="line"/>
      <point x="1063" y="241" type="line"/>
      <point x="1245" y="0" type="line"/>
      <point x="1064" y="0" type="line"/>
      <point x="964" y="133" type="line"/>
      <point x="881" y="51"/>
      <point x="770" y="-16"/>
      <point x="606" y="-16" type="curve" smooth="yes"/>
      <point x="343" y="-16"/>
      <point x="180" y="159"/>
      <point x="180" y="372" type="curve" smooth="yes"/>
      <point x="180" y="591"/>
      <point x="346" y="700"/>
      <point x="408" y="745" type="curve" smooth="yes"/>
      <point x="472" y="791" type="line"/>
      <point x="421" y="859" type="line" smooth="yes"/>
      <point x="396" y="892"/>
      <point x="312" y="985"/>
      <point x="312" y="1127" type="curve" smooth="yes"/>
      <point x="312" y="1309"/>
      <point x="445" y="1432"/>
    </contour>
    <contour>
      <point x="627" y="1298" type="curve" smooth="yes"/>
      <point x="521" y="1298"/>
      <point x="462" y="1227"/>
      <point x="462" y="1127" type="curve" smooth="yes"/>
      <point x="462" y="1033"/>
      <point x="514" y="976"/>
      <point x="548" y="930" type="curve" smooth="yes"/>
      <point x="590" y="874" type="line"/>
      <point x="652" y="918" type="line" smooth="yes"/>
      <point x="710" y="959"/>
      <point x="792" y="1009"/>
      <point x="792" y="1126" type="curve" smooth="yes"/>
      <point x="792" y="1226"/>
      <point x="729" y="1298"/>
    </contour>
    <contour>
      <point x="330" y="372" type="curve" smooth="yes"/>
      <point x="330" y="246"/>
      <point x="421" y="118"/>
      <point x="606" y="118" type="curve" smooth="yes"/>
      <point x="731" y="118"/>
      <point x="810" y="173"/>
      <point x="877" y="249" type="curve"/>
      <point x="555" y="679" type="line"/>
      <point x="501" y="640" type="line" smooth="yes"/>
      <point x="458" y="607"/>
      <point x="330" y="530"/>
    </contour>
  </outline>
</glyph>
<glyph name="quotesingle" format="2">
  <advance width="440"/>
  <unicode hex="0027"/>
  <outline>
    <contour>
      <point x="120" y="1330" type="curve" smooth="yes"/>
      <point x="120" y="1389"/>
      <point x="161" y="1430"/>
      <point x="220" y="1430" type="curve" smooth="yes"/>
      <point x="279" y="1430"/>
      <point x="320" y="1389"/>
      <point x="320" y="1330" type="curve" smooth="yes"/>
      <point x="320" y="1313"/>
      <point x="317" y="1295"/>
      <point x="314" y="1278" type="curve" smooth="yes"/>
      <point x="269" y="1006" type="line"/>
      <point x="171" y="1006" type="line"/>
      <point x="126" y="1278" type="line" smooth="yes"/>
      <point x="123" y="1295"/>
      <point x="120" y="1313"/>
    </contour>
  </outline>
</glyph>
<glyph name="parenleft" format="2">
  <advance width="653"/>
  <unicode hex="0028"/>
  <outline>
    <contour>
      <point x="467" y="-439" type="line"/>
      <point x="313" y="-314"/>
      <point x="212" y="-145"/>
      <point x="161" y="36" type="curve" smooth="yes"/>
      <point x="115" y="202"/>
      <point x="110" y="374"/>
      <point x="110" y="541" type="curve" smooth="yes"/>
      <point x="110" y="708"/>
      <point x="116" y="880"/>
      <point x="161" y="1046" type="curve" smooth="yes"/>
      <point x="211" y="1227"/>
      <point x="313" y="1396"/>
      <point x="467" y="1521" type="curve"/>
      <point x="543" y="1433" type="line"/>
      <point x="426" y="1325"/>
      <point x="342" y="1185"/>
      <point x="299" y="1026" type="curve" smooth="yes"/>
      <point x="257" y="871"/>
      <point x="250" y="706"/>
      <point x="250" y="541" type="curve" smooth="yes"/>
      <point x="250" y="376"/>
      <point x="257" y="211"/>
      <point x="299" y="56" type="curve" smooth="yes"/>
      <point x="342" y="-103"/>
      <point x="426" y="-243"/>
      <point x="543" y="-351" type="curve"/>
    </contour>
  </outline>
</glyph>
<glyph name="parenright" format="2">
  <advance width="653"/>
  <unicode hex="0029"/>
  <outline>
    <contour>
      <point x="186" y="1521" type="line"/>
      <point x="340" y="1396"/>
      <point x="441" y="1227"/>
      <point x="492" y="1046" type="curve" smooth="yes"/>
      <point x="537" y="880"/>
      <point x="543" y="708"/>
      <point x="543" y="541" type="curve" smooth="yes"/>
      <point x="543" y="374"/>
      <point x="537" y="202"/>
      <point x="492" y="36" type="curve" smooth="yes"/>
      <point x="441" y="-145"/>
      <point x="340" y="-314"/>
      <point x="186" y="-439" type="curve"/>
      <point x="110" y="-351" type="line"/>
      <point x="227" y="-243"/>
      <point x="311" y="-103"/>
      <point x="354" y="56" type="curve" smooth="yes"/>
      <point x="396" y="211"/>
      <point x="403" y="376"/>
      <point x="403" y="541" type="curve" smooth="yes"/>
      <point x="403" y="706"/>
      <point x="396" y="871"/>
      <point x="354" y="1026" type="curve" smooth="yes"/>
      <point x="311" y="1185"/>
      <point x="227" y="1325"/>
      <point x="110" y="1433" type="curve"/>
    </contour>
  </outline>
</glyph>
<glyph name="asterisk" format="2">
  <advance width="1043"/>
  <unicode hex="002A"/>
  <outline>
    <contour>
      <point x="881" y="1284" type="line"/>
      <point x="923" y="1155" type="line"/>
      <point x="629" y="1064" type="line"/>
      <point x="816" y="815" type="line"/>
      <point x="698" y="730" type="line"/>
      <point x="522" y="981" type="line"/>
      <point x="346" y="730" type="line"/>
      <point x="228" y="815" type="line"/>
      <point x="415" y="1064" type="line"/>
      <point x="120" y="1155" type="line"/>
      <point x="163" y="1284" type="line"/>
      <point x="452" y="1184" type="line"/>
      <point x="447" y="1496" type="line"/>
      <point x="597" y="1496" type="line"/>
      <point x="593" y="1185" type="line"/>
    </contour>
  </outline>
</glyph>
<glyph name="plus" format="2">
  <advance width="1140"/>
  <unicode hex="002B"/>
  <outline>
    <contour>
      <point x="160" y="474" type="line"/>
      <point x="160" y="608" type="line"/>
      <point x="495" y="608" type="line"/>
      <point x="495" y="951" type="line"/>
      <point x="645" y="951" type="line"/>
      <point x="645" y="608" type="line"/>
      <point x="980" y="608" type="line"/>
      <point x="980" y="474" type="line"/>
      <point x="645" y="474" type="line"/>
      <point x="645" y="131" type="line"/>
      <point x="495" y="131" type="line"/>
      <point x="495" y="474" type="line"/>
    </contour>
  </outline>
</glyph>
<glyph name="comma" format="2">
  <advance width="500"/>
  <unicode hex="002C"/>
  <outline>
    <contour>
      <point x="250" y="204" type="curve" smooth="yes"/>
      <point x="315" y="204"/>
      <point x="360" y="159"/>
      <point x="360" y="94" type="curve" smooth="yes"/>
      <point x="360" y="69"/>
      <point x="355" y="52"/>
      <point x="336" y="0" type="curve" smooth="yes"/>
      <point x="245" y="-250" type="line"/>
      <point x="147" y="-250" type="line"/>
      <point x="204" y="-7" type="line"/>
      <point x="167" y="7"/>
      <point x="140" y="45"/>
      <point x="140" y="94" type="curve" smooth="yes"/>
      <point x="140" y="159"/>
      <point x="185" y="204"/>
    </contour>
  </outline>
</glyph>
<glyph name="hyphen" format="2">
  <advance width="820"/>
  <unicode hex="002D"/>
  <outline>
    <contour>
      <point x="160" y="474" type="line"/>
      <point x="160" y="608" type="line"/>
      <point x="660" y="608" type="line"/>
      <point x="660" y="474" type="line"/>
    </contour>
  </outline>
</glyph>
<glyph name="period" format="2">
  <advance width="500"/>
  <unicode hex="002E"/>
  <outline>
    <contour>
      <point x="250" y="204" type="curve" smooth="yes"/>
      <point x="315" y="204"/>
      <point x="360" y="159"/>
      <point x="360" y="94" type="curve" smooth="yes"/>
      <point x="360" y="29"/>
      <point x="315" y="-16"/>
      <point x="250" y="-16" type="curve" smooth="yes"/>
      <point x="185" y="-16"/>
      <point x="140" y="29"/>
      <point x="140" y="94" type="curve" smooth="yes"/>
      <point x="140" y="159"/>
      <point x="185" y="204"/>
    </contour>
  </outline>
</glyph>
<glyph name="slash" format="2">
  <advance width="930"/>
  <unicode hex="002F"/>
  <outline>
    <contour>
      <point x="677" y="1416" type="line"/>
      <point x="824" y="1416" type="line"/>
      <point x="253" y="-90" type="line"/>
      <point x="106" y="-90" type="line"/>
    </contour>
  </outline>
</glyph>
<glyph name="one" format="2">
  <advance width="758"/>
  <unicode hex="0031"/>
  <outline>
    <contour>
      <point x="538" y="0" type="line"/>
      <point x="382" y="0" type="line"/>
      <point x="382" y="1235" type="line"/>
      <point x="185" y="1133" type="line"/>
      <point x="120" y="1261" type="line"/>
      <point x="420" y="1416" type="line"/>
      <point x="538" y="1416" type="line"/>
    </contour>
  </outline>
</glyph>
<glyph name="two" format="2">
  <advance width="1108"/>
  <unicode hex="0032"/>
  <outline>
    <contour>
      <point x="512" y="1435" type="curve" smooth="yes"/>
      <point x="753" y="1435"/>
      <point x="920" y="1265"/>
      <point x="920" y="1040" type="curve" smooth="yes"/>
      <point x="920" y="928"/>
      <point x="878" y="836"/>
      <point x="794" y="724" type="curve" smooth="yes"/>
      <point x="354" y="140" type="line"/>
      <point x="962" y="140" type="line"/>
      <point x="962" y="0" type="line"/>
      <point x="146" y="0" type="line"/>
      <point x="146" y="108" type="line"/>
      <point x="663" y="800" type="line" smooth="yes"/>
      <point x="726" y="884"/>
      <point x="764" y="947"/>
      <point x="764" y="1040" type="curve" smooth="yes"/>
      <point x="764" y="1188"/>
      <point x="666" y="1295"/>
      <point x="512" y="1295" type="curve" smooth="yes"/>
      <point x="401" y="1295"/>
      <point x="322" y="1242"/>
      <point x="257" y="1180" type="curve"/>
      <point x="155" y="1286" type="line"/>
      <point x="237" y="1365"/>
      <point x="357" y="1435"/>
    </contour>
  </outline>
</glyph>
<glyph name="three" format="2">
  <advance width="1108"/>
  <unicode hex="0033"/>
  <outline>
    <contour>
      <point x="554" y="1435" type="curve" smooth="yes"/>
      <point x="787" y="1435"/>
      <point x="954" y="1275"/>
      <point x="954" y="1047" type="curve" smooth="yes"/>
      <point x="954" y="914"/>
      <point x="887" y="790"/>
      <point x="786" y="734" type="curve"/>
      <point x="901" y="672"/>
      <point x="977" y="540"/>
      <point x="977" y="392" type="curve" smooth="yes"/>
      <point x="977" y="157"/>
      <point x="808" y="-19"/>
      <point x="554" y="-19" type="curve" smooth="yes"/>
      <point x="388" y="-19"/>
      <point x="256" y="58"/>
      <point x="166" y="144" type="curve"/>
      <point x="268" y="246" type="line"/>
      <point x="335" y="182"/>
      <point x="432" y="121"/>
      <point x="554" y="121" type="curve" smooth="yes"/>
      <point x="716" y="121"/>
      <point x="821" y="231"/>
      <point x="821" y="390" type="curve" smooth="yes"/>
      <point x="821" y="480"/>
      <point x="784" y="558"/>
      <point x="729" y="603" type="curve" smooth="yes"/>
      <point x="658" y="661"/>
      <point x="589" y="661"/>
      <point x="475" y="661" type="curve" smooth="yes"/>
      <point x="393" y="661" type="line"/>
      <point x="393" y="801" type="line"/>
      <point x="478" y="801" type="line" smooth="yes"/>
      <point x="585" y="801"/>
      <point x="650" y="801"/>
      <point x="714" y="854" type="curve" smooth="yes"/>
      <point x="764" y="896"/>
      <point x="798" y="966"/>
      <point x="798" y="1049" type="curve" smooth="yes"/>
      <point x="798" y="1193"/>
      <point x="703" y="1295"/>
      <point x="554" y="1295" type="curve" smooth="yes"/>
      <point x="439" y="1295"/>
      <point x="348" y="1235"/>
      <point x="282" y="1170" type="curve"/>
      <point x="180" y="1272" type="line"/>
      <point x="266" y="1357"/>
      <point x="391" y="1435"/>
    </contour>
  </outline>
</glyph>
<glyph name="four" format="2">
  <advance width="1142"/>
  <unicode hex="0034"/>
  <outline>
    <contour>
      <point x="1012" y="490" type="line"/>
      <point x="1012" y="350" type="line"/>
      <point x="892" y="350" type="line"/>
      <point x="892" y="0" type="line"/>
      <point x="736" y="0" type="line"/>
      <point x="736" y="350" type="line"/>
      <point x="130" y="350" type="line"/>
      <point x="130" y="451" type="line"/>
      <point x="544" y="1416" type="line"/>
      <point x="701" y="1416" type="line"/>
      <point x="303" y="490" type="line"/>
      <point x="736" y="490" type="line"/>
      <point x="736" y="840" type="line"/>
      <point x="892" y="840" type="line"/>
      <point x="892" y="490" type="line"/>
    </contour>
  </outline>
</glyph>
<glyph name="five" format="2">
  <advance width="1108"/>
  <unicode hex="0035"/>
  <outline>
    <contour>
      <point x="894" y="1416" type="line"/>
      <point x="894" y="1276" type="line"/>
      <point x="356" y="1276" type="line"/>
      <point x="356" y="806" type="line"/>
      <point x="423" y="848"/>
      <point x="492" y="867"/>
      <point x="572" y="867" type="curve" smooth="yes"/>
      <point x="750" y="867"/>
      <point x="972" y="726"/>
      <point x="972" y="426" type="curve" smooth="yes"/>
      <point x="972" y="157"/>
      <point x="787" y="-19"/>
      <point x="549" y="-19" type="curve" smooth="yes"/>
      <point x="384" y="-19"/>
      <point x="252" y="64"/>
      <point x="164" y="142" type="curve"/>
      <point x="260" y="250" type="line"/>
      <point x="329" y="188"/>
      <point x="428" y="121"/>
      <point x="549" y="121" type="curve" smooth="yes"/>
      <point x="720" y="121"/>
      <point x="816" y="259"/>
      <point x="816" y="426" type="curve" smooth="yes"/>
      <point x="816" y="600"/>
      <point x="715" y="731"/>
      <point x="549" y="731" type="curve" smooth="yes"/>
      <point x="462" y="731"/>
      <point x="385" y="694"/>
      <point x="322" y="653" type="curve"/>
      <point x="200" y="719" type="line"/>
      <point x="200" y="1416" type="line"/>
    </contour>
  </outline>
</glyph>
<glyph name="six" format="2">
  <advance width="1108"/>
  <unicode hex="0036"/>
  <outline>
    <contour>
      <point x="554" y="761" type="curve" smooth="yes"/>
      <point x="407" y="761"/>
      <point x="287" y="648"/>
      <point x="287" y="441" type="curve" smooth="yes"/>
      <point x="287" y="234"/>
      <point x="407" y="121"/>
      <point x="554" y="121" type="curve" smooth="yes"/>
      <point x="701" y="121"/>
      <point x="821" y="234"/>
      <point x="821" y="441" type="curve" smooth="yes"/>
      <point x="821" y="648"/>
      <point x="701" y="761"/>
    </contour>
    <contour>
      <point x="584" y="891" type="curve" smooth="yes"/>
      <point x="821" y="891"/>
      <point x="977" y="685"/>
      <point x="977" y="441" type="curve" smooth="yes"/>
      <point x="977" y="187"/>
      <point x="813" y="-19"/>
      <point x="554" y="-19" type="curve" smooth="yes"/>
      <point x="295" y="-19"/>
      <point x="131" y="188"/>
      <point x="131" y="442" type="curve" smooth="yes"/>
      <point x="131" y="587"/>
      <point x="184" y="689"/>
      <point x="240" y="796" type="curve" smooth="yes"/>
      <point x="561" y="1416" type="line"/>
      <point x="727" y="1416" type="line"/>
      <point x="437" y="864" type="line"/>
      <point x="482" y="883"/>
      <point x="532" y="891"/>
    </contour>
  </outline>
</glyph>
<glyph name="seven" format="2">
  <advance width="1108"/>
  <unicode hex="0037"/>
  <outline>
    <contour>
      <point x="126" y="1276" type="line"/>
      <point x="126" y="1416" type="line"/>
      <point x="982" y="1416" type="line"/>
      <point x="982" y="1322" type="line"/>
      <point x="437" y="0" type="line"/>
      <point x="270" y="0" type="line"/>
      <point x="797" y="1276" type="line"/>
    </contour>
  </outline>
</glyph>
<glyph name="eight" format="2">
  <advance width="1108"/>
  <unicode hex="0038"/>
  <outline>
    <contour>
      <point x="554" y="1435" type="curve" smooth="yes"/>
      <point x="789" y="1435"/>
      <point x="949" y="1266"/>
      <point x="949" y="1048" type="curve" smooth="yes"/>
      <point x="949" y="917"/>
      <point x="891" y="805"/>
      <point x="784" y="735" type="curve"/>
      <point x="908" y="663"/>
      <point x="977" y="537"/>
      <point x="977" y="391" type="curve" smooth="yes"/>
      <point x="977" y="159"/>
      <point x="804" y="-19"/>
      <point x="554" y="-19" type="curve" smooth="yes"/>
      <point x="304" y="-19"/>
      <point x="131" y="159"/>
      <point x="131" y="391" type="curve" smooth="yes"/>
      <point x="131" y="537"/>
      <point x="200" y="663"/>
      <point x="324" y="735" type="curve"/>
      <point x="217" y="805"/>
      <point x="159" y="917"/>
      <point x="159" y="1048" type="curve" smooth="yes"/>
      <point x="159" y="1266"/>
      <point x="319" y="1435"/>
    </contour>
    <contour>
      <point x="554" y="1295" type="curve" smooth="yes"/>
      <point x="415" y="1295"/>
      <point x="315" y="1205"/>
      <point x="315" y="1048" type="curve" smooth="yes"/>
      <point x="315" y="891"/>
      <point x="415" y="801"/>
      <point x="554" y="801" type="curve" smooth="yes"/>
      <point x="693" y="801"/>
      <point x="793" y="891"/>
      <point x="793" y="1048" type="curve" smooth="yes"/>
      <point x="793" y="1205"/>
      <point x="693" y="1295"/>
    </contour>
    <contour>
      <point x="554" y="661" type="curve" smooth="yes"/>
      <point x="398" y="661"/>
      <point x="287" y="560"/>
      <point x="287" y="391" type="curve" smooth="yes"/>
      <point x="287" y="222"/>
      <point x="398" y="121"/>
      <point x="554" y="121" type="curve" smooth="yes"/>
      <point x="710" y="121"/>
      <point x="821" y="222"/>
      <point x="821" y="391" type="curve" smooth="yes"/>
      <point x="821" y="560"/>
      <point x="710" y="661"/>
    </contour>
  </outline>
</glyph>
<glyph name="nine" format="2">
  <advance width="1108"/>
  <unicode hex="0039"/>
  <outline>
    <contour>
      <point x="554" y="1435" type="curve" smooth="yes"/>
      <point x="811" y="1435"/>
      <point x="972" y="1228"/>
      <point x="972" y="975" type="curve" smooth="yes"/>
      <point x="972" y="839"/>
      <point x="927" y="741"/>
      <point x="876" y="642" type="curve" smooth="yes"/>
      <point x="546" y="0" type="line"/>
      <point x="375" y="0" type="line"/>
      <point x="661" y="550" type="line"/>
      <point x="616" y="532"/>
      <point x="573" y="525"/>
      <point x="524" y="525" type="curve" smooth="yes"/>
      <point x="284" y="525"/>
      <point x="136" y="737"/>
      <point x="136" y="975" type="curve" smooth="yes"/>
      <point x="136" y="1228"/>
      <point x="297" y="1435"/>
    </contour>
    <contour>
      <point x="554" y="1295" type="curve" smooth="yes"/>
      <point x="410" y="1295"/>
      <point x="292" y="1183"/>
      <point x="292" y="975" type="curve" smooth="yes"/>
      <point x="292" y="767"/>
      <point x="410" y="655"/>
      <point x="554" y="655" type="curve" smooth="yes"/>
      <point x="698" y="655"/>
      <point x="816" y="767"/>
      <point x="816" y="975" type="curve" smooth="yes"/>
      <point x="816" y="1183"/>
      <point x="698" y="1295"/>
    </contour>
  </outline>
</glyph>
<glyph name="colon" format="2">
  <advance width="500"/>
  <unicode hex="003A"/>
  <outline>
    <contour>
      <point x="250" y="204" type="curve" smooth="yes"/>
      <point x="315" y="204"/>
      <point x="360" y="159"/>
      <point x="360" y="94" type="curve" smooth="yes"/>
      <point x="360" y="29"/>
      <point x="315" y="-16"/>
      <point x="250" y="-16" type="curve" smooth="yes"/>
      <point x="185" y="-16"/>
      <point x="140" y="29"/>
      <point x="140" y="94" type="curve" smooth="yes"/>
      <point x="140" y="159"/>
      <point x="185" y="204"/>
    </contour>
    <contour>
      <point x="250" y="1101" type="curve" smooth="yes"/>
      <point x="315" y="1101"/>
      <point x="360" y="1056"/>
      <point x="360" y="991" type="curve" smooth="yes"/>
      <point x="360" y="926"/>
      <point x="315" y="881"/>
      <point x="250" y="881" type="curve" smooth="yes"/>
      <point x="185" y="881"/>
      <point x="140" y="926"/>
      <point x="140" y="991" type="curve" smooth="yes"/>
      <point x="140" y="1056"/>
      <point x="185" y="1101"/>
    </contour>
  </outline>
</glyph>
<glyph name="semicolon" format="2">
  <advance width="500"/>
  <unicode hex="003B"/>
  <outline>
    <contour>
      <point x="250" y="1101" type="curve" smooth="yes"/>
      <point x="315" y="1101"/>
      <point x="360" y="1056"/>
      <point x="360" y="991" type="curve" smooth="yes"/>
      <point x="360" y="926"/>
      <point x="315" y="881"/>
      <point x="250" y="881" type="curve" smooth="yes"/>
      <point x="185" y="881"/>
      <point x="140" y="926"/>
      <point x="140" y="991" type="curve" smooth="yes"/>
      <point x="140" y="1056"/>
      <point x="185" y="1101"/>
    </contour>
    <contour>
      <point x="250" y="204" type="curve" smooth="yes"/>
      <point x="315" y="204"/>
      <point x="360" y="159"/>
      <point x="360" y="94" type="curve" smooth="yes"/>
      <point x="360" y="69"/>
      <point x="355" y="52"/>
      <point x="336" y="0" type="curve" smooth="yes"/>
      <point x="245" y="-250" type="line"/>
      <point x="147" y="-250" type="line"/>
      <point x="204" y="-7" type="line"/>
      <point x="167" y="7"/>
      <point x="140" y="45"/>
      <point x="140" y="94" type="curve" smooth="yes"/>
      <point x="140" y="159"/>
      <point x="185" y="204"/>
    </contour>
  </outline>
</glyph>
<glyph name="less" format="2">
  <advance width="963"/>
  <unicode hex="003C"/>
  <outline>
    <contour>
      <point x="160" y="597" type="line"/>
      <point x="768" y="951" type="line"/>
      <point x="837" y="831" type="line"/>
      <point x="327" y="541" type="line"/>
      <point x="837" y="251" type="line"/>
      <point x="768" y="131" type="line"/>
      <point x="160" y="485" type="line"/>
    </contour>
  </outline>
</glyph>
<glyph name="equal" format="2">
  <advance width="1060"/>
  <unicode hex="003D"/>
  <outline>
    <contour>
      <point x="180" y="634" type="line"/>
      <point x="180" y="768" type="line"/>
      <point x="880" y="768" type="line"/>
      <point x="880" y="634" type="line"/>
    </contour>
    <contour>
      <point x="180" y="314" type="line"/>
      <point x="180" y="448" type="line"/>
      <point x="880" y="448" type="line"/>
      <point x="880" y="314" type="line"/>
    </contour>
  </outline>
</glyph>
<glyph name="greater" format="2">
  <advance width="963"/>
  <unicode hex="003E"/>
  <outline>
    <contour>
      <point x="803" y="597" type="line"/>
      <point x="803" y="485" type="line"/>
      <point x="195" y="131" type="line"/>
      <point x="126" y="251" type="line"/>
      <point x="636" y="541" type="line"/>
      <point x="126" y="831" type="line"/>
      <point x="195" y="951" type="line"/>
    </contour>
  </outline>
</glyph>
<glyph name="at" format="2">
  <advance width="1519"/>
  <unicode hex="0040"/>
  <outline>
    <contour>
      <point x="719" y="537" type="curve" smooth="yes"/>
      <point x="719" y="430"/>
      <point x="791" y="334"/>
      <point x="934" y="334" type="curve" smooth="yes"/>
      <point x="1037" y="334"/>
      <point x="1134" y="382"/>
      <point x="1170" y="495" type="curve" smooth="yes"/>
      <point x="1189" y="555"/>
      <point x="1189" y="620"/>
      <point x="1189" y="743" type="curve"/>
      <point x="1044" y="743" type="line" smooth="yes"/>
      <point x="950" y="743"/>
      <point x="900" y="743"/>
      <point x="854" y="729" type="curve" smooth="yes"/>
      <point x="766" y="702"/>
      <point x="719" y="627"/>
    </contour>
    <contour>
      <point x="821" y="1314" type="curve" smooth="yes"/>
      <point x="972" y="1314"/>
      <point x="1111" y="1303"/>
      <point x="1214" y="1216" type="curve" smooth="yes"/>
      <point x="1339" y="1110"/>
      <point x="1339" y="980"/>
      <point x="1339" y="867" type="curve" smooth="yes"/>
      <point x="1339" y="216" type="line"/>
      <point x="1189" y="216" type="line"/>
      <point x="1189" y="331" type="line"/>
      <point x="1120" y="252"/>
      <point x="1033" y="200"/>
      <point x="914" y="200" type="curve" smooth="yes"/>
      <point x="709" y="200"/>
      <point x="569" y="347"/>
      <point x="569" y="537" type="curve" smooth="yes"/>
      <point x="569" y="677"/>
      <point x="652" y="800"/>
      <point x="804" y="846" type="curve" smooth="yes"/>
      <point x="873" y="867"/>
      <point x="942" y="867"/>
      <point x="1038" y="867" type="curve" smooth="yes"/>
      <point x="1189" y="867" type="line"/>
      <point x="1189" y="964"/>
      <point x="1189" y="1033"/>
      <point x="1132" y="1098" type="curve" smooth="yes"/>
      <point x="1067" y="1172"/>
      <point x="957" y="1180"/>
      <point x="822" y="1180" type="curve" smooth="yes"/>
      <point x="668" y="1180"/>
      <point x="545" y="1175"/>
      <point x="458" y="1105" type="curve" smooth="yes"/>
      <point x="330" y="1001"/>
      <point x="330" y="775"/>
      <point x="330" y="541" type="curve" smooth="yes"/>
      <point x="330" y="271"/>
      <point x="339" y="75"/>
      <point x="458" y="-23" type="curve" smooth="yes"/>
      <point x="538" y="-89"/>
      <point x="633" y="-98"/>
      <point x="812" y="-98" type="curve" smooth="yes"/>
      <point x="1043" y="-98"/>
      <point x="1153" y="-98"/>
      <point x="1301" y="-38" type="curve"/>
      <point x="1354" y="-163" type="line"/>
      <point x="1188" y="-232"/>
      <point x="1045" y="-232"/>
      <point x="812" y="-232" type="curve" smooth="yes"/>
      <point x="598" y="-232"/>
      <point x="473" y="-219"/>
      <point x="356" y="-121" type="curve" smooth="yes"/>
      <point x="190" y="18"/>
      <point x="180" y="247"/>
      <point x="180" y="541" type="curve" smooth="yes"/>
      <point x="180" y="836"/>
      <point x="190" y="1068"/>
      <point x="356" y="1203" type="curve" smooth="yes"/>
      <point x="478" y="1302"/>
      <point x="623" y="1314"/>
    </contour>
  </outline>
</glyph>
<glyph name="A" format="2">
  <advance width="1190"/>
  <unicode hex="0041"/>
  <anchor x="20" y="0" name="DoubleTop"/>
  <anchor x="20" y="0" name="Apos"/>
  <anchor x="595" y="1380" name="Center"/>
  <anchor x="1075" y="0" name="Bottom"/>
  <anchor x="595" y="1416" name="Top"/>
  <outline>
    <contour>
      <point x="830" y="482" type="line"/>
      <point x="595" y="1205" type="line"/>
      <point x="360" y="482" type="line"/>
    </contour>
    <contour>
      <point x="520" y="1416" type="line"/>
      <point x="670" y="1416" type="line"/>
      <point x="1150" y="0" type="line"/>
      <point x="987" y="0" type="line"/>
      <point x="876" y="342" type="line"/>
      <point x="314" y="342" type="line"/>
      <point x="203" y="0" type="line"/>
      <point x="40" y="0" type="line"/>
    </contour>
  </outline>
</glyph>
<glyph name="B" format="2">
  <advance width="1166"/>
  <unicode hex="0042"/>
  <outline>
    <contour>
      <point x="336" y="792" type="line"/>
      <point x="532" y="792" type="line" smooth="yes"/>
      <point x="610" y="792"/>
      <point x="664" y="792"/>
      <point x="710" y="812" type="curve" smooth="yes"/>
      <point x="809" y="855"/>
      <point x="842" y="955"/>
      <point x="842" y="1034" type="curve" smooth="yes"/>
      <point x="842" y="1095"/>
      <point x="819" y="1214"/>
      <point x="702" y="1259" type="curve" smooth="yes"/>
      <point x="658" y="1276"/>
      <point x="602" y="1276"/>
      <point x="532" y="1276" type="curve" smooth="yes"/>
      <point x="336" y="1276" type="line"/>
    </contour>
    <contour>
      <point x="336" y="652" type="line"/>
      <point x="336" y="140" type="line"/>
      <point x="562" y="140" type="line" smooth="yes"/>
      <point x="643" y="140"/>
      <point x="701" y="140"/>
      <point x="753" y="163" type="curve" smooth="yes"/>
      <point x="861" y="211"/>
      <point x="890" y="321"/>
      <point x="890" y="396" type="curve" smooth="yes"/>
      <point x="890" y="476"/>
      <point x="857" y="589"/>
      <point x="743" y="633" type="curve" smooth="yes"/>
      <point x="694" y="652"/>
      <point x="641" y="652"/>
      <point x="562" y="652" type="curve" smooth="yes"/>
    </contour>
    <contour>
      <point x="846" y="735" type="curve"/>
      <point x="968" y="672"/>
      <point x="1046" y="555"/>
      <point x="1046" y="396" type="curve" smooth="yes"/>
      <point x="1046" y="233"/>
      <point x="955" y="71"/>
      <point x="771" y="19" type="curve" smooth="yes"/>
      <point x="704" y="0"/>
      <point x="640" y="0"/>
      <point x="562" y="0" type="curve" smooth="yes"/>
      <point x="180" y="0" type="line"/>
      <point x="180" y="1416" type="line"/>
      <point x="532" y="1416" type="line" smooth="yes"/>
      <point x="611" y="1416"/>
      <point x="666" y="1416"/>
      <point x="726" y="1400" type="curve" smooth="yes"/>
      <point x="884" y="1358"/>
      <point x="998" y="1219"/>
      <point x="998" y="1034" type="curve" smooth="yes"/>
      <point x="998" y="902"/>
      <point x="941" y="799"/>
    </contour>
  </outline>
</glyph>
<glyph name="D" format="2">
  <advance width="1217"/>
  <unicode hex="0044"/>
  <anchor x="581" y="0" name="Bottom"/>
  <anchor x="587" y="1416" name="Top"/>
  <outline>
    <contour>
      <point x="336" y="1276" type="line"/>
      <point x="336" y="140" type="line"/>
      <point x="539" y="140" type="line" smooth="yes"/>
      <point x="613" y="140"/>
      <point x="704" y="140"/>
      <point x="764" y="175" type="curve" smooth="yes"/>
      <point x="931" y="271"/>
      <point x="931" y="497"/>
      <point x="931" y="708" type="curve" smooth="yes"/>
      <point x="931" y="919"/>
      <point x="931" y="1145"/>
      <point x="764" y="1241" type="curve" smooth="yes"/>
      <point x="704" y="1276"/>
      <point x="613" y="1276"/>
      <point x="539" y="1276" type="curve" smooth="yes"/>
    </contour>
    <contour>
      <point x="180" y="1416" type="line"/>
      <point x="539" y="1416" type="line" smooth="yes"/>
      <point x="616" y="1416"/>
      <point x="689" y="1416"/>
      <point x="768" y="1393" type="curve" smooth="yes"/>
      <point x="898" y="1355"/>
      <point x="983" y="1258"/>
      <point x="1028" y="1156" type="curve" smooth="yes"/>
      <point x="1087" y="1022"/>
      <point x="1087" y="853"/>
      <point x="1087" y="708" type="curve" smooth="yes"/>
      <point x="1087" y="563"/>
      <point x="1087" y="394"/>
      <point x="1028" y="260" type="curve" smooth="yes"/>
      <point x="983" y="158"/>
      <point x="898" y="61"/>
      <point x="768" y="23" type="curve" smooth="yes"/>
      <point x="689" y="0"/>
      <point x="616" y="0"/>
      <point x="539" y="0" type="curve" smooth="yes"/>
      <point x="180" y="0" type="line"/>
    </contour>
  </outline>
</glyph>
<glyph name="E" format="2">
  <advance width="1100"/>
  <unicode hex="0045"/>
  <anchor x="885" y="0" name="Bottom"/>
  <anchor x="577" y="1416" name="Top"/>
  <outline>
    <contour>
      <point x="180" y="1416" type="line"/>
      <point x="960" y="1416" type="line"/>
      <point x="960" y="1276" type="line"/>
      <point x="336" y="1276" type="line"/>
      <point x="336" y="792" type="line"/>
      <point x="870" y="792" type="line"/>
      <point x="870" y="652" type="line"/>
      <point x="336" y="652" type="line"/>
      <point x="336" y="140" type="line"/>
      <point x="960" y="140" type="line"/>
      <point x="960" y="0" type="line"/>
      <point x="180" y="0" type="line"/>
    </contour>
  </outline>
</glyph>
<glyph name="F" format="2">
  <advance width="1060"/>
  <unicode hex="0046"/>
  <outline>
    <contour>
      <point x="180" y="1416" type="line"/>
      <point x="940" y="1416" type="line"/>
      <point x="940" y="1276" type="line"/>
      <point x="336" y="1276" type="line"/>
      <point x="336" y="792" type="line"/>
      <point x="860" y="792" type="line"/>
      <point x="860" y="652" type="line"/>
      <point x="336" y="652" type="line"/>
      <point x="336" y="0" type="line"/>
      <point x="180" y="0" type="line"/>
    </contour>
  </outline>
</glyph>
<glyph name="H" format="2">
  <advance width="1280"/>
  <unicode hex="0048"/>
  <anchor x="630" y="0" name="Bottom"/>
  <anchor x="640" y="1416" name="Top"/>
  <outline>
    <contour>
      <point x="180" y="1416" type="line"/>
      <point x="336" y="1416" type="line"/>
      <point x="336" y="792" type="line"/>
      <point x="944" y="792" type="line"/>
      <point x="944" y="1416" type="line"/>
      <point x="1100" y="1416" type="line"/>
      <point x="1100" y="0" type="line"/>
      <point x="944" y="0" type="line"/>
      <point x="944" y="652" type="line"/>
      <point x="336" y="652" type="line"/>
      <point x="336" y="0" type="line"/>
      <point x="180" y="0" type="line"/>
    </contour>
  </outline>
</glyph>
<glyph name="J" format="2">
  <advance width="958"/>
  <unicode hex="004A"/>
  <anchor x="425" y="0" name="Bottom"/>
  <anchor x="720" y="1416" name="Top"/>
  <outline>
    <contour>
      <point x="642" y="1416" type="line"/>
      <point x="798" y="1416" type="line"/>
      <point x="798" y="433" type="line" smooth="yes"/>
      <point x="798" y="358"/>
      <point x="798" y="308"/>
      <point x="787" y="257" type="curve" smooth="yes"/>
      <point x="752" y="96"/>
      <point x="614" y="-19"/>
      <point x="425" y="-19" type="curve" smooth="yes"/>
      <point x="269" y="-19"/>
      <point x="163" y="41"/>
      <point x="80" y="103" type="curve"/>
      <point x="169" y="219" type="line"/>
      <point x="231" y="168"/>
      <point x="317" y="121"/>
      <point x="415" y="121" type="curve" smooth="yes"/>
      <point x="515" y="121"/>
      <point x="596" y="170"/>
      <point x="627" y="264" type="curve" smooth="yes"/>
      <point x="642" y="309"/>
      <point x="642" y="363"/>
      <point x="642" y="433" type="curve" smooth="yes"/>
    </contour>
  </outline>
</glyph>
<glyph name="K" format="2">
  <advance width="1179"/>
  <unicode hex="004B"/>
  <anchor x="614" y="0" name="Bottom"/>
  <outline>
    <contour>
      <point x="336" y="652" type="line"/>
      <point x="917" y="1416" type="line"/>
      <point x="1101" y="1416" type="line"/>
      <point x="592" y="753" type="line"/>
      <point x="1129" y="0" type="line"/>
      <point x="944" y="0" type="line"/>
      <point x="491" y="643" type="line"/>
      <point x="336" y="443" type="line"/>
      <point x="336" y="0" type="line"/>
      <point x="180" y="0" type="line"/>
      <point x="180" y="1416" type="line"/>
      <point x="336" y="1416" type="line"/>
    </contour>
  </outline>
</glyph>
<glyph name="L" format="2">
  <advance width="1010"/>
  <unicode hex="004C"/>
  <anchor x="500" y="1416" name="Apos"/>
  <anchor x="541" y="0" name="Bottom"/>
  <anchor x="336" y="722" name="Center"/>
  <anchor x="259" y="1416" name="Top"/>
  <outline>
    <contour>
      <point x="180" y="1416" type="line"/>
      <point x="336" y="1416" type="line"/>
      <point x="336" y="140" type="line"/>
      <point x="930" y="140" type="line"/>
      <point x="930" y="0" type="line"/>
      <point x="180" y="0" type="line"/>
    </contour>
  </outline>
</glyph>
<glyph name="M" format="2">
  <advance width="1494"/>
  <unicode hex="004D"/>
  <outline>
    <contour>
      <point x="180" y="0" type="line"/>
      <point x="180" y="1416" type="line"/>
      <point x="336" y="1416" type="line"/>
      <point x="747" y="577" type="line"/>
      <point x="1158" y="1416" type="line"/>
      <point x="1314" y="1416" type="line"/>
      <point x="1314" y="0" type="line"/>
      <point x="1158" y="0" type="line"/>
      <point x="1158" y="1122" type="line"/>
      <point x="818" y="421" type="line"/>
      <point x="676" y="421" type="line"/>
      <point x="336" y="1122" type="line"/>
      <point x="336" y="0" type="line"/>
    </contour>
  </outline>
</glyph>
<glyph name="P" format="2">
  <advance width="1126"/>
  <unicode hex="0050"/>
  <outline>
    <contour>
      <point x="512" y="1276" type="curve" smooth="yes"/>
      <point x="336" y="1276" type="line"/>
      <point x="336" y="656" type="line"/>
      <point x="512" y="656" type="line" smooth="yes"/>
      <point x="593" y="656"/>
      <point x="689" y="656"/>
      <point x="768" y="724" type="curve" smooth="yes"/>
      <point x="827" y="775"/>
      <point x="870" y="860"/>
      <point x="870" y="966" type="curve" smooth="yes"/>
      <point x="870" y="1072"/>
      <point x="827" y="1157"/>
      <point x="768" y="1208" type="curve" smooth="yes"/>
      <point x="689" y="1276"/>
      <point x="593" y="1276"/>
    </contour>
    <contour>
      <point x="512" y="1416" type="line" smooth="yes"/>
      <point x="595" y="1416"/>
      <point x="710" y="1416"/>
      <point x="821" y="1349" type="curve" smooth="yes"/>
      <point x="940" y="1277"/>
      <point x="1026" y="1141"/>
      <point x="1026" y="966" type="curve" smooth="yes"/>
      <point x="1026" y="791"/>
      <point x="940" y="655"/>
      <point x="821" y="583" type="curve" smooth="yes"/>
      <point x="710" y="516"/>
      <point x="595" y="516"/>
      <point x="512" y="516" type="curve" smooth="yes"/>
      <point x="336" y="516" type="line"/>
      <point x="336" y="0" type="line"/>
      <point x="180" y="0" type="line"/>
      <point x="180" y="1416" type="line"/>
    </contour>
  </outline>
</glyph>
<glyph name="Q" format="2">
  <advance width="1256"/>
  <unicode hex="0051"/>
  <outline>
    <contour>
      <point x="628" y="1295" type="curve" smooth="yes"/>
      <point x="483" y="1295"/>
      <point x="387" y="1229"/>
      <point x="340" y="1127" type="curve" smooth="yes"/>
      <point x="287" y="1012"/>
      <point x="286" y="850"/>
      <point x="286" y="708" type="curve" smooth="yes"/>
      <point x="286" y="566"/>
      <point x="287" y="404"/>
      <point x="340" y="289" type="curve" smooth="yes"/>
      <point x="387" y="187"/>
      <point x="483" y="121"/>
      <point x="628" y="121" type="curve" smooth="yes"/>
      <point x="773" y="121"/>
      <point x="869" y="187"/>
      <point x="916" y="289" type="curve" smooth="yes"/>
      <point x="969" y="404"/>
      <point x="970" y="566"/>
      <point x="970" y="708" type="curve" smooth="yes"/>
      <point x="970" y="850"/>
      <point x="969" y="1012"/>
      <point x="916" y="1127" type="curve" smooth="yes"/>
      <point x="869" y="1229"/>
      <point x="773" y="1295"/>
    </contour>
    <contour>
      <point x="628" y="1435" type="curve" smooth="yes"/>
      <point x="844" y="1435"/>
      <point x="991" y="1329"/>
      <point x="1060" y="1180" type="curve" smooth="yes"/>
      <point x="1126" y="1038"/>
      <point x="1126" y="856"/>
      <point x="1126" y="708" type="curve" smooth="yes"/>
      <point x="1126" y="560"/>
      <point x="1126" y="378"/>
      <point x="1060" y="236" type="curve" smooth="yes"/>
      <point x="1030" y="170"/>
      <point x="984" y="113"/>
      <point x="924" y="69" type="curve"/>
      <point x="1146" y="-154" type="line"/>
      <point x="1042" y="-258" type="line"/>
      <point x="782" y="1" type="line"/>
      <point x="735" y="-12"/>
      <point x="684" y="-19"/>
      <point x="628" y="-19" type="curve" smooth="yes"/>
      <point x="412" y="-19"/>
      <point x="265" y="87"/>
      <point x="196" y="236" type="curve" smooth="yes"/>
      <point x="130" y="378"/>
      <point x="130" y="560"/>
      <point x="130" y="708" type="curve" smooth="yes"/>
      <point x="130" y="856"/>
      <point x="130" y="1038"/>
      <point x="196" y="1180" type="curve" smooth="yes"/>
      <point x="265" y="1329"/>
      <point x="412" y="1435"/>
    </contour>
  </outline>
</glyph>
<glyph name="R" format="2">
  <advance width="1151"/>
  <unicode hex="0052"/>
  <anchor x="601" y="0" name="Bottom"/>
  <anchor x="556" y="1416" name="Top"/>
  <outline>
    <contour>
      <point x="507" y="1416" type="line" smooth="yes"/>
      <point x="618" y="1416"/>
      <point x="687" y="1416"/>
      <point x="777" y="1379" type="curve" smooth="yes"/>
      <point x="926" y="1318"/>
      <point x="1026" y="1170"/>
      <point x="1026" y="986" type="curve" smooth="yes"/>
      <point x="1026" y="800"/>
      <point x="923" y="651"/>
      <point x="774" y="592" type="curve"/>
      <point x="1051" y="0" type="line"/>
      <point x="882" y="0" type="line"/>
      <point x="628" y="556" type="line"/>
      <point x="336" y="556" type="line"/>
      <point x="336" y="0" type="line"/>
      <point x="180" y="0" type="line"/>
      <point x="180" y="1416" type="line"/>
    </contour>
    <contour>
      <point x="507" y="1276" type="curve" smooth="yes"/>
      <point x="336" y="1276" type="line"/>
      <point x="336" y="696" type="line"/>
      <point x="507" y="696" type="line" smooth="yes"/>
      <point x="595" y="696"/>
      <point x="654" y="696"/>
      <point x="711" y="720" type="curve" smooth="yes"/>
      <point x="837" y="773"/>
      <point x="870" y="901"/>
      <point x="870" y="986" type="curve" smooth="yes"/>
      <point x="870" y="1071"/>
      <point x="837" y="1199"/>
      <point x="711" y="1252" type="curve" smooth="yes"/>
      <point x="654" y="1276"/>
      <point x="595" y="1276"/>
    </contour>
  </outline>
</glyph>
<glyph name="S" format="2">
  <advance width="1045"/>
  <unicode hex="0053"/>
  <anchor x="517" y="0" name="Bottom"/>
  <anchor x="517" y="1416" name="Top"/>
  <outline>
    <contour>
      <point x="517" y="-19" type="curve" smooth="yes"/>
      <point x="349" y="-19"/>
      <point x="202" y="49"/>
      <point x="84" y="115" type="curve"/>
      <point x="153" y="241" type="line"/>
      <point x="255" y="182"/>
      <point x="382" y="121"/>
      <point x="517" y="121" type="curve" smooth="yes"/>
      <point x="725" y="121"/>
      <point x="789" y="270"/>
      <point x="789" y="381" type="curve" smooth="yes"/>
      <point x="789" y="471"/>
      <point x="748" y="577"/>
      <point x="638" y="624" type="curve" smooth="yes"/>
      <point x="543" y="665"/>
      <point x="418" y="663"/>
      <point x="306" y="728" type="curve" smooth="yes"/>
      <point x="172" y="806"/>
      <point x="114" y="935"/>
      <point x="114" y="1061" type="curve" smooth="yes"/>
      <point x="114" y="1260"/>
      <point x="261" y="1435"/>
      <point x="517" y="1435" type="curve" smooth="yes"/>
      <point x="655" y="1435"/>
      <point x="785" y="1385"/>
      <point x="890" y="1335" type="curve"/>
      <point x="830" y="1206" type="line"/>
      <point x="743" y="1248"/>
      <point x="632" y="1295"/>
      <point x="517" y="1295" type="curve" smooth="yes"/>
      <point x="345" y="1295"/>
      <point x="270" y="1179"/>
      <point x="270" y="1061" type="curve" smooth="yes"/>
      <point x="270" y="987"/>
      <point x="302" y="895"/>
      <point x="390" y="846" type="curve" smooth="yes"/>
      <point x="478" y="797"/>
      <point x="591" y="798"/>
      <point x="697" y="754" type="curve" smooth="yes"/>
      <point x="871" y="681"/>
      <point x="945" y="529"/>
      <point x="945" y="381" type="curve" smooth="yes"/>
      <point x="945" y="172"/>
      <point x="795" y="-19"/>
    </contour>
  </outline>
</glyph>
<glyph name="T" format="2">
  <advance width="1048"/>
  <unicode hex="0054"/>
  <anchor x="524" y="0" name="Bottom"/>
  <anchor x="524" y="1416" name="Top"/>
  <outline>
    <contour>
      <point x="60" y="1417" type="line"/>
      <point x="988" y="1417" type="line"/>
      <point x="988" y="1277" type="line"/>
      <point x="602" y="1277" type="line"/>
      <point x="602" y="0" type="line"/>
      <point x="446" y="0" type="line"/>
      <point x="446" y="1277" type="line"/>
      <point x="60" y="1277" type="line"/>
    </contour>
  </outline>
</glyph>
<glyph name="U" format="2">
  <advance width="1236"/>
  <unicode hex="0055"/>
  <anchor x="1076" y="1199" name="hook"/>
  <anchor x="618" y="1536" name="Center"/>
  <anchor x="618" y="0" name="Bottom"/>
  <anchor x="618" y="1416" name="Top"/>
  <outline>
    <contour>
      <point x="160" y="1416" type="line"/>
      <point x="316" y="1416" type="line"/>
      <point x="316" y="515" type="line" smooth="yes"/>
      <point x="316" y="430"/>
      <point x="316" y="369"/>
      <point x="336" y="310" type="curve" smooth="yes"/>
      <point x="385" y="166"/>
      <point x="516" y="121"/>
      <point x="618" y="121" type="curve" smooth="yes"/>
      <point x="720" y="121"/>
      <point x="851" y="166"/>
      <point x="900" y="310" type="curve" smooth="yes"/>
      <point x="920" y="369"/>
      <point x="920" y="430"/>
      <point x="920" y="515" type="curve" smooth="yes"/>
      <point x="920" y="1416" type="line"/>
      <point x="1076" y="1416" type="line"/>
      <point x="1076" y="515" type="line" smooth="yes"/>
      <point x="1076" y="425"/>
      <point x="1076" y="349"/>
      <point x="1050" y="270" type="curve" smooth="yes"/>
      <point x="982" y="63"/>
      <point x="804" y="-19"/>
      <point x="618" y="-19" type="curve" smooth="yes"/>
      <point x="432" y="-19"/>
      <point x="254" y="63"/>
      <point x="186" y="270" type="curve" smooth="yes"/>
      <point x="160" y="349"/>
      <point x="160" y="425"/>
      <point x="160" y="515" type="curve" smooth="yes"/>
    </contour>
  </outline>
</glyph>
<glyph name="V" format="2">
  <advance width="1190"/>
  <unicode hex="0056"/>
  <outline>
    <contour>
      <point x="40" y="1416" type="line"/>
      <point x="203" y="1416" type="line"/>
      <point x="595" y="211" type="line"/>
      <point x="987" y="1416" type="line"/>
      <point x="1150" y="1416" type="line"/>
      <point x="670" y="0" type="line"/>
      <point x="520" y="0" type="line"/>
    </contour>
  </outline>
</glyph>
<glyph name="W" format="2">
  <advance width="1500"/>
  <unicode hex="0057"/>
  <anchor x="750" y="1416" name="Top"/>
  <outline>
    <contour>
      <point x="220" y="1416" type="line"/>
      <point x="462" y="275" type="line"/>
      <point x="675" y="986" type="line"/>
      <point x="825" y="986" type="line"/>
      <point x="1038" y="275" type="line"/>
      <point x="1280" y="1416" type="line"/>
      <point x="1440" y="1416" type="line"/>
      <point x="1129" y="0" type="line"/>
      <point x="977" y="0" type="line"/>
      <point x="750" y="762" type="line"/>
      <point x="523" y="0" type="line"/>
      <point x="371" y="0" type="line"/>
      <point x="60" y="1416" type="line"/>
    </contour>
  </outline>
</glyph>
<glyph name="X" format="2">
  <advance width="1074"/>
  <unicode hex="0058"/>
  <outline>
    <contour>
      <point x="55" y="1416" type="line"/>
      <point x="230" y="1416" type="line"/>
      <point x="537" y="846" type="line"/>
      <point x="844" y="1416" type="line"/>
      <point x="1019" y="1416" type="line"/>
      <point x="625" y="722" type="line"/>
      <point x="1034" y="0" type="line"/>
      <point x="859" y="0" type="line"/>
      <point x="537" y="598" type="line"/>
      <point x="215" y="0" type="line"/>
      <point x="40" y="0" type="line"/>
      <point x="449" y="722" type="line"/>
    </contour>
  </outline>
</glyph>
<glyph name="Z" format="2">
  <advance width="1027"/>
  <unicode hex="005A"/>
  <anchor x="514" y="0" name="Bottom"/>
  <anchor x="514" y="1416" name="Top"/>
  <outline>
    <contour>
      <point x="105" y="1276" type="line"/>
      <point x="105" y="1416" type="line"/>
      <point x="927" y="1416" type="line"/>
      <point x="927" y="1315" type="line"/>
      <point x="266" y="140" type="line"/>
      <point x="947" y="140" type="line"/>
      <point x="947" y="0" type="line"/>
      <point x="80" y="0" type="line"/>
      <point x="80" y="101" type="line"/>
      <point x="741" y="1276" type="line"/>
    </contour>
  </outline>
</glyph>
<glyph name="bracketleft" format="2">
  <advance width="652"/>
  <unicode hex="005B"/>
  <outline>
    <contour>
      <point x="170" y="1538" type="line"/>
      <point x="502" y="1538" type="line"/>
      <point x="502" y="1414" type="line"/>
      <point x="310" y="1414" type="line"/>
      <point x="310" y="-332" type="line"/>
      <point x="502" y="-332" type="line"/>
      <point x="502" y="-456" type="line"/>
      <point x="170" y="-456" type="line"/>
    </contour>
  </outline>
</glyph>
<glyph name="asciicircum" format="2">
  <advance width="862"/>
  <unicode hex="005E"/>
  <anchor x="431" y="1082" name="_Top"/>
  <outline>
    <contour>
      <point x="571" y="1222" type="line"/>
      <point x="431" y="1360" type="line"/>
      <point x="291" y="1222" type="line"/>
      <point x="120" y="1222" type="line"/>
      <point x="378" y="1496" type="line"/>
      <point x="484" y="1496" type="line"/>
      <point x="742" y="1222" type="line"/>
    </contour>
  </outline>
</glyph>
<glyph name="underscore" format="2">
  <advance width="840"/>
  <unicode hex="005F"/>
  <outline>
    <contour>
      <point x="30" y="0" type="line"/>
      <point x="810" y="0" type="line"/>
      <point x="810" y="-150" type="line"/>
      <point x="30" y="-150" type="line"/>
    </contour>
  </outline>
</glyph>
<glyph name="grave" format="2">
  <advance width="563"/>
  <unicode hex="0060"/>
  <anchor x="350" y="1082" name="_Top"/>
  <outline>
    <contour>
      <point x="120" y="1496" type="line"/>
      <point x="289" y="1496" type="line"/>
      <point x="443" y="1222" type="line"/>
      <point x="285" y="1222" type="line"/>
    </contour>
  </outline>
</glyph>
<glyph name="a" format="2">
  <advance width="1020"/>
  <unicode hex="0061"/>
  <anchor x="495" y="1082" name="Top"/>
  <anchor x="795" y="0" name="Bottom"/>
  <anchor x="495" y="1062" name="Center"/>
  <outline>
    <contour>
      <point x="530" y="527" type="line" smooth="yes"/>
      <point x="458" y="527"/>
      <point x="375" y="527"/>
      <point x="317" y="477" type="curve" smooth="yes"/>
      <point x="280" y="445"/>
      <point x="250" y="392"/>
      <point x="250" y="321" type="curve" smooth="yes"/>
      <point x="250" y="214"/>
      <point x="321" y="118"/>
      <point x="465" y="118" type="curve" smooth="yes"/>
      <point x="553" y="118"/>
      <point x="624" y="154"/>
      <point x="664" y="207" type="curve" smooth="yes"/>
      <point x="720" y="281"/>
      <point x="720" y="378"/>
      <point x="720" y="468" type="curve" smooth="yes"/>
      <point x="720" y="527" type="line"/>
    </contour>
    <contour>
      <point x="485" y="1098" type="curve" smooth="yes"/>
      <point x="618" y="1098"/>
      <point x="722" y="1048"/>
      <point x="787" y="974" type="curve" smooth="yes"/>
      <point x="870" y="879"/>
      <point x="870" y="779"/>
      <point x="870" y="703" type="curve" smooth="yes"/>
      <point x="870" y="0" type="line"/>
      <point x="720" y="0" type="line"/>
      <point x="720" y="115" type="line"/>
      <point x="651" y="36"/>
      <point x="564" y="-16"/>
      <point x="445" y="-16" type="curve" smooth="yes"/>
      <point x="244" y="-16"/>
      <point x="100" y="131"/>
      <point x="100" y="321" type="curve" smooth="yes"/>
      <point x="100" y="427"/>
      <point x="146" y="509"/>
      <point x="209" y="563" type="curve" smooth="yes"/>
      <point x="311" y="651"/>
      <point x="443" y="651"/>
      <point x="530" y="651" type="curve" smooth="yes"/>
      <point x="720" y="651" type="line"/>
      <point x="720" y="703" type="line" smooth="yes"/>
      <point x="720" y="759"/>
      <point x="720" y="833"/>
      <point x="666" y="892" type="curve" smooth="yes"/>
      <point x="626" y="936"/>
      <point x="566" y="964"/>
      <point x="485" y="964" type="curve" smooth="yes"/>
      <point x="392" y="964"/>
      <point x="297" y="927"/>
      <point x="222" y="891" type="curve"/>
      <point x="165" y="1015" type="line"/>
      <point x="255" y="1056"/>
      <point x="362" y="1098"/>
    </contour>
  </outline>
</glyph>
<glyph name="c" format="2">
  <advance width="964"/>
  <unicode hex="0063"/>
  <anchor x="535" y="0" name="Bottom"/>
  <anchor x="535" y="1082" name="Top"/>
  <outline>
    <contour>
      <point x="535" y="1098" type="curve" smooth="yes"/>
      <point x="661" y="1098"/>
      <point x="777" y="1050"/>
      <point x="862" y="997" type="curve"/>
      <point x="791" y="879" type="line"/>
      <point x="723" y="923"/>
      <point x="629" y="964"/>
      <point x="535" y="964" type="curve" smooth="yes"/>
      <point x="427" y="964"/>
      <point x="369" y="914"/>
      <point x="331" y="859" type="curve" smooth="yes"/>
      <point x="275" y="777"/>
      <point x="275" y="645"/>
      <point x="275" y="547" type="curve" smooth="yes"/>
      <point x="275" y="429"/>
      <point x="275" y="315"/>
      <point x="326" y="230" type="curve" smooth="yes"/>
      <point x="376" y="147"/>
      <point x="460" y="118"/>
      <point x="535" y="118" type="curve" smooth="yes"/>
      <point x="632" y="118"/>
      <point x="740" y="162"/>
      <point x="808" y="208" type="curve"/>
      <point x="884" y="94" type="line"/>
      <point x="795" y="34"/>
      <point x="661" y="-16"/>
      <point x="535" y="-16" type="curve" smooth="yes"/>
      <point x="377" y="-16"/>
      <point x="254" y="63"/>
      <point x="194" y="167" type="curve" smooth="yes"/>
      <point x="126" y="285"/>
      <point x="125" y="405"/>
      <point x="125" y="547" type="curve" smooth="yes"/>
      <point x="125" y="664"/>
      <point x="126" y="800"/>
      <point x="194" y="915" type="curve" smooth="yes"/>
      <point x="256" y="1018"/>
      <point x="374" y="1098"/>
    </contour>
  </outline>
</glyph>
<glyph name="f" format="2">
  <advance width="615"/>
  <unicode hex="0066"/>
  <outline>
    <contour>
      <point x="210" y="1143" type="line" smooth="yes"/>
      <point x="210" y="1248"/>
      <point x="210" y="1325"/>
      <point x="265" y="1403" type="curve" smooth="yes"/>
      <point x="310" y="1466"/>
      <point x="388" y="1512"/>
      <point x="495" y="1512" type="curve" smooth="yes"/>
      <point x="541" y="1512"/>
      <point x="590" y="1504"/>
      <point x="635" y="1495" type="curve"/>
      <point x="608" y="1363" type="line"/>
      <point x="575" y="1371"/>
      <point x="530" y="1378"/>
      <point x="495" y="1378" type="curve" smooth="yes"/>
      <point x="445" y="1378"/>
      <point x="413" y="1361"/>
      <point x="391" y="1330" type="curve" smooth="yes"/>
      <point x="360" y="1286"/>
      <point x="360" y="1234"/>
      <point x="360" y="1143" type="curve" smooth="yes"/>
      <point x="360" y="1082" type="line"/>
      <point x="560" y="1082" type="line"/>
      <point x="560" y="958" type="line"/>
      <point x="360" y="958" type="line"/>
      <point x="360" y="0" type="line"/>
      <point x="210" y="0" type="line"/>
      <point x="210" y="958" type="line"/>
      <point x="60" y="958" type="line"/>
      <point x="60" y="1082" type="line"/>
      <point x="210" y="1082" type="line"/>
    </contour>
  </outline>
</glyph>
<glyph name="g" format="2">
  <advance width="1115"/>
  <unicode hex="0067"/>
  <anchor x="520" y="-414" name="Bottom"/>
  <anchor x="520" y="1082" name="Top"/>
  <outline>
    <contour>
      <point x="520" y="1098" type="curve" smooth="yes"/>
      <point x="644" y="1098"/>
      <point x="733" y="1047"/>
      <point x="805" y="967" type="curve"/>
      <point x="805" y="1082" type="line"/>
      <point x="955" y="1082" type="line"/>
      <point x="955" y="111" type="line" smooth="yes"/>
      <point x="955" y="12"/>
      <point x="955" y="-65"/>
      <point x="939" y="-127" type="curve" smooth="yes"/>
      <point x="886" y="-332"/>
      <point x="710" y="-427"/>
      <point x="520" y="-427" type="curve" smooth="yes"/>
      <point x="402" y="-427"/>
      <point x="278" y="-393"/>
      <point x="184" y="-354" type="curve"/>
      <point x="234" y="-228" type="line"/>
      <point x="313" y="-261"/>
      <point x="420" y="-293"/>
      <point x="520" y="-293" type="curve" smooth="yes"/>
      <point x="653" y="-293"/>
      <point x="762" y="-229"/>
      <point x="794" y="-92" type="curve" smooth="yes"/>
      <point x="805" y="-44"/>
      <point x="805" y="1"/>
      <point x="805" y="115" type="curve"/>
      <point x="733" y="35"/>
      <point x="644" y="-16"/>
      <point x="520" y="-16" type="curve" smooth="yes"/>
      <point x="380" y="-16"/>
      <point x="266" y="51"/>
      <point x="205" y="144" type="curve" smooth="yes"/>
      <point x="133" y="255"/>
      <point x="125" y="374"/>
      <point x="125" y="541" type="curve" smooth="yes"/>
      <point x="125" y="708"/>
      <point x="133" y="827"/>
      <point x="205" y="938" type="curve" smooth="yes"/>
      <point x="266" y="1031"/>
      <point x="380" y="1098"/>
    </contour>
    <contour>
      <point x="540" y="964" type="curve" smooth="yes"/>
      <point x="447" y="964"/>
      <point x="377" y="924"/>
      <point x="335" y="866" type="curve" smooth="yes"/>
      <point x="280" y="790"/>
      <point x="275" y="683"/>
      <point x="275" y="541" type="curve" smooth="yes"/>
      <point x="275" y="399"/>
      <point x="280" y="292"/>
      <point x="335" y="216" type="curve" smooth="yes"/>
      <point x="377" y="158"/>
      <point x="447" y="118"/>
      <point x="540" y="118" type="curve" smooth="yes"/>
      <point x="633" y="118"/>
      <point x="703" y="158"/>
      <point x="745" y="216" type="curve" smooth="yes"/>
      <point x="800" y="292"/>
      <point x="805" y="399"/>
      <point x="805" y="541" type="curve" smooth="yes"/>
      <point x="805" y="683"/>
      <point x="800" y="790"/>
      <point x="745" y="866" type="curve" smooth="yes"/>
      <point x="703" y="924"/>
      <point x="633" y="964"/>
    </contour>
  </outline>
</glyph>
<glyph name="h" format="2">
  <advance width="1100"/>
  <unicode hex="0068"/>
  <anchor x="550" y="0" name="Bottom"/>
  <anchor x="234" y="1496" name="Top"/>
  <outline>
    <contour>
      <point x="160" y="1496" type="line"/>
      <point x="310" y="1496" type="line"/>
      <point x="310" y="968" type="line"/>
      <point x="382" y="1047"/>
      <point x="466" y="1098"/>
      <point x="585" y="1098" type="curve" smooth="yes"/>
      <point x="707" y="1098"/>
      <point x="806" y="1043"/>
      <point x="867" y="966" type="curve" smooth="yes"/>
      <point x="950" y="862"/>
      <point x="950" y="734"/>
      <point x="950" y="645" type="curve" smooth="yes"/>
      <point x="950" y="0" type="line"/>
      <point x="800" y="0" type="line"/>
      <point x="800" y="645" type="line" smooth="yes"/>
      <point x="800" y="742"/>
      <point x="800" y="816"/>
      <point x="742" y="884" type="curve" smooth="yes"/>
      <point x="702" y="931"/>
      <point x="637" y="964"/>
      <point x="555" y="964" type="curve" smooth="yes"/>
      <point x="473" y="964"/>
      <point x="408" y="931"/>
      <point x="368" y="884" type="curve" smooth="yes"/>
      <point x="310" y="816"/>
      <point x="310" y="742"/>
      <point x="310" y="645" type="curve" smooth="yes"/>
      <point x="310" y="0" type="line"/>
      <point x="160" y="0" type="line"/>
    </contour>
  </outline>
</glyph>
<glyph name="l" format="2">
  <advance width="486"/>
  <unicode hex="006C"/>
  <anchor x="310" y="0" name="Bottom"/>
  <anchor x="234" y="1496" name="Top"/>
  <outline>
    <contour>
      <point x="160" y="1496" type="line"/>
      <point x="310" y="1496" type="line"/>
      <point x="310" y="191" type="line" smooth="yes"/>
      <point x="310" y="169"/>
      <point x="310" y="146"/>
      <point x="321" y="132" type="curve" smooth="yes"/>
      <point x="329" y="122"/>
      <point x="340" y="118"/>
      <point x="356" y="118" type="curve" smooth="yes"/>
      <point x="370" y="118"/>
      <point x="386" y="120"/>
      <point x="402" y="124" type="curve"/>
      <point x="426" y="-4" type="line"/>
      <point x="399" y="-12"/>
      <point x="369" y="-16"/>
      <point x="334" y="-16" type="curve" smooth="yes"/>
      <point x="278" y="-16"/>
      <point x="230" y="11"/>
      <point x="198" y="50" type="curve" smooth="yes"/>
      <point x="160" y="96"/>
      <point x="160" y="158"/>
      <point x="160" y="191" type="curve" smooth="yes"/>
    </contour>
  </outline>
</glyph>
<glyph name="m" format="2">
  <advance width="1660"/>
  <unicode hex="006D"/>
  <outline>
    <contour>
      <point x="1360" y="678" type="line" smooth="yes"/>
      <point x="1360" y="741"/>
      <point x="1360" y="800"/>
      <point x="1328" y="859" type="curve" smooth="yes"/>
      <point x="1293" y="924"/>
      <point x="1221" y="964"/>
      <point x="1135" y="964" type="curve" smooth="yes"/>
      <point x="1049" y="964"/>
      <point x="977" y="924"/>
      <point x="942" y="859" type="curve" smooth="yes"/>
      <point x="910" y="800"/>
      <point x="910" y="741"/>
      <point x="910" y="678" type="curve" smooth="yes"/>
      <point x="910" y="0" type="line"/>
      <point x="760" y="0" type="line"/>
      <point x="760" y="678" type="line" smooth="yes"/>
      <point x="760" y="741"/>
      <point x="760" y="800"/>
      <point x="728" y="859" type="curve" smooth="yes"/>
      <point x="693" y="924"/>
      <point x="621" y="964"/>
      <point x="535" y="964" type="curve" smooth="yes"/>
      <point x="449" y="964"/>
      <point x="377" y="924"/>
      <point x="342" y="859" type="curve" smooth="yes"/>
      <point x="310" y="800"/>
      <point x="310" y="741"/>
      <point x="310" y="678" type="curve" smooth="yes"/>
      <point x="310" y="0" type="line"/>
      <point x="160" y="0" type="line"/>
      <point x="160" y="1082" type="line"/>
      <point x="310" y="1082" type="line"/>
      <point x="310" y="971" type="line"/>
      <point x="379" y="1051"/>
      <point x="470" y="1098"/>
      <point x="565" y="1098" type="curve" smooth="yes"/>
      <point x="701" y="1098"/>
      <point x="802" y="1030"/>
      <point x="855" y="927" type="curve"/>
      <point x="924" y="1032"/>
      <point x="1033" y="1098"/>
      <point x="1165" y="1098" type="curve" smooth="yes"/>
      <point x="1310" y="1098"/>
      <point x="1431" y="1015"/>
      <point x="1483" y="880" type="curve" smooth="yes"/>
      <point x="1510" y="810"/>
      <point x="1510" y="742"/>
      <point x="1510" y="678" type="curve" smooth="yes"/>
      <point x="1510" y="0" type="line"/>
      <point x="1360" y="0" type="line"/>
    </contour>
  </outline>
</glyph>
<glyph name="p" format="2">
  <advance width="1115"/>
  <unicode hex="0070"/>
  <outline>
    <contour>
      <point x="595" y="1098" type="curve" smooth="yes"/>
      <point x="735" y="1098"/>
      <point x="849" y="1031"/>
      <point x="910" y="938" type="curve" smooth="yes"/>
      <point x="982" y="827"/>
      <point x="990" y="708"/>
      <point x="990" y="541" type="curve" smooth="yes"/>
      <point x="990" y="374"/>
      <point x="982" y="255"/>
      <point x="910" y="144" type="curve" smooth="yes"/>
      <point x="849" y="51"/>
      <point x="735" y="-16"/>
      <point x="595" y="-16" type="curve" smooth="yes"/>
      <point x="471" y="-16"/>
      <point x="382" y="35"/>
      <point x="310" y="115" type="curve"/>
      <point x="310" y="-414" type="line"/>
      <point x="160" y="-414" type="line"/>
      <point x="160" y="1082" type="line"/>
      <point x="310" y="1082" type="line"/>
      <point x="310" y="967" type="line"/>
      <point x="382" y="1047"/>
      <point x="471" y="1098"/>
    </contour>
    <contour>
      <point x="575" y="964" type="curve" smooth="yes"/>
      <point x="482" y="964"/>
      <point x="412" y="924"/>
      <point x="370" y="866" type="curve" smooth="yes"/>
      <point x="315" y="790"/>
      <point x="310" y="683"/>
      <point x="310" y="541" type="curve" smooth="yes"/>
      <point x="310" y="399"/>
      <point x="315" y="292"/>
      <point x="370" y="216" type="curve" smooth="yes"/>
      <point x="412" y="158"/>
      <point x="482" y="118"/>
      <point x="575" y="118" type="curve" smooth="yes"/>
      <point x="668" y="118"/>
      <point x="738" y="158"/>
      <point x="780" y="216" type="curve" smooth="yes"/>
      <point x="835" y="292"/>
      <point x="840" y="399"/>
      <point x="840" y="541" type="curve" smooth="yes"/>
      <point x="840" y="683"/>
      <point x="835" y="790"/>
      <point x="780" y="866" type="curve" smooth="yes"/>
      <point x="738" y="924"/>
      <point x="668" y="964"/>
    </contour>
  </outline>
</glyph>
<glyph name="r" format="2">
  <advance width="697"/>
  <unicode hex="0072"/>
  <anchor x="234" y="0" name="Bottom"/>
  <anchor x="465" y="1082" name="Top"/>
  <outline>
    <contour>
      <point x="565" y="1098" type="curve" smooth="yes"/>
      <point x="598" y="1098"/>
      <point x="629" y="1093"/>
      <point x="657" y="1087" type="curve"/>
      <point x="635" y="955" type="line"/>
      <point x="607" y="959"/>
      <point x="576" y="964"/>
      <point x="545" y="964" type="curve" smooth="yes"/>
      <point x="441" y="964"/>
      <point x="365" y="910"/>
      <point x="332" y="831" type="curve" smooth="yes"/>
      <point x="310" y="778"/>
      <point x="310" y="712"/>
      <point x="310" y="643" type="curve" smooth="yes"/>
      <point x="310" y="0" type="line"/>
      <point x="160" y="0" type="line"/>
      <point x="160" y="1082" type="line"/>
      <point x="310" y="1082" type="line"/>
      <point x="310" y="968" type="line"/>
      <point x="378" y="1049"/>
      <point x="455" y="1098"/>
    </contour>
  </outline>
</glyph>
<glyph name="s" format="2">
  <advance width="963"/>
  <unicode hex="0073"/>
  <anchor x="32" y="0" name="DoubleTop"/>
  <anchor x="32" y="0" name="Apos"/>
  <anchor x="32" y="0" name="Center"/>
  <anchor x="478" y="0" name="Bottom"/>
  <anchor x="478" y="1082" name="Top"/>
  <outline>
    <contour>
      <point x="478" y="1098" type="curve" smooth="yes"/>
      <point x="602" y="1098"/>
      <point x="724" y="1057"/>
      <point x="821" y="1016" type="curve"/>
      <point x="770" y="889" type="line"/>
      <point x="683" y="926"/>
      <point x="579" y="964"/>
      <point x="478" y="964" type="curve" smooth="yes"/>
      <point x="313" y="964"/>
      <point x="267" y="859"/>
      <point x="267" y="796" type="curve" smooth="yes"/>
      <point x="267" y="725"/>
      <point x="313" y="675"/>
      <point x="364" y="652" type="curve" smooth="yes"/>
      <point x="447" y="614"/>
      <point x="531" y="629"/>
      <point x="655" y="583" type="curve" smooth="yes"/>
      <point x="762" y="543"/>
      <point x="863" y="445"/>
      <point x="863" y="301" type="curve" smooth="yes"/>
      <point x="863" y="144"/>
      <point x="731" y="-16"/>
      <point x="478" y="-16" type="curve" smooth="yes"/>
      <point x="341" y="-16"/>
      <point x="206" y="30"/>
      <point x="100" y="77" type="curve"/>
      <point x="154" y="202" type="line"/>
      <point x="247" y="160"/>
      <point x="360" y="118"/>
      <point x="478" y="118" type="curve" smooth="yes"/>
      <point x="651" y="118"/>
      <point x="713" y="221"/>
      <point x="713" y="301" type="curve" smooth="yes"/>
      <point x="713" y="382"/>
      <point x="657" y="438"/>
      <point x="595" y="461" type="curve" smooth="yes"/>
      <point x="509" y="493"/>
      <point x="404" y="483"/>
      <point x="294" y="534" type="curve" smooth="yes"/>
      <point x="200" y="578"/>
      <point x="117" y="669"/>
      <point x="117" y="796" type="curve" smooth="yes"/>
      <point x="117" y="952"/>
      <point x="250" y="1098"/>
    </contour>
  </outline>
</glyph>
<glyph name="t" format="2">
  <advance width="652"/>
  <unicode hex="0074"/>
  <anchor x="581" y="1494" name="Apos"/>
  <anchor x="415" y="0" name="Bottom"/>
  <outline>
    <contour>
      <point x="190" y="303" type="curve" smooth="yes"/>
      <point x="190" y="958" type="line"/>
      <point x="40" y="958" type="line"/>
      <point x="40" y="1082" type="line"/>
      <point x="190" y="1082" type="line"/>
      <point x="190" y="1316" type="line"/>
      <point x="340" y="1316" type="line"/>
      <point x="340" y="1082" type="line"/>
      <point x="540" y="1082" type="line"/>
      <point x="540" y="958" type="line"/>
      <point x="340" y="958" type="line"/>
      <point x="340" y="303" type="line" smooth="yes"/>
      <point x="340" y="220"/>
      <point x="340" y="195"/>
      <point x="349" y="173" type="curve" smooth="yes"/>
      <point x="365" y="134"/>
      <point x="399" y="118"/>
      <point x="435" y="118" type="curve" smooth="yes"/>
      <point x="474" y="118"/>
      <point x="518" y="134"/>
      <point x="549" y="150" type="curve"/>
      <point x="607" y="26" type="line"/>
      <point x="552" y="2"/>
      <point x="501" y="-16"/>
      <point x="425" y="-16" type="curve" smooth="yes"/>
      <point x="312" y="-16"/>
      <point x="230" y="41"/>
      <point x="201" y="142" type="curve" smooth="yes"/>
      <point x="190" y="180"/>
      <point x="190" y="218"/>
    </contour>
  </outline>
</glyph>
<glyph name="u" format="2">
  <advance width="1100"/>
  <unicode hex="0075"/>
  <anchor x="940" y="865" name="hook"/>
  <anchor x="545" y="1202" name="Center"/>
  <anchor x="545" y="0" name="Bottom"/>
  <anchor x="545" y="1082" name="Top"/>
  <outline>
    <contour>
      <point x="150" y="1082" type="line"/>
      <point x="300" y="1082" type="line"/>
      <point x="300" y="437" type="line" smooth="yes"/>
      <point x="300" y="340"/>
      <point x="300" y="266"/>
      <point x="358" y="198" type="curve" smooth="yes"/>
      <point x="398" y="151"/>
      <point x="463" y="118"/>
      <point x="545" y="118" type="curve" smooth="yes"/>
      <point x="627" y="118"/>
      <point x="692" y="151"/>
      <point x="732" y="198" type="curve" smooth="yes"/>
      <point x="790" y="266"/>
      <point x="790" y="340"/>
      <point x="790" y="437" type="curve" smooth="yes"/>
      <point x="790" y="1082" type="line"/>
      <point x="940" y="1082" type="line"/>
      <point x="940" y="437" type="line" smooth="yes"/>
      <point x="940" y="364"/>
      <point x="940" y="293"/>
      <point x="913" y="221" type="curve" smooth="yes"/>
      <point x="859" y="76"/>
      <point x="722" y="-16"/>
      <point x="545" y="-16" type="curve" smooth="yes"/>
      <point x="368" y="-16"/>
      <point x="231" y="76"/>
      <point x="177" y="221" type="curve" smooth="yes"/>
      <point x="150" y="293"/>
      <point x="150" y="364"/>
      <point x="150" y="437" type="curve" smooth="yes"/>
    </contour>
  </outline>
</glyph>
<glyph name="v" format="2">
  <advance width="1010"/>
  <unicode hex="0076"/>
  <anchor x="505" y="1082" name="Top"/>
  <outline>
    <contour>
      <point x="433" y="0" type="line"/>
      <point x="60" y="1082" type="line"/>
      <point x="217" y="1082" type="line"/>
      <point x="505" y="192" type="line"/>
      <point x="793" y="1082" type="line"/>
      <point x="950" y="1082" type="line"/>
      <point x="577" y="0" type="line"/>
    </contour>
  </outline>
</glyph>
<glyph name="w" format="2">
  <advance width="1408"/>
  <unicode hex="0077"/>
  <anchor x="704" y="1082" name="Top"/>
  <outline>
    <contour>
      <point x="70" y="1082" type="line"/>
      <point x="223" y="1082" type="line"/>
      <point x="409" y="248" type="line"/>
      <point x="631" y="1082" type="line"/>
      <point x="777" y="1082" type="line"/>
      <point x="999" y="248" type="line"/>
      <point x="1185" y="1082" type="line"/>
      <point x="1338" y="1082" type="line"/>
      <point x="1079" y="0" type="line"/>
      <point x="933" y="0" type="line"/>
      <point x="704" y="856" type="line"/>
      <point x="475" y="0" type="line"/>
      <point x="329" y="0" type="line"/>
    </contour>
  </outline>
</glyph>
<glyph name="x" format="2">
  <advance width="968"/>
  <unicode hex="0078"/>
  <outline>
    <contour>
      <point x="898" y="0" type="line"/>
      <point x="728" y="0" type="line"/>
      <point x="484" y="421" type="line"/>
      <point x="240" y="0" type="line"/>
      <point x="70" y="0" type="line"/>
      <point x="399" y="545" type="line"/>
      <point x="75" y="1082" type="line"/>
      <point x="245" y="1082" type="line"/>
      <point x="484" y="669" type="line"/>
      <point x="723" y="1082" type="line"/>
      <point x="893" y="1082" type="line"/>
      <point x="569" y="545" type="line"/>
    </contour>
  </outline>
</glyph>
<glyph name="z" format="2">
  <advance width="880"/>
  <unicode hex="007A"/>
  <anchor x="440" y="0" name="Bottom"/>
  <anchor x="440" y="1082" name="Top"/>
  <outline>
    <contour>
      <point x="800" y="134" type="line"/>
      <point x="800" y="0" type="line"/>
      <point x="80" y="0" type="line"/>
      <point x="80" y="108" type="line"/>
      <point x="606" y="948" type="line"/>
      <point x="87" y="948" type="line"/>
      <point x="87" y="1082" type="line"/>
      <point x="791" y="1082" type="line"/>
      <point x="791" y="974" type="line"/>
      <point x="265" y="134" type="line"/>
    </contour>
  </outline>
</glyph>
<glyph name="braceleft" format="2">
  <advance width="703"/>
  <unicode hex="007B"/>
  <outline>
    <contour>
      <point x="264" y="541" type="curve"/>
      <point x="360" y="462"/>
      <point x="421" y="346"/>
      <point x="421" y="174" type="curve" smooth="yes"/>
      <point x="421" y="102"/>
      <point x="411" y="35"/>
      <point x="411" y="-27" type="curve" smooth="yes"/>
      <point x="411" y="-198"/>
      <point x="482" y="-297"/>
      <point x="573" y="-346" type="curve"/>
      <point x="530" y="-444" type="line"/>
      <point x="370" y="-376"/>
      <point x="271" y="-241"/>
      <point x="271" y="-27" type="curve" smooth="yes"/>
      <point x="271" y="45"/>
      <point x="281" y="112"/>
      <point x="281" y="174" type="curve" smooth="yes"/>
      <point x="281" y="336"/>
      <point x="216" y="437"/>
      <point x="110" y="485" type="curve"/>
      <point x="110" y="597" type="line"/>
      <point x="216" y="645"/>
      <point x="281" y="746"/>
      <point x="281" y="908" type="curve" smooth="yes"/>
      <point x="281" y="970"/>
      <point x="271" y="1037"/>
      <point x="271" y="1109" type="curve" smooth="yes"/>
      <point x="271" y="1323"/>
      <point x="370" y="1458"/>
      <point x="530" y="1526" type="curve"/>
      <point x="573" y="1428" type="line"/>
      <point x="482" y="1379"/>
      <point x="411" y="1280"/>
      <point x="411" y="1109" type="curve" smooth="yes"/>
      <point x="411" y="1047"/>
      <point x="421" y="980"/>
      <point x="421" y="908" type="curve" smooth="yes"/>
      <point x="421" y="736"/>
      <point x="360" y="620"/>
    </contour>
  </outline>
</glyph>
<glyph name="bar" format="2">
  <advance width="492"/>
  <unicode hex="007C"/>
  <outline>
    <contour>
      <point x="176" y="1538" type="line"/>
      <point x="316" y="1538" type="line"/>
      <point x="316" y="-456" type="line"/>
      <point x="176" y="-456" type="line"/>
    </contour>
  </outline>
</glyph>
<glyph name="braceright" format="2">
  <advance width="703"/>
  <unicode hex="007D"/>
  <outline>
    <contour>
      <point x="439" y="541" type="curve"/>
      <point x="343" y="620"/>
      <point x="282" y="736"/>
      <point x="282" y="908" type="curve" smooth="yes"/>
      <point x="282" y="980"/>
      <point x="292" y="1047"/>
      <point x="292" y="1109" type="curve" smooth="yes"/>
      <point x="292" y="1280"/>
      <point x="221" y="1379"/>
      <point x="130" y="1428" type="curve"/>
      <point x="173" y="1526" type="line"/>
      <point x="333" y="1458"/>
      <point x="432" y="1323"/>
      <point x="432" y="1109" type="curve" smooth="yes"/>
      <point x="432" y="1037"/>
      <point x="422" y="970"/>
      <point x="422" y="908" type="curve" smooth="yes"/>
      <point x="422" y="746"/>
      <point x="487" y="645"/>
      <point x="593" y="597" type="curve"/>
      <point x="593" y="485" type="line"/>
      <point x="487" y="437"/>
      <point x="422" y="336"/>
      <point x="422" y="174" type="curve" smooth="yes"/>
      <point x="422" y="112"/>
      <point x="432" y="45"/>
      <point x="432" y="-27" type="curve" smooth="yes"/>
      <point x="432" y="-241"/>
      <point x="333" y="-376"/>
      <point x="173" y="-444" type="curve"/>
      <point x="130" y="-346" type="line"/>
      <point x="221" y="-297"/>
      <point x="292" y="-198"/>
      <point x="292" y="-27" type="curve" smooth="yes"/>
      <point x="292" y="35"/>
      <point x="282" y="102"/>
      <point x="282" y="174" type="curve" smooth="yes"/>
      <point x="282" y="346"/>
      <point x="343" y="462"/>
    </contour>
  </outline>
</glyph>
<glyph name="asciitilde" format="2">
  <advance width="1114"/>
  <unicode hex="007E"/>
  <outline>
    <contour>
      <point x="376" y="678" type="curve" smooth="yes"/>
      <point x="550" y="678"/>
      <point x="629" y="538"/>
      <point x="738" y="538" type="curve" smooth="yes"/>
      <point x="799" y="538"/>
      <point x="852" y="591"/>
      <point x="875" y="669" type="curve"/>
      <point x="1014" y="625" type="line"/>
      <point x="979" y="506"/>
      <point x="880" y="404"/>
      <point x="738" y="404" type="curve" smooth="yes"/>
      <point x="564" y="404"/>
      <point x="485" y="544"/>
      <point x="376" y="544" type="curve" smooth="yes"/>
      <point x="315" y="544"/>
      <point x="262" y="491"/>
      <point x="239" y="413" type="curve"/>
      <point x="100" y="457" type="line"/>
      <point x="135" y="576"/>
      <point x="234" y="678"/>
    </contour>
  </outline>
</glyph>
<glyph name="exclamdown" format="2">
  <advance width="500"/>
  <unicode hex="00A1"/>
  <outline>
    <contour>
      <point x="250" y="798" type="curve" smooth="yes"/>
      <point x="185" y="798"/>
      <point x="140" y="843"/>
      <point x="140" y="908" type="curve" smooth="yes"/>
      <point x="140" y="973"/>
      <point x="185" y="1018"/>
      <point x="250" y="1018" type="curve" smooth="yes"/>
      <point x="315" y="1018"/>
      <point x="360" y="973"/>
      <point x="360" y="908" type="curve" smooth="yes"/>
      <point x="360" y="843"/>
      <point x="315" y="798"/>
    </contour>
    <contour>
      <point x="172" y="-414" type="line"/>
      <point x="172" y="-49" type="line" smooth="yes"/>
      <point x="172" y="192"/>
      <point x="192" y="614"/>
      <point x="192" y="614" type="curve"/>
      <point x="308" y="614" type="line"/>
      <point x="308" y="614"/>
      <point x="328" y="190"/>
      <point x="328" y="-49" type="curve" smooth="yes"/>
      <point x="328" y="-414" type="line"/>
    </contour>
  </outline>
</glyph>
<glyph name="cent" format="2">
  <advance width="1019"/>
  <unicode hex="00A2"/>
  <outline>
    <contour>
      <point x="505" y="1282" type="line"/>
      <point x="605" y="1282" type="line"/>
      <point x="605" y="1096" type="line"/>
      <point x="736" y="1084"/>
      <point x="838" y="1028"/>
      <point x="915" y="963" type="curve"/>
      <point x="831" y="857" type="line"/>
      <point x="771" y="906"/>
      <point x="699" y="949"/>
      <point x="605" y="961" type="curve"/>
      <point x="605" y="121" type="line"/>
      <point x="707" y="133"/>
      <point x="787" y="182"/>
      <point x="843" y="244" type="curve"/>
      <point x="943" y="152" type="line"/>
      <point x="866" y="66"/>
      <point x="751" y="-1"/>
      <point x="605" y="-14" type="curve"/>
      <point x="605" y="-220" type="line"/>
      <point x="505" y="-220" type="line"/>
      <point x="505" y="-14" type="line"/>
      <point x="364" y="-1"/>
      <point x="251" y="67"/>
      <point x="190" y="164" type="curve" smooth="yes"/>
      <point x="120" y="276"/>
      <point x="120" y="397"/>
      <point x="120" y="541" type="curve" smooth="yes"/>
      <point x="120" y="692"/>
      <point x="120" y="808"/>
      <point x="189" y="917" type="curve" smooth="yes"/>
      <point x="251" y="1015"/>
      <point x="361" y="1083"/>
      <point x="505" y="1096" type="curve"/>
    </contour>
    <contour>
      <point x="505" y="121" type="curve"/>
      <point x="505" y="961" type="line"/>
      <point x="409" y="950"/>
      <point x="347" y="905"/>
      <point x="313" y="854" type="curve" smooth="yes"/>
      <point x="260" y="775"/>
      <point x="260" y="683"/>
      <point x="260" y="541" type="curve" smooth="yes"/>
      <point x="260" y="405"/>
      <point x="260" y="315"/>
      <point x="310" y="234" type="curve" smooth="yes"/>
      <point x="348" y="173"/>
      <point x="417" y="132"/>
    </contour>
  </outline>
</glyph>
<glyph name="sterling" format="2">
  <advance width="1014"/>
  <unicode hex="00A3"/>
  <outline>
    <contour>
      <point x="551" y="1435" type="curve" smooth="yes"/>
      <point x="677" y="1435"/>
      <point x="781" y="1383"/>
      <point x="848" y="1322" type="curve"/>
      <point x="750" y="1214" type="line"/>
      <point x="700" y="1260"/>
      <point x="633" y="1295"/>
      <point x="551" y="1295" type="curve" smooth="yes"/>
      <point x="419" y="1295"/>
      <point x="329" y="1207"/>
      <point x="329" y="1064" type="curve" smooth="yes"/>
      <point x="329" y="959"/>
      <point x="374" y="855"/>
      <point x="399" y="722" type="curve"/>
      <point x="804" y="722" type="line"/>
      <point x="804" y="598" type="line"/>
      <point x="414" y="598" type="line"/>
      <point x="416" y="581"/>
      <point x="416" y="564"/>
      <point x="416" y="546" type="curve" smooth="yes"/>
      <point x="416" y="405"/>
      <point x="380" y="262"/>
      <point x="317" y="140" type="curve"/>
      <point x="908" y="140" type="line"/>
      <point x="908" y="0" type="line"/>
      <point x="120" y="0" type="line"/>
      <point x="120" y="107" type="line"/>
      <point x="210" y="232"/>
      <point x="260" y="390"/>
      <point x="260" y="546" type="curve" smooth="yes"/>
      <point x="260" y="564"/>
      <point x="260" y="581"/>
      <point x="258" y="598" type="curve"/>
      <point x="120" y="598" type="line"/>
      <point x="120" y="722" type="line"/>
      <point x="241" y="722" type="line"/>
      <point x="215" y="843"/>
      <point x="173" y="936"/>
      <point x="173" y="1064" type="curve" smooth="yes"/>
      <point x="173" y="1291"/>
      <point x="342" y="1435"/>
    </contour>
  </outline>
</glyph>
<glyph name="currency" format="2">
  <advance width="1170"/>
  <unicode hex="00A4"/>
  <outline>
    <contour>
      <point x="585" y="764" type="curve" smooth="yes"/>
      <point x="461" y="764"/>
      <point x="370" y="683"/>
      <point x="370" y="541" type="curve" smooth="yes"/>
      <point x="370" y="399"/>
      <point x="461" y="318"/>
      <point x="585" y="318" type="curve" smooth="yes"/>
      <point x="709" y="318"/>
      <point x="800" y="399"/>
      <point x="800" y="541" type="curve" smooth="yes"/>
      <point x="800" y="683"/>
      <point x="709" y="764"/>
    </contour>
    <contour>
      <point x="236" y="91" type="line"/>
      <point x="135" y="192" type="line"/>
      <point x="280" y="337" type="line"/>
      <point x="241" y="394"/>
      <point x="220" y="465"/>
      <point x="220" y="541" type="curve" smooth="yes"/>
      <point x="220" y="617"/>
      <point x="241" y="688"/>
      <point x="280" y="745" type="curve"/>
      <point x="135" y="890" type="line"/>
      <point x="236" y="991" type="line"/>
      <point x="383" y="844" type="line"/>
      <point x="439" y="878"/>
      <point x="508" y="898"/>
      <point x="585" y="898" type="curve" smooth="yes"/>
      <point x="662" y="898"/>
      <point x="731" y="878"/>
      <point x="787" y="844" type="curve"/>
      <point x="934" y="991" type="line"/>
      <point x="1035" y="890" type="line"/>
      <point x="890" y="745" type="line"/>
      <point x="929" y="688"/>
      <point x="950" y="617"/>
      <point x="950" y="541" type="curve" smooth="yes"/>
      <point x="950" y="465"/>
      <point x="929" y="394"/>
      <point x="890" y="337" type="curve"/>
      <point x="1035" y="192" type="line"/>
      <point x="934" y="91" type="line"/>
      <point x="787" y="238" type="line"/>
      <point x="731" y="204"/>
      <point x="662" y="184"/>
      <point x="585" y="184" type="curve" smooth="yes"/>
      <point x="508" y="184"/>
      <point x="439" y="204"/>
      <point x="383" y="238" type="curve"/>
    </contour>
  </outline>
</glyph>
<glyph name="yen" format="2">
  <advance width="1162"/>
  <unicode hex="00A5"/>
  <outline>
    <contour>
      <point x="80" y="1416" type="line"/>
      <point x="249" y="1416" type="line"/>
      <point x="581" y="672" type="line"/>
      <point x="913" y="1416" type="line"/>
      <point x="1082" y="1416" type="line"/>
      <point x="768" y="745" type="line"/>
      <point x="962" y="745" type="line"/>
      <point x="962" y="621" type="line"/>
      <point x="707" y="621" type="line"/>
      <point x="659" y="526" type="line"/>
      <point x="659" y="451" type="line"/>
      <point x="962" y="451" type="line"/>
      <point x="962" y="327" type="line"/>
      <point x="659" y="327" type="line"/>
      <point x="659" y="0" type="line"/>
      <point x="503" y="0" type="line"/>
      <point x="503" y="327" type="line"/>
      <point x="200" y="327" type="line"/>
      <point x="200" y="451" type="line"/>
      <point x="503" y="451" type="line"/>
      <point x="503" y="526" type="line"/>
      <point x="455" y="621" type="line"/>
      <point x="200" y="621" type="line"/>
      <point x="200" y="745" type="line"/>
      <point x="394" y="745" type="line"/>
    </contour>
  </outline>
</glyph>
<glyph name="brokenbar" format="2">
  <advance width="492"/>
  <unicode hex="00A6"/>
  <outline>
    <contour>
      <point x="176" y="1538" type="line"/>
      <point x="316" y="1538" type="line"/>
      <point x="316" y="698" type="line"/>
      <point x="176" y="698" type="line"/>
    </contour>
    <contour>
      <point x="176" y="394" type="line"/>
      <point x="316" y="394" type="line"/>
      <point x="316" y="-456" type="line"/>
      <point x="176" y="-456" type="line"/>
    </contour>
  </outline>
</glyph>
<glyph name="section" format="2">
  <advance width="1001"/>
  <unicode hex="00A7"/>
  <outline>
    <contour>
      <point x="491" y="1490" type="curve" smooth="yes"/>
      <point x="622" y="1490"/>
      <point x="738" y="1444"/>
      <point x="822" y="1393" type="curve"/>
      <point x="750" y="1275" type="line"/>
      <point x="688" y="1316"/>
      <point x="594" y="1356"/>
      <point x="491" y="1356" type="curve" smooth="yes"/>
      <point x="384" y="1356"/>
      <point x="302" y="1300"/>
      <point x="302" y="1198" type="curve" smooth="yes"/>
      <point x="302" y="1091"/>
      <point x="388" y="1056"/>
      <point x="487" y="1043" type="curve" smooth="yes"/>
      <point x="568" y="1032"/>
      <point x="642" y="1021"/>
      <point x="706" y="983" type="curve" smooth="yes"/>
      <point x="786" y="936"/>
      <point x="852" y="846"/>
      <point x="852" y="728" type="curve" smooth="yes"/>
      <point x="852" y="639"/>
      <point x="810" y="553"/>
      <point x="721" y="497" type="curve"/>
      <point x="814" y="448"/>
      <point x="876" y="360"/>
      <point x="876" y="247" type="curve" smooth="yes"/>
      <point x="876" y="38"/>
      <point x="686" y="-74"/>
      <point x="491" y="-74" type="curve" smooth="yes"/>
      <point x="333" y="-74"/>
      <point x="203" y="-20"/>
      <point x="105" y="38" type="curve"/>
      <point x="175" y="156" type="line"/>
      <point x="256" y="104"/>
      <point x="365" y="60"/>
      <point x="491" y="60" type="curve" smooth="yes"/>
      <point x="616" y="60"/>
      <point x="726" y="120"/>
      <point x="726" y="247" type="curve" smooth="yes"/>
      <point x="726" y="309"/>
      <point x="694" y="356"/>
      <point x="654" y="382" type="curve" smooth="yes"/>
      <point x="617" y="406"/>
      <point x="564" y="417"/>
      <point x="500" y="425" type="curve" smooth="yes"/>
      <point x="435" y="433"/>
      <point x="355" y="441"/>
      <point x="280" y="484" type="curve" smooth="yes"/>
      <point x="200" y="530"/>
      <point x="130" y="618"/>
      <point x="130" y="736" type="curve" smooth="yes"/>
      <point x="130" y="848"/>
      <point x="197" y="929"/>
      <point x="280" y="974" type="curve"/>
      <point x="190" y="1031"/>
      <point x="152" y="1115"/>
      <point x="152" y="1198" type="curve" smooth="yes"/>
      <point x="152" y="1375"/>
      <point x="304" y="1490"/>
    </contour>
    <contour>
      <point x="600" y="545" type="curve"/>
      <point x="652" y="574"/>
      <point x="702" y="641"/>
      <point x="702" y="728" type="curve" smooth="yes"/>
      <point x="702" y="802"/>
      <point x="661" y="852"/>
      <point x="617" y="875" type="curve" smooth="yes"/>
      <point x="552" y="910"/>
      <point x="464" y="903"/>
      <point x="394" y="922" type="curve"/>
      <point x="337" y="891"/>
      <point x="280" y="828"/>
      <point x="280" y="736" type="curve" smooth="yes"/>
      <point x="280" y="670"/>
      <point x="318" y="621"/>
      <point x="362" y="596" type="curve" smooth="yes"/>
      <point x="427" y="559"/>
      <point x="524" y="562"/>
    </contour>
  </outline>
</glyph>
<glyph name="dieresis" format="2">
  <advance width="810"/>
  <unicode hex="00A8"/>
  <anchor x="405" y="1082" name="_Top"/>
  <outline>
    <contour>
      <point x="596" y="1435" type="curve" smooth="yes"/>
      <point x="651" y="1435"/>
      <point x="690" y="1396"/>
      <point x="690" y="1341" type="curve" smooth="yes"/>
      <point x="690" y="1286"/>
      <point x="651" y="1247"/>
      <point x="596" y="1247" type="curve" smooth="yes"/>
      <point x="541" y="1247"/>
      <point x="502" y="1286"/>
      <point x="502" y="1341" type="curve" smooth="yes"/>
      <point x="502" y="1396"/>
      <point x="541" y="1435"/>
    </contour>
    <contour>
      <point x="214" y="1435" type="curve" smooth="yes"/>
      <point x="269" y="1435"/>
      <point x="308" y="1396"/>
      <point x="308" y="1341" type="curve" smooth="yes"/>
      <point x="308" y="1286"/>
      <point x="269" y="1247"/>
      <point x="214" y="1247" type="curve" smooth="yes"/>
      <point x="159" y="1247"/>
      <point x="120" y="1286"/>
      <point x="120" y="1341" type="curve" smooth="yes"/>
      <point x="120" y="1396"/>
      <point x="159" y="1435"/>
    </contour>
  </outline>
</glyph>
<glyph name="ordfeminine" format="2">
  <advance width="789"/>
  <unicode hex="00AA"/>
  <outline>
    <contour>
      <point x="232" y="895" type="curve" smooth="yes"/>
      <point x="232" y="817"/>
      <point x="285" y="772"/>
      <point x="361" y="772" type="curve" smooth="yes"/>
      <point x="415" y="772"/>
      <point x="459" y="793"/>
      <point x="482" y="826" type="curve" smooth="yes"/>
      <point x="517" y="873"/>
      <point x="517" y="930"/>
      <point x="517" y="1021" type="curve"/>
      <point x="438" y="1021" type="line" smooth="yes"/>
      <point x="341" y="1021"/>
      <point x="304" y="1019"/>
      <point x="272" y="991" type="curve" smooth="yes"/>
      <point x="249" y="971"/>
      <point x="232" y="937"/>
    </contour>
    <contour>
      <point x="517" y="1129" type="line"/>
      <point x="517" y="1186"/>
      <point x="517" y="1236"/>
      <point x="486" y="1272" type="curve" smooth="yes"/>
      <point x="462" y="1300"/>
      <point x="424" y="1314"/>
      <point x="374" y="1314" type="curve" smooth="yes"/>
      <point x="308" y="1314"/>
      <point x="254" y="1293"/>
      <point x="204" y="1268" type="curve"/>
      <point x="152" y="1376" type="line"/>
      <point x="212" y="1406"/>
      <point x="287" y="1432"/>
      <point x="374" y="1432" type="curve" smooth="yes"/>
      <point x="471" y="1432"/>
      <point x="549" y="1397"/>
      <point x="593" y="1341" type="curve" smooth="yes"/>
      <point x="649" y="1270"/>
      <point x="649" y="1200"/>
      <point x="649" y="1112" type="curve" smooth="yes"/>
      <point x="649" y="667" type="line"/>
      <point x="517" y="667" type="line"/>
      <point x="517" y="747" type="line"/>
      <point x="470" y="680"/>
      <point x="412" y="654"/>
      <point x="346" y="654" type="curve" smooth="yes"/>
      <point x="211" y="654"/>
      <point x="100" y="748"/>
      <point x="100" y="895" type="curve" smooth="yes"/>
      <point x="100" y="970"/>
      <point x="132" y="1028"/>
      <point x="177" y="1066" type="curve" smooth="yes"/>
      <point x="253" y="1129"/>
      <point x="328" y="1129"/>
      <point x="438" y="1129" type="curve" smooth="yes"/>
    </contour>
  </outline>
</glyph>
<glyph name="guillemotleft" format="2">
  <advance width="942"/>
  <unicode hex="00AB"/>
  <outline>
    <contour>
      <point x="704" y="939" type="line"/>
      <point x="822" y="867" type="line"/>
      <point x="612" y="539" type="line"/>
      <point x="822" y="211" type="line"/>
      <point x="704" y="139" type="line"/>
      <point x="460" y="539" type="line"/>
    </contour>
    <contour>
      <point x="372" y="955" type="line"/>
      <point x="490" y="883" type="line"/>
      <point x="272" y="539" type="line"/>
      <point x="490" y="195" type="line"/>
      <point x="372" y="123" type="line"/>
      <point x="120" y="539" type="line"/>
    </contour>
  </outline>
</glyph>
<glyph name="logicalnot" format="2">
  <advance width="940"/>
  <unicode hex="00AC"/>
  <outline>
    <contour>
      <point x="120" y="608" type="line"/>
      <point x="820" y="608" type="line"/>
      <point x="820" y="200" type="line"/>
      <point x="670" y="200" type="line"/>
      <point x="670" y="474" type="line"/>
      <point x="120" y="474" type="line"/>
    </contour>
  </outline>
</glyph>
<glyph name="registered" format="2">
  <advance width="1564"/>
  <unicode hex="00AE"/>
  <outline>
    <contour>
      <point x="782" y="1448" type="curve" smooth="yes"/>
      <point x="1027" y="1448"/>
      <point x="1209" y="1370"/>
      <point x="1315" y="1223" type="curve" smooth="yes"/>
      <point x="1427" y="1068"/>
      <point x="1428" y="860"/>
      <point x="1428" y="708" type="curve" smooth="yes"/>
      <point x="1428" y="556"/>
      <point x="1427" y="348"/>
      <point x="1315" y="193" type="curve" smooth="yes"/>
      <point x="1209" y="46"/>
      <point x="1027" y="-32"/>
      <point x="782" y="-32" type="curve" smooth="yes"/>
      <point x="537" y="-32"/>
      <point x="355" y="46"/>
      <point x="249" y="193" type="curve" smooth="yes"/>
      <point x="137" y="348"/>
      <point x="136" y="556"/>
      <point x="136" y="708" type="curve" smooth="yes"/>
      <point x="136" y="860"/>
      <point x="137" y="1068"/>
      <point x="249" y="1223" type="curve" smooth="yes"/>
      <point x="355" y="1370"/>
      <point x="537" y="1448"/>
    </contour>
    <contour>
      <point x="782" y="1348" type="curve" smooth="yes"/>
      <point x="576" y="1348"/>
      <point x="431" y="1288"/>
      <point x="343" y="1169" type="curve" smooth="yes"/>
      <point x="252" y="1047"/>
      <point x="248" y="856"/>
      <point x="248" y="708" type="curve" smooth="yes"/>
      <point x="248" y="560"/>
      <point x="252" y="369"/>
      <point x="343" y="247" type="curve" smooth="yes"/>
      <point x="431" y="128"/>
      <point x="576" y="68"/>
      <point x="782" y="68" type="curve" smooth="yes"/>
      <point x="988" y="68"/>
      <point x="1133" y="128"/>
      <point x="1221" y="247" type="curve" smooth="yes"/>
      <point x="1312" y="369"/>
      <point x="1316" y="560"/>
      <point x="1316" y="708" type="curve" smooth="yes"/>
      <point x="1316" y="856"/>
      <point x="1312" y="1047"/>
      <point x="1221" y="1169" type="curve" smooth="yes"/>
      <point x="1133" y="1288"/>
      <point x="988" y="1348"/>
    </contour>
    <contour>
      <point x="658" y="713" type="line"/>
      <point x="696" y="713" type="line" smooth="yes"/>
      <point x="783" y="713"/>
      <point x="836" y="713"/>
      <point x="879" y="743" type="curve" smooth="yes"/>
      <point x="914" y="768"/>
      <point x="936" y="815"/>
      <point x="936" y="869" type="curve" smooth="yes"/>
      <point x="936" y="924"/>
      <point x="914" y="971"/>
      <point x="879" y="996" type="curve" smooth="yes"/>
      <point x="841" y="1023"/>
      <point x="795" y="1026"/>
      <point x="696" y="1026" type="curve" smooth="yes"/>
      <point x="658" y="1026" type="line"/>
    </contour>
    <contour>
      <point x="508" y="1160" type="line"/>
      <point x="696" y="1160" type="line" smooth="yes"/>
      <point x="797" y="1160"/>
      <point x="887" y="1160"/>
      <point x="973" y="1100" type="curve" smooth="yes"/>
      <point x="1041" y="1052"/>
      <point x="1086" y="970"/>
      <point x="1086" y="869" type="curve" smooth="yes"/>
      <point x="1086" y="760"/>
      <point x="1032" y="662"/>
      <point x="935" y="618" type="curve"/>
      <point x="1103" y="258" type="line"/>
      <point x="941" y="258" type="line"/>
      <point x="794" y="579" type="line"/>
      <point x="658" y="579" type="line"/>
      <point x="658" y="258" type="line"/>
      <point x="508" y="258" type="line"/>
    </contour>
  </outline>
</glyph>
<glyph name="macron" format="2">
  <advance width="810"/>
  <unicode hex="00AF"/>
  <anchor x="405" y="1082" name="_Top"/>
  <outline>
    <contour>
      <point x="120" y="1386" type="line"/>
      <point x="690" y="1386" type="line"/>
      <point x="690" y="1252" type="line"/>
      <point x="120" y="1252" type="line"/>
    </contour>
  </outline>
</glyph>
<glyph name="degree" format="2">
  <advance width="692"/>
  <unicode hex="00B0"/>
  <outline>
    <contour>
      <point x="346" y="1393" type="curve" smooth="yes"/>
      <point x="286" y="1393"/>
      <point x="232" y="1350"/>
      <point x="232" y="1252" type="curve" smooth="yes"/>
      <point x="232" y="1154"/>
      <point x="286" y="1111"/>
      <point x="346" y="1111" type="curve" smooth="yes"/>
      <point x="406" y="1111"/>
      <point x="460" y="1154"/>
      <point x="460" y="1252" type="curve" smooth="yes"/>
      <point x="460" y="1350"/>
      <point x="406" y="1393"/>
    </contour>
    <contour>
      <point x="346" y="1511" type="curve" smooth="yes"/>
      <point x="498" y="1511"/>
      <point x="592" y="1390"/>
      <point x="592" y="1252" type="curve" smooth="yes"/>
      <point x="592" y="1114"/>
      <point x="498" y="993"/>
      <point x="346" y="993" type="curve" smooth="yes"/>
      <point x="194" y="993"/>
      <point x="100" y="1114"/>
      <point x="100" y="1252" type="curve" smooth="yes"/>
      <point x="100" y="1390"/>
      <point x="194" y="1511"/>
    </contour>
  </outline>
</glyph>
<glyph name="plusminus" format="2">
  <advance width="1100"/>
  <unicode hex="00B1"/>
  <outline>
    <contour>
      <point x="170" y="184" type="line"/>
      <point x="170" y="318" type="line"/>
      <point x="940" y="318" type="line"/>
      <point x="940" y="184" type="line"/>
    </contour>
    <contour>
      <point x="160" y="664" type="line"/>
      <point x="160" y="798" type="line"/>
      <point x="475" y="798" type="line"/>
      <point x="475" y="1031" type="line"/>
      <point x="625" y="1031" type="line"/>
      <point x="625" y="798" type="line"/>
      <point x="940" y="798" type="line"/>
      <point x="940" y="664" type="line"/>
      <point x="625" y="664" type="line"/>
      <point x="625" y="421" type="line"/>
      <point x="475" y="421" type="line"/>
      <point x="475" y="664" type="line"/>
    </contour>
  </outline>
</glyph>
<glyph name="mu" format="2">
  <advance width="1070"/>
  <unicode hex="00B5"/>
  <anchor x="30" y="0" name="DoubleTop"/>
  <anchor x="30" y="0" name="Apos"/>
  <anchor x="0" y="0" name="Center"/>
  <anchor x="522" y="0" name="Bottom"/>
  <anchor x="522" y="975" name="Top"/>
  <outline>
    <contour>
      <point x="160" y="1082" type="line"/>
      <point x="310" y="1082" type="line"/>
      <point x="310" y="496" type="line" smooth="yes"/>
      <point x="310" y="360"/>
      <point x="310" y="278"/>
      <point x="361" y="208" type="curve" smooth="yes"/>
      <point x="400" y="154"/>
      <point x="468" y="118"/>
      <point x="555" y="118" type="curve" smooth="yes"/>
      <point x="643" y="118"/>
      <point x="713" y="153"/>
      <point x="752" y="208" type="curve" smooth="yes"/>
      <point x="800" y="276"/>
      <point x="800" y="360"/>
      <point x="800" y="496" type="curve" smooth="yes"/>
      <point x="800" y="1082" type="line"/>
      <point x="950" y="1082" type="line"/>
      <point x="950" y="496" type="line" smooth="yes"/>
      <point x="950" y="351"/>
      <point x="950" y="238"/>
      <point x="881" y="134" type="curve" smooth="yes"/>
      <point x="822" y="45"/>
      <point x="713" y="-16"/>
      <point x="575" y="-16" type="curve" smooth="yes"/>
      <point x="468" y="-16"/>
      <point x="378" y="29"/>
      <point x="310" y="112" type="curve"/>
      <point x="310" y="-414" type="line"/>
      <point x="160" y="-414" type="line"/>
    </contour>
  </outline>
</glyph>
<glyph name="paragraph" format="2">
  <advance width="1136"/>
  <unicode hex="00B6"/>
  <outline>
    <contour>
      <point x="800" y="1276" type="line"/>
      <point x="594" y="1276" type="line"/>
      <point x="594" y="0" type="line"/>
      <point x="438" y="0" type="line"/>
      <point x="438" y="536" type="line"/>
      <point x="358" y="555"/>
      <point x="280" y="593"/>
      <point x="215" y="668" type="curve" smooth="yes"/>
      <point x="142" y="754"/>
      <point x="110" y="862"/>
      <point x="110" y="966" type="curve" smooth="yes"/>
      <point x="110" y="1070"/>
      <point x="141" y="1179"/>
      <point x="215" y="1264" type="curve" smooth="yes"/>
      <point x="347" y="1416"/>
      <point x="533" y="1416"/>
      <point x="678" y="1416" type="curve" smooth="yes"/>
      <point x="956" y="1416" type="line"/>
      <point x="956" y="0" type="line"/>
      <point x="800" y="0" type="line"/>
    </contour>
  </outline>
</glyph>
<glyph name="cedilla" format="2">
  <advance width="587"/>
  <unicode hex="00B8"/>
  <anchor x="290" y="0" name="_Bottom"/>
  <outline>
    <contour>
      <point x="194" y="-306" type="curve" smooth="yes"/>
      <point x="240" y="-306"/>
      <point x="264" y="-269"/>
      <point x="264" y="-228" type="curve" smooth="yes"/>
      <point x="264" y="-183"/>
      <point x="240" y="-156"/>
      <point x="189" y="-138" type="curve"/>
      <point x="228" y="0" type="line"/>
      <point x="352" y="0" type="line"/>
      <point x="324" y="-97" type="line"/>
      <point x="364" y="-117"/>
      <point x="404" y="-160"/>
      <point x="404" y="-229" type="curve" smooth="yes"/>
      <point x="404" y="-350"/>
      <point x="317" y="-430"/>
      <point x="198" y="-430" type="curve" smooth="yes"/>
      <point x="165" y="-430"/>
      <point x="135" y="-423"/>
      <point x="109" y="-416" type="curve"/>
      <point x="147" y="-297" type="line"/>
      <point x="165" y="-304"/>
      <point x="181" y="-306"/>
    </contour>
  </outline>
</glyph>
<glyph name="ordmasculine" format="2">
  <advance width="844"/>
  <unicode hex="00BA"/>
  <outline>
    <contour>
      <point x="422" y="1314" type="curve" smooth="yes"/>
      <point x="361" y="1314"/>
      <point x="318" y="1292"/>
      <point x="291" y="1254" type="curve" smooth="yes"/>
      <point x="253" y="1201"/>
      <point x="252" y="1128"/>
      <point x="252" y="1043" type="curve" smooth="yes"/>
      <point x="252" y="958"/>
      <point x="253" y="885"/>
      <point x="291" y="832" type="curve" smooth="yes"/>
      <point x="318" y="794"/>
      <point x="361" y="772"/>
      <point x="422" y="772" type="curve" smooth="yes"/>
      <point x="483" y="772"/>
      <point x="526" y="794"/>
      <point x="553" y="832" type="curve" smooth="yes"/>
      <point x="591" y="885"/>
      <point x="592" y="958"/>
      <point x="592" y="1043" type="curve" smooth="yes"/>
      <point x="592" y="1128"/>
      <point x="591" y="1201"/>
      <point x="553" y="1254" type="curve" smooth="yes"/>
      <point x="526" y="1292"/>
      <point x="483" y="1314"/>
    </contour>
    <contour>
      <point x="422" y="1432" type="curve" smooth="yes"/>
      <point x="513" y="1432"/>
      <point x="589" y="1399"/>
      <point x="639" y="1348" type="curve" smooth="yes"/>
      <point x="713" y="1272"/>
      <point x="724" y="1176"/>
      <point x="724" y="1043" type="curve" smooth="yes"/>
      <point x="724" y="910"/>
      <point x="713" y="814"/>
      <point x="639" y="738" type="curve" smooth="yes"/>
      <point x="589" y="687"/>
      <point x="513" y="654"/>
      <point x="422" y="654" type="curve" smooth="yes"/>
      <point x="331" y="654"/>
      <point x="255" y="687"/>
      <point x="205" y="738" type="curve" smooth="yes"/>
      <point x="131" y="814"/>
      <point x="120" y="910"/>
      <point x="120" y="1043" type="curve" smooth="yes"/>
      <point x="120" y="1176"/>
      <point x="131" y="1272"/>
      <point x="205" y="1348" type="curve" smooth="yes"/>
      <point x="255" y="1399"/>
      <point x="331" y="1432"/>
    </contour>
  </outline>
</glyph>
<glyph name="questiondown" format="2">
  <advance width="726"/>
  <unicode hex="00BF"/>
  <outline>
    <contour>
      <point x="455" y="798" type="curve" smooth="yes"/>
      <point x="390" y="798"/>
      <point x="345" y="843"/>
      <point x="345" y="908" type="curve" smooth="yes"/>
      <point x="345" y="973"/>
      <point x="390" y="1018"/>
      <point x="455" y="1018" type="curve" smooth="yes"/>
      <point x="520" y="1018"/>
      <point x="565" y="973"/>
      <point x="565" y="908" type="curve" smooth="yes"/>
      <point x="565" y="843"/>
      <point x="520" y="798"/>
    </contour>
    <contour>
      <point x="698" y="-191" type="curve"/>
      <point x="796" y="-291" type="line"/>
      <point x="714" y="-369"/>
      <point x="598" y="-430"/>
      <point x="455" y="-430" type="curve" smooth="yes"/>
      <point x="223" y="-430"/>
      <point x="60" y="-267"/>
      <point x="60" y="-50" type="curve" smooth="yes"/>
      <point x="60" y="32"/>
      <point x="87" y="107"/>
      <point x="134" y="171" type="curve" smooth="yes"/>
      <point x="192" y="250"/>
      <point x="307" y="304"/>
      <point x="346" y="372" type="curve" smooth="yes"/>
      <point x="379" y="429"/>
      <point x="389" y="473"/>
      <point x="389" y="555" type="curve"/>
      <point x="390" y="615" type="line"/>
      <point x="520" y="615" type="line"/>
      <point x="520" y="615"/>
      <point x="521" y="580"/>
      <point x="521" y="556" type="curve" smooth="yes"/>
      <point x="521" y="454"/>
      <point x="513" y="380"/>
      <point x="455" y="297" type="curve" smooth="yes"/>
      <point x="412" y="234"/>
      <point x="343" y="188"/>
      <point x="290" y="139" type="curve" smooth="yes"/>
      <point x="240" y="93"/>
      <point x="210" y="28"/>
      <point x="210" y="-49" type="curve" smooth="yes"/>
      <point x="210" y="-191"/>
      <point x="303" y="-296"/>
      <point x="455" y="-296" type="curve" smooth="yes"/>
      <point x="561" y="-296"/>
      <point x="641" y="-246"/>
    </contour>
  </outline>
</glyph>
<glyph name="Agrave" format="2">
  <advance width="1190"/>
  <unicode hex="00C0"/>
  <outline>
    <contour>
      <point x="381" y="1830" type="line"/>
      <point x="550" y="1830" type="line"/>
      <point x="704" y="1556" type="line"/>
      <point x="546" y="1556" type="line"/>
    </contour>
    <component base="A"/>
  </outline>
</glyph>
<glyph name="Aring" format="2">
  <advance width="1190"/>
  <unicode hex="00C5"/>
  <outline>
    <contour>
      <point x="595" y="1716" type="curve" smooth="yes"/>
      <point x="720" y="1716"/>
      <point x="804" y="1625"/>
      <point x="804" y="1513" type="curve" smooth="yes"/>
      <point x="804" y="1436"/>
      <point x="764" y="1368"/>
      <point x="698" y="1334" type="curve"/>
      <point x="1150" y="0" type="line"/>
      <point x="987" y="0" type="line"/>
      <point x="876" y="342" type="line"/>
      <point x="314" y="342" type="line"/>
      <point x="203" y="0" type="line"/>
      <point x="40" y="0" type="line"/>
      <point x="492" y="1334" type="line"/>
      <point x="426" y="1368"/>
      <point x="386" y="1436"/>
      <point x="386" y="1513" type="curve" smooth="yes"/>
      <point x="386" y="1625"/>
      <point x="470" y="1716"/>
    </contour>
    <contour>
      <point x="595" y="1610" type="curve" smooth="yes"/>
      <point x="543" y="1610"/>
      <point x="504" y="1578"/>
      <point x="504" y="1513" type="curve" smooth="yes"/>
      <point x="504" y="1448"/>
      <point x="543" y="1416"/>
      <point x="595" y="1416" type="curve" smooth="yes"/>
      <point x="647" y="1416"/>
      <point x="686" y="1448"/>
      <point x="686" y="1513" type="curve" smooth="yes"/>
      <point x="686" y="1578"/>
      <point x="647" y="1610"/>
    </contour>
    <contour>
      <point x="830" y="482" type="line"/>
      <point x="595" y="1205" type="line"/>
      <point x="360" y="482" type="line"/>
    </contour>
  </outline>
</glyph>
<glyph name="AE" format="2">
  <advance width="1609"/>
  <unicode hex="00C6"/>
  <outline>
    <contour>
      <point x="809" y="1269" type="line"/>
      <point x="431" y="482" type="line"/>
      <point x="809" y="482" type="line"/>
    </contour>
    <contour>
      <point x="30" y="0" type="line"/>
      <point x="720" y="1416" type="line"/>
      <point x="1469" y="1416" type="line"/>
      <point x="1469" y="1276" type="line"/>
      <point x="965" y="1276" type="line"/>
      <point x="965" y="792" type="line"/>
      <point x="1399" y="792" type="line"/>
      <point x="1399" y="652" type="line"/>
      <point x="965" y="652" type="line"/>
      <point x="965" y="140" type="line"/>
      <point x="1469" y="140" type="line"/>
      <point x="1469" y="0" type="line"/>
      <point x="809" y="0" type="line"/>
      <point x="809" y="342" type="line"/>
      <point x="364" y="342" type="line"/>
      <point x="200" y="0" type="line"/>
    </contour>
  </outline>
</glyph>
<glyph name="Ccedilla" format="2">
  <advance width="1114"/>
  <unicode hex="00C7"/>
  <outline>
    <contour>
      <point x="522" y="-306" type="curve" smooth="yes"/>
      <point x="568" y="-306"/>
      <point x="592" y="-269"/>
      <point x="592" y="-228" type="curve" smooth="yes"/>
      <point x="592" y="-183"/>
      <point x="568" y="-156"/>
      <point x="517" y="-138" type="curve"/>
      <point x="551.631" y="-15.4586" type="line"/>
      <point x="373.827" y="4.02818"/>
      <point x="251.718" y="102.278"/>
      <point x="191" y="238" type="curve" smooth="yes"/>
      <point x="133" y="367"/>
      <point x="130" y="543"/>
      <point x="130" y="708" type="curve" smooth="yes"/>
      <point x="130" y="876"/>
      <point x="134" y="1053"/>
      <point x="191" y="1178" type="curve" smooth="yes"/>
      <point x="262" y="1334"/>
      <point x="409" y="1435"/>
      <point x="618" y="1435" type="curve" smooth="yes"/>
      <point x="772" y="1435"/>
      <point x="897" y="1381"/>
      <point x="992" y="1314" type="curve"/>
      <point x="912" y="1194" type="line"/>
      <point x="832" y="1251"/>
      <point x="738" y="1295"/>
      <point x="618" y="1295" type="curve" smooth="yes"/>
      <point x="473" y="1295"/>
      <point x="382" y="1230"/>
      <point x="336" y="1125" type="curve" smooth="yes"/>
      <point x="289" y="1017"/>
      <point x="286" y="858"/>
      <point x="286" y="708" type="curve" smooth="yes"/>
      <point x="286" y="558"/>
      <point x="289" y="399"/>
      <point x="336" y="291" type="curve" smooth="yes"/>
      <point x="382" y="186"/>
      <point x="473" y="121"/>
      <point x="618" y="121" type="curve" smooth="yes"/>
      <point x="748" y="121"/>
      <point x="862" y="172"/>
      <point x="942" y="240" type="curve"/>
      <point x="1030" y="124" type="line"/>
      <point x="938.918" y="52.3723"/>
      <point x="818.121" y="-4.3979"/>
      <point x="675.215" y="-16.5764" type="curve"/>
      <point x="652" y="-97" type="line"/>
      <point x="692" y="-117"/>
      <point x="732" y="-160"/>
      <point x="732" y="-229" type="curve" smooth="yes"/>
      <point x="732" y="-350"/>
      <point x="645" y="-430"/>
      <point x="526" y="-430" type="curve" smooth="yes"/>
      <point x="493" y="-430"/>
      <point x="463" y="-423"/>
      <point x="437" y="-416" type="curve"/>
      <point x="475" y="-297" type="line"/>
      <point x="493" y="-304"/>
      <point x="509" y="-306"/>
    </contour>
  </outline>
</glyph>
<glyph name="Egrave" format="2">
  <advance width="1100"/>
  <unicode hex="00C8"/>
  <outline>
    <contour>
      <point x="363" y="1830" type="line"/>
      <point x="532" y="1830" type="line"/>
      <point x="686" y="1556" type="line"/>
      <point x="528" y="1556" type="line"/>
    </contour>
    <component base="E"/>
  </outline>
</glyph>
<glyph name="Eacute" format="2">
  <advance width="1100"/>
  <unicode hex="00C9"/>
  <outline>
    <contour>
      <point x="789" y="1830" type="line"/>
      <point x="624" y="1556" type="line"/>
      <point x="466" y="1556" type="line"/>
      <point x="620" y="1830" type="line"/>
    </contour>
    <component base="E"/>
  </outline>
</glyph>
<glyph name="Igrave" format="2">
  <advance width="516"/>
  <unicode hex="00CC"/>
  <outline>
    <contour>
      <point x="44" y="1830" type="line"/>
      <point x="213" y="1830" type="line"/>
      <point x="367" y="1556" type="line"/>
      <point x="209" y="1556" type="line"/>
    </contour>
    <component base="I"/>
  </outline>
</glyph>
<glyph name="Iacute" format="2">
  <advance width="516"/>
  <unicode hex="00CD"/>
  <outline>
    <contour>
      <point x="470" y="1830" type="line"/>
      <point x="305" y="1556" type="line"/>
      <point x="147" y="1556" type="line"/>
      <point x="301" y="1830" type="line"/>
    </contour>
    <component base="I"/>
  </outline>
</glyph>
<glyph name="Eth" format="2">
  <advance width="1277"/>
  <unicode hex="00D0"/>
  <outline>
    <contour>
      <point x="80" y="652" type="line"/>
      <point x="80" y="792" type="line"/>
      <point x="240" y="792" type="line"/>
      <point x="240" y="1416" type="line"/>
      <point x="599" y="1416" type="line" smooth="yes"/>
      <point x="676" y="1416"/>
      <point x="749" y="1416"/>
      <point x="828" y="1393" type="curve" smooth="yes"/>
      <point x="958" y="1355"/>
      <point x="1043" y="1258"/>
      <point x="1088" y="1156" type="curve" smooth="yes"/>
      <point x="1147" y="1022"/>
      <point x="1147" y="853"/>
      <point x="1147" y="708" type="curve" smooth="yes"/>
      <point x="1147" y="563"/>
      <point x="1147" y="394"/>
      <point x="1088" y="260" type="curve" smooth="yes"/>
      <point x="1043" y="158"/>
      <point x="958" y="61"/>
      <point x="828" y="23" type="curve" smooth="yes"/>
      <point x="749" y="0"/>
      <point x="676" y="0"/>
      <point x="599" y="0" type="curve" smooth="yes"/>
      <point x="240" y="0" type="line"/>
      <point x="240" y="652" type="line"/>
    </contour>
    <contour>
      <point x="396" y="792" type="line"/>
      <point x="636" y="792" type="line"/>
      <point x="636" y="652" type="line"/>
      <point x="396" y="652" type="line"/>
      <point x="396" y="140" type="line"/>
      <point x="599" y="140" type="line" smooth="yes"/>
      <point x="673" y="140"/>
      <point x="764" y="140"/>
      <point x="824" y="175" type="curve" smooth="yes"/>
      <point x="991" y="271"/>
      <point x="991" y="497"/>
      <point x="991" y="708" type="curve" smooth="yes"/>
      <point x="991" y="919"/>
      <point x="991" y="1145"/>
      <point x="824" y="1241" type="curve" smooth="yes"/>
      <point x="764" y="1276"/>
      <point x="673" y="1276"/>
      <point x="599" y="1276" type="curve" smooth="yes"/>
      <point x="396" y="1276" type="line"/>
    </contour>
  </outline>
</glyph>
<glyph name="multiply" format="2">
  <advance width="1010"/>
  <unicode hex="00D7"/>
  <outline>
    <contour>
      <point x="860" y="279" type="line"/>
      <point x="767" y="186" type="line"/>
      <point x="505" y="448" type="line"/>
      <point x="243" y="186" type="line"/>
      <point x="150" y="279" type="line"/>
      <point x="412" y="541" type="line"/>
      <point x="150" y="803" type="line"/>
      <point x="243" y="896" type="line"/>
      <point x="505" y="634" type="line"/>
      <point x="767" y="896" type="line"/>
      <point x="860" y="803" type="line"/>
      <point x="598" y="541" type="line"/>
    </contour>
  </outline>
</glyph>
<glyph name="Oslash" format="2">
  <advance width="1256"/>
  <unicode hex="00D8"/>
  <outline>
    <contour>
      <point x="228" y="-56" type="line"/>
      <point x="142" y="-4" type="line"/>
      <point x="241" y="160" type="line"/>
      <point x="131" y="309"/>
      <point x="130" y="528"/>
      <point x="130" y="708" type="curve" smooth="yes"/>
      <point x="130" y="856"/>
      <point x="130" y="1038"/>
      <point x="196" y="1180" type="curve" smooth="yes"/>
      <point x="265" y="1329"/>
      <point x="412" y="1435"/>
      <point x="628" y="1435" type="curve" smooth="yes"/>
      <point x="760" y="1435"/>
      <point x="867" y="1395"/>
      <point x="945" y="1330" type="curve"/>
      <point x="1030" y="1472" type="line"/>
      <point x="1116" y="1420" type="line"/>
      <point x="1016" y="1254" type="line"/>
      <point x="1126" y="1103"/>
      <point x="1126" y="891"/>
      <point x="1126" y="708" type="curve" smooth="yes"/>
      <point x="1126" y="560"/>
      <point x="1126" y="378"/>
      <point x="1060" y="236" type="curve" smooth="yes"/>
      <point x="991" y="87"/>
      <point x="844" y="-19"/>
      <point x="628" y="-19" type="curve" smooth="yes"/>
      <point x="497" y="-19"/>
      <point x="390" y="20"/>
      <point x="312" y="84" type="curve"/>
    </contour>
    <contour>
      <point x="628" y="1295" type="curve" smooth="yes"/>
      <point x="483" y="1295"/>
      <point x="387" y="1229"/>
      <point x="340" y="1127" type="curve" smooth="yes"/>
      <point x="287" y="1012"/>
      <point x="286" y="850"/>
      <point x="286" y="708" type="curve" smooth="yes"/>
      <point x="286" y="575"/>
      <point x="287" y="423"/>
      <point x="331" y="310" type="curve"/>
      <point x="867" y="1201" type="line"/>
      <point x="813" y="1260"/>
      <point x="734" y="1295"/>
    </contour>
    <contour>
      <point x="926" y="1104" type="curve"/>
      <point x="390" y="213" type="line"/>
      <point x="444" y="155"/>
      <point x="523" y="121"/>
      <point x="628" y="121" type="curve" smooth="yes"/>
      <point x="773" y="121"/>
      <point x="869" y="187"/>
      <point x="916" y="289" type="curve" smooth="yes"/>
      <point x="969" y="404"/>
      <point x="970" y="566"/>
      <point x="970" y="708" type="curve" smooth="yes"/>
      <point x="970" y="841"/>
      <point x="969" y="991"/>
    </contour>
  </outline>
</glyph>
<glyph name="Uacute" format="2">
  <advance width="1236"/>
  <unicode hex="00DA"/>
  <outline>
    <contour>
      <point x="830" y="1830" type="line"/>
      <point x="665" y="1556" type="line"/>
      <point x="507" y="1556" type="line"/>
      <point x="661" y="1830" type="line"/>
    </contour>
    <component base="U"/>
  </outline>
</glyph>
<glyph name="Thorn" format="2">
  <advance width="1146"/>
  <unicode hex="00DE"/>
  <outline>
    <contour>
      <point x="180" y="1416" type="line"/>
      <point x="336" y="1416" type="line"/>
      <point x="336" y="1206" type="line"/>
      <point x="482" y="1206" type="line" smooth="yes"/>
      <point x="565" y="1206"/>
      <point x="627" y="1206"/>
      <point x="695" y="1190" type="curve" smooth="yes"/>
      <point x="907" y="1140"/>
      <point x="1026" y="959"/>
      <point x="1026" y="756" type="curve" smooth="yes"/>
      <point x="1026" y="553"/>
      <point x="907" y="372"/>
      <point x="695" y="322" type="curve" smooth="yes"/>
      <point x="627" y="306"/>
      <point x="565" y="306"/>
      <point x="482" y="306" type="curve" smooth="yes"/>
      <point x="336" y="306" type="line"/>
      <point x="336" y="0" type="line"/>
      <point x="180" y="0" type="line"/>
    </contour>
    <contour>
      <point x="336" y="1066" type="line"/>
      <point x="336" y="446" type="line"/>
      <point x="482" y="446" type="line" smooth="yes"/>
      <point x="568" y="446"/>
      <point x="629" y="446"/>
      <point x="687" y="467" type="curve" smooth="yes"/>
      <point x="814" y="513"/>
      <point x="870" y="638"/>
      <point x="870" y="756" type="curve" smooth="yes"/>
      <point x="870" y="874"/>
      <point x="814" y="999"/>
      <point x="687" y="1045" type="curve" smooth="yes"/>
      <point x="629" y="1066"/>
      <point x="568" y="1066"/>
      <point x="482" y="1066" type="curve" smooth="yes"/>
    </contour>
  </outline>
</glyph>
<glyph name="germandbls" format="2">
  <advance width="1130"/>
  <unicode hex="00DF"/>
  <outline>
    <contour>
      <point x="515" y="1462" type="curve"/>
      <point x="724" y="1462"/>
      <point x="870" y="1312"/>
      <point x="870" y="1115" type="curve" smooth="yes"/>
      <point x="870" y="1010"/>
      <point x="833" y="925"/>
      <point x="764" y="868" type="curve"/>
      <point x="942" y="798"/>
      <point x="1010" y="655"/>
      <point x="1010" y="442" type="curve" smooth="yes"/>
      <point x="1010" y="317"/>
      <point x="985" y="216"/>
      <point x="926" y="136" type="curve" smooth="yes"/>
      <point x="860" y="46"/>
      <point x="744" y="-16"/>
      <point x="595" y="-16" type="curve" smooth="yes"/>
      <point x="549" y="-16"/>
      <point x="509" y="-11"/>
      <point x="469" y="-4" type="curve"/>
      <point x="491" y="128" type="line"/>
      <point x="523" y="122"/>
      <point x="559" y="118"/>
      <point x="595" y="118" type="curve" smooth="yes"/>
      <point x="691" y="118"/>
      <point x="757" y="152"/>
      <point x="800" y="210" type="curve" smooth="yes"/>
      <point x="841" y="266"/>
      <point x="860" y="348"/>
      <point x="860" y="442" type="curve" smooth="yes"/>
      <point x="860" y="553"/>
      <point x="839" y="646"/>
      <point x="779" y="703" type="curve" smooth="yes"/>
      <point x="704" y="774"/>
      <point x="624" y="774"/>
      <point x="490" y="774" type="curve"/>
      <point x="490" y="908" type="line"/>
      <point x="552" y="908"/>
      <point x="604" y="908"/>
      <point x="657" y="954" type="curve" smooth="yes"/>
      <point x="694" y="986"/>
      <point x="720" y="1045"/>
      <point x="720" y="1115" type="curve" smooth="yes"/>
      <point x="720" y="1241"/>
      <point x="638" y="1328"/>
      <point x="515" y="1328" type="curve"/>
      <point x="448" y="1328"/>
      <point x="394" y="1300"/>
      <point x="359" y="1260" type="curve" smooth="yes"/>
      <point x="310" y="1204"/>
      <point x="310" y="1132"/>
      <point x="310" y="1042" type="curve" smooth="yes"/>
      <point x="310" y="0" type="line"/>
      <point x="160" y="0" type="line"/>
      <point x="160" y="1042" type="line" smooth="yes"/>
      <point x="160" y="1151"/>
      <point x="161" y="1247"/>
      <point x="240" y="1341" type="curve" smooth="yes"/>
      <point x="299" y="1411"/>
      <point x="397" y="1462"/>
    </contour>
  </outline>
</glyph>
<glyph name="ae" format="2">
  <advance width="1610"/>
  <unicode hex="00E6"/>
  <outline>
    <contour>
      <point x="250" y="321" type="curve" smooth="yes"/>
      <point x="250" y="255"/>
      <point x="276" y="199"/>
      <point x="313" y="167" type="curve" smooth="yes"/>
      <point x="349" y="135"/>
      <point x="401" y="118"/>
      <point x="455" y="118" type="curve" smooth="yes"/>
      <point x="540" y="118"/>
      <point x="609" y="153"/>
      <point x="646" y="207" type="curve" smooth="yes"/>
      <point x="701" y="286"/>
      <point x="706" y="358"/>
      <point x="706" y="527" type="curve"/>
      <point x="525" y="527" type="line" smooth="yes"/>
      <point x="430" y="527"/>
      <point x="369" y="524"/>
      <point x="314" y="477" type="curve" smooth="yes"/>
      <point x="277" y="445"/>
      <point x="250" y="388"/>
    </contour>
    <contour>
      <point x="706" y="651" type="line"/>
      <point x="706" y="766"/>
      <point x="700" y="813"/>
      <point x="666" y="868" type="curve" smooth="yes"/>
      <point x="628" y="931"/>
      <point x="557" y="964"/>
      <point x="475" y="964" type="curve" smooth="yes"/>
      <point x="379" y="964"/>
      <point x="292" y="924"/>
      <point x="224" y="892" type="curve"/>
      <point x="165" y="1015" type="line"/>
      <point x="247" y="1057"/>
      <point x="366" y="1098"/>
      <point x="475" y="1098" type="curve" smooth="yes"/>
      <point x="619" y="1098"/>
      <point x="733" y="1036"/>
      <point x="786" y="929" type="curve"/>
      <point x="841" y="1029"/>
      <point x="952" y="1098"/>
      <point x="1093" y="1098" type="curve" smooth="yes"/>
      <point x="1244" y="1098"/>
      <point x="1363" y="1018"/>
      <point x="1423" y="920" type="curve" smooth="yes"/>
      <point x="1481" y="825"/>
      <point x="1490" y="727"/>
      <point x="1490" y="579" type="curve" smooth="yes"/>
      <point x="1490" y="509" type="line"/>
      <point x="850" y="509" type="line"/>
      <point x="850" y="394"/>
      <point x="854" y="296"/>
      <point x="902" y="221" type="curve" smooth="yes"/>
      <point x="942" y="157"/>
      <point x="1014" y="118"/>
      <point x="1115" y="118" type="curve" smooth="yes"/>
      <point x="1222" y="118"/>
      <point x="1325" y="159"/>
      <point x="1392" y="191" type="curve"/>
      <point x="1451" y="68" type="line"/>
      <point x="1366" y="28"/>
      <point x="1246" y="-16"/>
      <point x="1115" y="-16" type="curve" smooth="yes"/>
      <point x="959" y="-16"/>
      <point x="844" y="49"/>
      <point x="779" y="159" type="curve"/>
      <point x="716" y="49"/>
      <point x="601" y="-16"/>
      <point x="455" y="-16" type="curve" smooth="yes"/>
      <point x="368" y="-16"/>
      <point x="276" y="11"/>
      <point x="207" y="73" type="curve" smooth="yes"/>
      <point x="145" y="129"/>
      <point x="100" y="213"/>
      <point x="100" y="321" type="curve" smooth="yes"/>
      <point x="100" y="423"/>
      <point x="143" y="508"/>
      <point x="205" y="562" type="curve" smooth="yes"/>
      <point x="306" y="651"/>
      <point x="432" y="651"/>
      <point x="525" y="651" type="curve" smooth="yes"/>
    </contour>
    <contour>
      <point x="851" y="633" type="curve"/>
      <point x="1340" y="633" type="line"/>
      <point x="1340" y="719"/>
      <point x="1325" y="808"/>
      <point x="1286" y="864" type="curve" smooth="yes"/>
      <point x="1245" y="923"/>
      <point x="1181" y="964"/>
      <point x="1093" y="964" type="curve" smooth="yes"/>
      <point x="1003" y="964"/>
      <point x="939" y="918"/>
      <point x="903" y="863" type="curve" smooth="yes"/>
      <point x="864" y="804"/>
      <point x="852" y="721"/>
    </contour>
  </outline>
</glyph>
<glyph name="ccedilla" format="2">
  <advance width="964"/>
  <unicode hex="00E7"/>
  <outline>
    <contour>
      <point x="439" y="-306" type="curve" smooth="yes"/>
      <point x="485" y="-306"/>
      <point x="509" y="-269"/>
      <point x="509" y="-228" type="curve" smooth="yes"/>
      <point x="509" y="-183"/>
      <point x="485" y="-156"/>
      <point x="434" y="-138" type="curve"/>
      <point x="469.789" y="-11.3612" type="line"/>
      <point x="343.287" y="6.97748"/>
      <point x="245.466" y="77.7915"/>
      <point x="194" y="167" type="curve" smooth="yes"/>
      <point x="126" y="285"/>
      <point x="125" y="405"/>
      <point x="125" y="547" type="curve" smooth="yes"/>
      <point x="125" y="664"/>
      <point x="126" y="800"/>
      <point x="194" y="915" type="curve" smooth="yes"/>
      <point x="256" y="1018"/>
      <point x="374" y="1098"/>
      <point x="535" y="1098" type="curve" smooth="yes"/>
      <point x="661" y="1098"/>
      <point x="777" y="1050"/>
      <point x="862" y="997" type="curve"/>
      <point x="791" y="879" type="line"/>
      <point x="723" y="923"/>
      <point x="629" y="964"/>
      <point x="535" y="964" type="curve" smooth="yes"/>
      <point x="427" y="964"/>
      <point x="369" y="914"/>
      <point x="331" y="859" type="curve" smooth="yes"/>
      <point x="275" y="777"/>
      <point x="275" y="645"/>
      <point x="275" y="547" type="curve" smooth="yes"/>
      <point x="275" y="429"/>
      <point x="275" y="315"/>
      <point x="326" y="230" type="curve" smooth="yes"/>
      <point x="376" y="147"/>
      <point x="460" y="118"/>
      <point x="535" y="118" type="curve" smooth="yes"/>
      <point x="632" y="118"/>
      <point x="740" y="162"/>
      <point x="808" y="208" type="curve"/>
      <point x="884" y="94" type="line"/>
      <point x="808.653" y="43.204"/>
      <point x="701.052" y="-0.42468"/>
      <point x="593.359" y="-12.6147" type="curve"/>
      <point x="569" y="-97" type="line"/>
      <point x="609" y="-117"/>
      <point x="649" y="-160"/>
      <point x="649" y="-229" type="curve" smooth="yes"/>
      <point x="649" y="-350"/>
      <point x="562" y="-430"/>
      <point x="443" y="-430" type="curve" smooth="yes"/>
      <point x="410" y="-430"/>
      <point x="380" y="-423"/>
      <point x="354" y="-416" type="curve"/>
      <point x="392" y="-297" type="line"/>
      <point x="410" y="-304"/>
      <point x="426" y="-306"/>
    </contour>
  </outline>
</glyph>
<glyph name="egrave" format="2">
  <advance width="1055"/>
  <unicode hex="00E8"/>
  <outline>
    <contour>
      <point x="316" y="1496" type="line"/>
      <point x="485" y="1496" type="line"/>
      <point x="639" y="1222" type="line"/>
      <point x="481" y="1222" type="line"/>
    </contour>
    <component base="e"/>
  </outline>
</glyph>
<glyph name="igrave" format="2">
  <advance width="470"/>
  <unicode hex="00EC"/>
  <outline>
    <contour>
      <point x="21" y="1496" type="line"/>
      <point x="190" y="1496" type="line"/>
      <point x="344" y="1222" type="line"/>
      <point x="186" y="1222" type="line"/>
    </contour>
    <component base="dotlessi"/>
  </outline>
</glyph>
<glyph name="iacute" format="2">
  <advance width="470"/>
  <unicode hex="00ED"/>
  <outline>
    <contour>
      <point x="447" y="1496" type="line"/>
      <point x="282" y="1222" type="line"/>
      <point x="124" y="1222" type="line"/>
      <point x="278" y="1496" type="line"/>
    </contour>
    <component base="dotlessi"/>
  </outline>
</glyph>
<glyph name="eth" format="2">
  <advance width="1115"/>
  <unicode hex="00F0"/>
  <outline>
    <contour>
      <point x="550" y="964" type="curve" smooth="yes"/>
      <point x="461" y="964"/>
      <point x="392" y="932"/>
      <point x="351" y="885" type="curve" smooth="yes"/>
      <point x="275" y="798"/>
      <point x="275" y="669"/>
      <point x="275" y="541" type="curve" smooth="yes"/>
      <point x="275" y="413"/>
      <point x="275" y="284"/>
      <point x="351" y="197" type="curve" smooth="yes"/>
      <point x="392" y="150"/>
      <point x="461" y="118"/>
      <point x="550" y="118" type="curve" smooth="yes"/>
      <point x="639" y="118"/>
      <point x="710" y="149"/>
      <point x="751" y="197" type="curve" smooth="yes"/>
      <point x="825" y="284"/>
      <point x="825" y="413"/>
      <point x="825" y="541" type="curve" smooth="yes"/>
      <point x="825" y="669"/>
      <point x="825" y="798"/>
      <point x="749" y="885" type="curve" smooth="yes"/>
      <point x="708" y="932"/>
      <point x="639" y="964"/>
    </contour>
    <contour>
      <point x="454" y="1218" type="line"/>
      <point x="414" y="1298" type="line"/>
      <point x="574" y="1378" type="line"/>
      <point x="513" y="1425"/>
      <point x="445" y="1459"/>
      <point x="371" y="1492" type="curve"/>
      <point x="416" y="1600" type="line"/>
      <point x="510" y="1557"/>
      <point x="608" y="1515"/>
      <point x="697" y="1439" type="curve"/>
      <point x="891" y="1536" type="line"/>
      <point x="931" y="1456" type="line"/>
      <point x="764" y="1373" type="line"/>
      <point x="824" y="1305"/>
      <point x="871" y="1225"/>
      <point x="903" y="1140" type="curve" smooth="yes"/>
      <point x="975" y="948"/>
      <point x="975" y="738"/>
      <point x="975" y="541" type="curve" smooth="yes"/>
      <point x="975" y="394"/>
      <point x="973" y="236"/>
      <point x="868" y="110" type="curve" smooth="yes"/>
      <point x="808" y="37"/>
      <point x="706" y="-16"/>
      <point x="570" y="-16" type="curve" smooth="yes"/>
      <point x="404" y="-16"/>
      <point x="304" y="33"/>
      <point x="235" y="110" type="curve" smooth="yes"/>
      <point x="125" y="233"/>
      <point x="125" y="394"/>
      <point x="125" y="541" type="curve" smooth="yes"/>
      <point x="125" y="698"/>
      <point x="129" y="846"/>
      <point x="231" y="972" type="curve" smooth="yes"/>
      <point x="291" y="1046"/>
      <point x="394" y="1098"/>
      <point x="520" y="1098" type="curve" smooth="yes"/>
      <point x="631" y="1098"/>
      <point x="728" y="1063"/>
      <point x="805" y="977" type="curve"/>
      <point x="780" y="1105"/>
      <point x="731" y="1220"/>
      <point x="645" y="1313" type="curve"/>
    </contour>
  </outline>
</glyph>
<glyph name="ograve" format="2">
  <advance width="1100"/>
  <unicode hex="00F2"/>
  <outline>
    <contour>
      <point x="336" y="1496" type="line"/>
      <point x="505" y="1496" type="line"/>
      <point x="659" y="1222" type="line"/>
      <point x="501" y="1222" type="line"/>
    </contour>
    <component base="o"/>
  </outline>
</glyph>
<glyph name="oacute" format="2">
  <advance width="1100"/>
  <unicode hex="00F3"/>
  <outline>
    <contour>
      <point x="762" y="1496" type="line"/>
      <point x="597" y="1222" type="line"/>
      <point x="439" y="1222" type="line"/>
      <point x="593" y="1496" type="line"/>
    </contour>
    <component base="o"/>
  </outline>
</glyph>
<glyph name="divide" format="2">
  <advance width="1140"/>
  <unicode hex="00F7"/>
  <outline>
    <contour>
      <point x="570" y="324" type="curve" smooth="yes"/>
      <point x="625" y="324"/>
      <point x="664" y="285"/>
      <point x="664" y="230" type="curve" smooth="yes"/>
      <point x="664" y="175"/>
      <point x="625" y="136"/>
      <point x="570" y="136" type="curve" smooth="yes"/>
      <point x="515" y="136"/>
      <point x="476" y="175"/>
      <point x="476" y="230" type="curve" smooth="yes"/>
      <point x="476" y="285"/>
      <point x="515" y="324"/>
    </contour>
    <contour>
      <point x="160" y="608" type="line"/>
      <point x="980" y="608" type="line"/>
      <point x="980" y="474" type="line"/>
      <point x="160" y="474" type="line"/>
    </contour>
    <contour>
      <point x="570" y="946" type="curve" smooth="yes"/>
      <point x="625" y="946"/>
      <point x="664" y="907"/>
      <point x="664" y="852" type="curve" smooth="yes"/>
      <point x="664" y="797"/>
      <point x="625" y="758"/>
      <point x="570" y="758" type="curve" smooth="yes"/>
      <point x="515" y="758"/>
      <point x="476" y="797"/>
      <point x="476" y="852" type="curve" smooth="yes"/>
      <point x="476" y="907"/>
      <point x="515" y="946"/>
    </contour>
  </outline>
</glyph>
<glyph name="oslash" format="2">
  <advance width="1100"/>
  <unicode hex="00F8"/>
  <anchor x="555" y="1082" name="Top"/>
  <outline>
    <contour>
      <point x="550" y="964" type="curve" smooth="yes"/>
      <point x="461" y="964"/>
      <point x="392" y="932"/>
      <point x="351" y="885" type="curve" smooth="yes"/>
      <point x="275" y="798"/>
      <point x="275" y="669"/>
      <point x="275" y="541" type="curve" smooth="yes"/>
      <point x="275" y="438"/>
      <point x="275" y="333"/>
      <point x="315" y="252" type="curve"/>
      <point x="727" y="907" type="line"/>
      <point x="685" y="942"/>
      <point x="624" y="964"/>
    </contour>
    <contour>
      <point x="877" y="1146" type="line"/>
      <point x="953" y="1098" type="line"/>
      <point x="869" y="965" type="line"/>
      <point x="975" y="842"/>
      <point x="975" y="685"/>
      <point x="975" y="541" type="curve" smooth="yes"/>
      <point x="975" y="394"/>
      <point x="975" y="234"/>
      <point x="863" y="110" type="curve" smooth="yes"/>
      <point x="797" y="37"/>
      <point x="687" y="-16"/>
      <point x="550" y="-16" type="curve" smooth="yes"/>
      <point x="449" y="-16"/>
      <point x="364" y="13"/>
      <point x="299" y="57" type="curve"/>
      <point x="223" y="-64" type="line"/>
      <point x="147" y="-16" type="line"/>
      <point x="231" y="117" type="line"/>
      <point x="125" y="240"/>
      <point x="125" y="397"/>
      <point x="125" y="541" type="curve" smooth="yes"/>
      <point x="125" y="688"/>
      <point x="125" y="848"/>
      <point x="237" y="972" type="curve" smooth="yes"/>
      <point x="303" y="1045"/>
      <point x="413" y="1098"/>
      <point x="550" y="1098" type="curve" smooth="yes"/>
      <point x="651" y="1098"/>
      <point x="736" y="1069"/>
      <point x="801" y="1025" type="curve"/>
    </contour>
    <contour>
      <point x="373" y="175" type="line"/>
      <point x="415" y="140"/>
      <point x="476" y="118"/>
      <point x="550" y="118" type="curve" smooth="yes"/>
      <point x="639" y="118"/>
      <point x="708" y="150"/>
      <point x="749" y="197" type="curve" smooth="yes"/>
      <point x="825" y="284"/>
      <point x="825" y="413"/>
      <point x="825" y="541" type="curve" smooth="yes"/>
      <point x="825" y="644"/>
      <point x="825" y="748"/>
      <point x="785" y="830" type="curve"/>
    </contour>
  </outline>
</glyph>
<glyph name="ugrave" format="2">
  <advance width="1100"/>
  <unicode hex="00F9"/>
  <outline>
    <contour>
      <point x="331" y="1496" type="line"/>
      <point x="500" y="1496" type="line"/>
      <point x="654" y="1222" type="line"/>
      <point x="496" y="1222" type="line"/>
    </contour>
    <component base="u"/>
  </outline>
</glyph>
<glyph name="uacute" format="2">
  <advance width="1100"/>
  <unicode hex="00FA"/>
  <outline>
    <contour>
      <point x="757" y="1496" type="line"/>
      <point x="592" y="1222" type="line"/>
      <point x="434" y="1222" type="line"/>
      <point x="588" y="1496" type="line"/>
    </contour>
    <component base="u"/>
  </outline>
</glyph>
<glyph name="Amacron" format="2">
  <advance width="1190"/>
  <unicode hex="0100"/>
  <outline>
    <contour>
      <point x="310" y="1720" type="line"/>
      <point x="880" y="1720" type="line"/>
      <point x="880" y="1586" type="line"/>
      <point x="310" y="1586" type="line"/>
    </contour>
    <component base="A"/>
  </outline>
</glyph>
<glyph name="Aogonek" format="2">
  <advance width="1190"/>
  <unicode hex="0104"/>
  <outline>
    <contour>
      <point x="948" y="-216" type="curve" smooth="yes"/>
      <point x="948" y="-267"/>
      <point x="978" y="-306"/>
      <point x="1029" y="-306" type="curve" smooth="yes"/>
      <point x="1057" y="-306"/>
      <point x="1085" y="-293"/>
      <point x="1103" y="-281" type="curve"/>
      <point x="1168" y="-391" type="line"/>
      <point x="1130" y="-413"/>
      <point x="1084" y="-430"/>
      <point x="1029" y="-430" type="curve" smooth="yes"/>
      <point x="899" y="-430"/>
      <point x="824" y="-340"/>
      <point x="824" y="-237" type="curve" smooth="yes"/>
      <point x="824" y="-126.925"/>
      <point x="899.679" y="-51.2037"/>
      <point x="987.097" y="0" type="curve"/>
      <point x="987" y="0" type="line"/>
      <point x="876" y="342" type="line"/>
      <point x="314" y="342" type="line"/>
      <point x="203" y="0" type="line"/>
      <point x="40" y="0" type="line"/>
      <point x="520" y="1416" type="line"/>
      <point x="670" y="1416" type="line"/>
      <point x="1150" y="0" type="line"/>
      <point x="1067" y="-30"/>
      <point x="948" y="-100"/>
    </contour>
    <contour>
      <point x="830" y="482" type="line"/>
      <point x="595" y="1205" type="line"/>
      <point x="360" y="482" type="line"/>
    </contour>
  </outline>
</glyph>
<glyph name="aogonek" format="2">
  <advance width="1020"/>
  <unicode hex="0105"/>
  <outline>
    <contour>
      <point x="668" y="-216" type="curve" smooth="yes"/>
      <point x="668" y="-267"/>
      <point x="698" y="-306"/>
      <point x="749" y="-306" type="curve" smooth="yes"/>
      <point x="777" y="-306"/>
      <point x="805" y="-293"/>
      <point x="823" y="-281" type="curve"/>
      <point x="888" y="-391" type="line"/>
      <point x="850" y="-413"/>
      <point x="804" y="-430"/>
      <point x="749" y="-430" type="curve" smooth="yes"/>
      <point x="619" y="-430"/>
      <point x="544" y="-340"/>
      <point x="544" y="-237" type="curve" smooth="yes"/>
      <point x="544" y="-121.541"/>
      <point x="627.262" y="-43.8792"/>
      <point x="720" y="7.33802" type="curve"/>
      <point x="720" y="115" type="line"/>
      <point x="651" y="36"/>
      <point x="564" y="-16"/>
      <point x="445" y="-16" type="curve" smooth="yes"/>
      <point x="244" y="-16"/>
      <point x="100" y="131"/>
      <point x="100" y="321" type="curve" smooth="yes"/>
      <point x="100" y="427"/>
      <point x="146" y="509"/>
      <point x="209" y="563" type="curve" smooth="yes"/>
      <point x="311" y="651"/>
      <point x="443" y="651"/>
      <point x="530" y="651" type="curve" smooth="yes"/>
      <point x="720" y="651" type="line"/>
      <point x="720" y="703" type="line" smooth="yes"/>
      <point x="720" y="759"/>
      <point x="720" y="833"/>
      <point x="666" y="892" type="curve" smooth="yes"/>
      <point x="626" y="936"/>
      <point x="566" y="964"/>
      <point x="485" y="964" type="curve" smooth="yes"/>
      <point x="392" y="964"/>
      <point x="297" y="927"/>
      <point x="222" y="891" type="curve"/>
      <point x="165" y="1015" type="line"/>
      <point x="255" y="1056"/>
      <point x="362" y="1098"/>
      <point x="485" y="1098" type="curve" smooth="yes"/>
      <point x="618" y="1098"/>
      <point x="722" y="1048"/>
      <point x="787" y="974" type="curve" smooth="yes"/>
      <point x="870" y="879"/>
      <point x="870" y="779"/>
      <point x="870" y="703" type="curve" smooth="yes"/>
      <point x="870" y="0" type="line"/>
      <point x="787" y="-30"/>
      <point x="668" y="-100"/>
    </contour>
    <contour>
      <point x="530" y="527" type="line" smooth="yes"/>
      <point x="458" y="527"/>
      <point x="375" y="527"/>
      <point x="317" y="477" type="curve" smooth="yes"/>
      <point x="280" y="445"/>
      <point x="250" y="392"/>
      <point x="250" y="321" type="curve" smooth="yes"/>
      <point x="250" y="214"/>
      <point x="321" y="118"/>
      <point x="465" y="118" type="curve" smooth="yes"/>
      <point x="553" y="118"/>
      <point x="624" y="154"/>
      <point x="664" y="207" type="curve" smooth="yes"/>
      <point x="720" y="281"/>
      <point x="720" y="378"/>
      <point x="720" y="468" type="curve" smooth="yes"/>
      <point x="720" y="527" type="line"/>
    </contour>
  </outline>
</glyph>
<glyph name="Cacute" format="2">
  <advance width="1114"/>
  <unicode hex="0106"/>
  <outline>
    <contour>
      <point x="830" y="1830" type="line"/>
      <point x="665" y="1556" type="line"/>
      <point x="507" y="1556" type="line"/>
      <point x="661" y="1830" type="line"/>
    </contour>
    <component base="C"/>
  </outline>
</glyph>
<glyph name="dcroat" format="2">
  <advance width="1150"/>
  <unicode hex="0111"/>
  <outline>
    <contour>
      <point x="1090" y="1360" type="line"/>
      <point x="1090" y="1236" type="line"/>
      <point x="955" y="1236" type="line"/>
      <point x="955" y="0" type="line"/>
      <point x="805" y="0" type="line"/>
      <point x="805" y="115" type="line"/>
      <point x="733" y="35"/>
      <point x="644" y="-16"/>
      <point x="520" y="-16" type="curve" smooth="yes"/>
      <point x="380" y="-16"/>
      <point x="266" y="51"/>
      <point x="205" y="144" type="curve" smooth="yes"/>
      <point x="133" y="255"/>
      <point x="125" y="374"/>
      <point x="125" y="541" type="curve" smooth="yes"/>
      <point x="125" y="708"/>
      <point x="133" y="827"/>
      <point x="205" y="938" type="curve" smooth="yes"/>
      <point x="266" y="1031"/>
      <point x="380" y="1098"/>
      <point x="520" y="1098" type="curve" smooth="yes"/>
      <point x="644" y="1098"/>
      <point x="733" y="1047"/>
      <point x="805" y="967" type="curve"/>
      <point x="805" y="1236" type="line"/>
      <point x="558" y="1236" type="line"/>
      <point x="558" y="1360" type="line"/>
      <point x="805" y="1360" type="line"/>
      <point x="805" y="1496" type="line"/>
      <point x="955" y="1496" type="line"/>
      <point x="955" y="1360" type="line"/>
    </contour>
    <contour>
      <point x="540" y="964" type="curve" smooth="yes"/>
      <point x="447" y="964"/>
      <point x="377" y="924"/>
      <point x="335" y="866" type="curve" smooth="yes"/>
      <point x="280" y="790"/>
      <point x="275" y="683"/>
      <point x="275" y="541" type="curve" smooth="yes"/>
      <point x="275" y="399"/>
      <point x="280" y="292"/>
      <point x="335" y="216" type="curve" smooth="yes"/>
      <point x="377" y="158"/>
      <point x="447" y="118"/>
      <point x="540" y="118" type="curve" smooth="yes"/>
      <point x="633" y="118"/>
      <point x="703" y="158"/>
      <point x="745" y="216" type="curve" smooth="yes"/>
      <point x="800" y="292"/>
      <point x="805" y="399"/>
      <point x="805" y="541" type="curve" smooth="yes"/>
      <point x="805" y="683"/>
      <point x="800" y="790"/>
      <point x="745" y="866" type="curve" smooth="yes"/>
      <point x="703" y="924"/>
      <point x="633" y="964"/>
    </contour>
  </outline>
</glyph>
<glyph name="Emacron" format="2">
  <advance width="1100"/>
  <unicode hex="0112"/>
  <outline>
    <contour>
      <point x="292" y="1720" type="line"/>
      <point x="862" y="1720" type="line"/>
      <point x="862" y="1586" type="line"/>
      <point x="292" y="1586" type="line"/>
    </contour>
    <component base="E"/>
  </outline>
</glyph>
<glyph name="emacron" format="2">
  <advance width="1055"/>
  <unicode hex="0113"/>
  <outline>
    <contour>
      <point x="245" y="1386" type="line"/>
      <point x="815" y="1386" type="line"/>
      <point x="815" y="1252" type="line"/>
      <point x="245" y="1252" type="line"/>
    </contour>
    <component base="e"/>
  </outline>
</glyph>
<glyph name="Eogonek" format="2">
  <advance width="1100"/>
  <unicode hex="0118"/>
  <outline>
    <contour>
      <point x="758" y="-216" type="curve" smooth="yes"/>
      <point x="758" y="-267"/>
      <point x="788" y="-306"/>
      <point x="839" y="-306" type="curve" smooth="yes"/>
      <point x="867" y="-306"/>
      <point x="895" y="-293"/>
      <point x="913" y="-281" type="curve"/>
      <point x="978" y="-391" type="line"/>
      <point x="940" y="-413"/>
      <point x="894" y="-430"/>
      <point x="839" y="-430" type="curve" smooth="yes"/>
      <point x="709" y="-430"/>
      <point x="634" y="-340"/>
      <point x="634" y="-237" type="curve" smooth="yes"/>
      <point x="634" y="-126.925"/>
      <point x="709.679" y="-51.2037"/>
      <point x="797.097" y="0" type="curve"/>
      <point x="180" y="0" type="line"/>
      <point x="180" y="1416" type="line"/>
      <point x="960" y="1416" type="line"/>
      <point x="960" y="1276" type="line"/>
      <point x="336" y="1276" type="line"/>
      <point x="336" y="792" type="line"/>
      <point x="870" y="792" type="line"/>
      <point x="870" y="652" type="line"/>
      <point x="336" y="652" type="line"/>
      <point x="336" y="140" type="line"/>
      <point x="960" y="140" type="line"/>
      <point x="960" y="0" type="line"/>
      <point x="877" y="-30"/>
      <point x="758" y="-100"/>
    </contour>
  </outline>
</glyph>
<glyph name="eogonek" format="2">
  <advance width="1055"/>
  <unicode hex="0119"/>
  <outline>
    <contour>
      <point x="785" y="633" type="line"/>
      <point x="784" y="691"/>
      <point x="779" y="757"/>
      <point x="756" y="814" type="curve" smooth="yes"/>
      <point x="720" y="904"/>
      <point x="636" y="964"/>
      <point x="530" y="964" type="curve" smooth="yes"/>
      <point x="419" y="964"/>
      <point x="339" y="902"/>
      <point x="305" y="815" type="curve" smooth="yes"/>
      <point x="284" y="761"/>
      <point x="277" y="698"/>
      <point x="276" y="633" type="curve"/>
    </contour>
    <contour>
      <point x="625" y="-176" type="curve" smooth="yes"/>
      <point x="625" y="-227"/>
      <point x="655" y="-266"/>
      <point x="706" y="-266" type="curve" smooth="yes"/>
      <point x="734" y="-266"/>
      <point x="762" y="-253"/>
      <point x="780" y="-241" type="curve"/>
      <point x="845" y="-351" type="line"/>
      <point x="807" y="-373"/>
      <point x="761" y="-390"/>
      <point x="706" y="-390" type="curve" smooth="yes"/>
      <point x="576" y="-390"/>
      <point x="501" y="-300"/>
      <point x="501" y="-197" type="curve" smooth="yes"/>
      <point x="501" y="-117"/>
      <point x="554" y="-55"/>
      <point x="629" y="-6" type="curve"/>
      <point x="603" y="-13"/>
      <point x="576" y="-16"/>
      <point x="550" y="-16" type="curve" smooth="yes"/>
      <point x="390" y="-16"/>
      <point x="271" y="50"/>
      <point x="204" y="147" type="curve" smooth="yes"/>
      <point x="125" y="261"/>
      <point x="125" y="400"/>
      <point x="125" y="541" type="curve" smooth="yes"/>
      <point x="125" y="660"/>
      <point x="125" y="759"/>
      <point x="162" y="856" type="curve" smooth="yes"/>
      <point x="217" y="1001"/>
      <point x="356" y="1098"/>
      <point x="530" y="1098" type="curve" smooth="yes"/>
      <point x="702" y="1098"/>
      <point x="842" y="1000"/>
      <point x="899" y="855" type="curve" smooth="yes"/>
      <point x="935" y="763"/>
      <point x="935" y="681"/>
      <point x="935" y="542" type="curve" smooth="yes"/>
      <point x="935" y="509" type="line"/>
      <point x="275" y="509" type="line"/>
      <point x="275" y="411"/>
      <point x="277" y="296"/>
      <point x="332" y="217" type="curve" smooth="yes"/>
      <point x="376" y="154"/>
      <point x="449" y="118"/>
      <point x="550" y="118" type="curve" smooth="yes"/>
      <point x="652" y="118"/>
      <point x="754" y="152"/>
      <point x="836" y="191" type="curve"/>
      <point x="893" y="67" type="line"/>
      <point x="785" y="21"/>
      <point x="625" y="-37"/>
    </contour>
  </outline>
</glyph>
<glyph name="Hbar" format="2">
  <advance width="1380"/>
  <unicode hex="0126"/>
  <outline>
    <contour>
      <point x="1300" y="1260" type="line"/>
      <point x="1300" y="1136" type="line"/>
      <point x="1154" y="1136" type="line"/>
      <point x="1154" y="0" type="line"/>
      <point x="998" y="0" type="line"/>
      <point x="998" y="652" type="line"/>
      <point x="390" y="652" type="line"/>
      <point x="390" y="0" type="line"/>
      <point x="234" y="0" type="line"/>
      <point x="234" y="1136" type="line"/>
      <point x="80" y="1136" type="line"/>
      <point x="80" y="1260" type="line"/>
      <point x="234" y="1260" type="line"/>
      <point x="234" y="1416" type="line"/>
      <point x="390" y="1416" type="line"/>
      <point x="390" y="1260" type="line"/>
      <point x="998" y="1260" type="line"/>
      <point x="998" y="1416" type="line"/>
      <point x="1154" y="1416" type="line"/>
      <point x="1154" y="1260" type="line"/>
    </contour>
    <contour>
      <point x="998" y="1136" type="line"/>
      <point x="390" y="1136" type="line"/>
      <point x="390" y="792" type="line"/>
      <point x="998" y="792" type="line"/>
    </contour>
  </outline>
</glyph>
<glyph name="hbar" format="2">
  <advance width="1130"/>
  <unicode hex="0127"/>
  <outline>
    <contour>
      <point x="625" y="1098" type="curve" smooth="yes"/>
      <point x="747" y="1098"/>
      <point x="846" y="1043"/>
      <point x="907" y="966" type="curve" smooth="yes"/>
      <point x="990" y="862"/>
      <point x="990" y="741"/>
      <point x="990" y="625" type="curve" smooth="yes"/>
      <point x="990" y="0" type="line"/>
      <point x="840" y="0" type="line"/>
      <point x="840" y="615" type="line" smooth="yes"/>
      <point x="840" y="735"/>
      <point x="840" y="816"/>
      <point x="782" y="884" type="curve" smooth="yes"/>
      <point x="742" y="931"/>
      <point x="677" y="964"/>
      <point x="595" y="964" type="curve" smooth="yes"/>
      <point x="513" y="964"/>
      <point x="448" y="931"/>
      <point x="408" y="884" type="curve" smooth="yes"/>
      <point x="350" y="816"/>
      <point x="350" y="735"/>
      <point x="350" y="615" type="curve" smooth="yes"/>
      <point x="350" y="0" type="line"/>
      <point x="200" y="0" type="line"/>
      <point x="200" y="1236" type="line"/>
      <point x="60" y="1236" type="line"/>
      <point x="60" y="1360" type="line"/>
      <point x="200" y="1360" type="line"/>
      <point x="200" y="1496" type="line"/>
      <point x="350" y="1496" type="line"/>
      <point x="350" y="1360" type="line"/>
      <point x="592" y="1360" type="line"/>
      <point x="592" y="1236" type="line"/>
      <point x="350" y="1236" type="line"/>
      <point x="350" y="968" type="line"/>
      <point x="422" y="1047"/>
      <point x="506" y="1098"/>
    </contour>
  </outline>
</glyph>
<glyph name="Imacron" format="2">
  <advance width="516"/>
  <unicode hex="012A"/>
  <outline>
    <contour>
      <point x="-27" y="1720" type="line"/>
      <point x="543" y="1720" type="line"/>
      <point x="543" y="1586" type="line"/>
      <point x="-27" y="1586" type="line"/>
    </contour>
    <component base="I"/>
  </outline>
</glyph>
<glyph name="imacron" format="2">
  <advance width="470"/>
  <unicode hex="012B"/>
  <outline>
    <contour>
      <point x="-50" y="1386" type="line"/>
      <point x="520" y="1386" type="line"/>
      <point x="520" y="1252" type="line"/>
      <point x="-50" y="1252" type="line"/>
    </contour>
    <component base="dotlessi"/>
  </outline>
</glyph>
<glyph name="Iogonek" format="2">
  <advance width="516"/>
  <unicode hex="012E"/>
  <outline>
    <contour>
      <point x="130" y="-216" type="curve" smooth="yes"/>
      <point x="130" y="-267"/>
      <point x="160" y="-306"/>
      <point x="211" y="-306" type="curve" smooth="yes"/>
      <point x="239" y="-306"/>
      <point x="267" y="-293"/>
      <point x="285" y="-281" type="curve"/>
      <point x="350" y="-391" type="line"/>
      <point x="312" y="-413"/>
      <point x="266" y="-430"/>
      <point x="211" y="-430" type="curve" smooth="yes"/>
      <point x="81" y="-430"/>
      <point x="6" y="-340"/>
      <point x="6" y="-237" type="curve" smooth="yes"/>
      <point x="6" y="-122.372"/>
      <point x="88.0685" y="-44.9986"/>
      <point x="180" y="6.22852" type="curve"/>
      <point x="180" y="1416" type="line"/>
      <point x="336" y="1416" type="line"/>
      <point x="336" y="0" type="line"/>
      <point x="332" y="0" type="line"/>
      <point x="249" y="-30"/>
      <point x="130" y="-100"/>
    </contour>
  </outline>
</glyph>
<glyph name="iogonek" format="2">
  <advance width="470"/>
  <unicode hex="012F"/>
  <outline>
    <contour>
      <point x="113" y="-216" type="curve" smooth="yes"/>
      <point x="113" y="-267"/>
      <point x="143" y="-306"/>
      <point x="194" y="-306" type="curve" smooth="yes"/>
      <point x="222" y="-306"/>
      <point x="250" y="-293"/>
      <point x="268" y="-281" type="curve"/>
      <point x="333" y="-391" type="line"/>
      <point x="295" y="-413"/>
      <point x="249" y="-430"/>
      <point x="194" y="-430" type="curve" smooth="yes"/>
      <point x="64" y="-430"/>
      <point x="-11" y="-340"/>
      <point x="-11" y="-237" type="curve" smooth="yes"/>
      <point x="-11" y="-123.62"/>
      <point x="69.2907" y="-46.6883"/>
      <point x="160" y="4.5455" type="curve"/>
      <point x="160" y="1082" type="line"/>
      <point x="310" y="1082" type="line"/>
      <point x="310" y="5" type="line"/>
      <point x="315" y="0" type="line"/>
      <point x="232" y="-30"/>
      <point x="113" y="-100"/>
    </contour>
    <contour>
      <point x="235" y="1454" type="curve" smooth="yes"/>
      <point x="296" y="1454"/>
      <point x="338" y="1410"/>
      <point x="338" y="1350" type="curve" smooth="yes"/>
      <point x="338" y="1289"/>
      <point x="296" y="1247"/>
      <point x="235" y="1247" type="curve" smooth="yes"/>
      <point x="174" y="1247"/>
      <point x="132" y="1289"/>
      <point x="132" y="1350" type="curve" smooth="yes"/>
      <point x="132" y="1410"/>
      <point x="174" y="1454"/>
    </contour>
  </outline>
</glyph>
<glyph name="dotlessi" format="2">
  <advance width="470"/>
  <unicode hex="0131"/>
  <anchor x="6" y="0" name="Center"/>
  <anchor x="6" y="0" name="Apos"/>
  <anchor x="6" y="0" name="DoubleTop"/>
  <anchor x="235" y="0" name="Bottom"/>
  <anchor x="235" y="1082" name="Top"/>
  <outline>
    <contour>
      <point x="310" y="0" type="line"/>
      <point x="160" y="0" type="line"/>
      <point x="160" y="1082" type="line"/>
      <point x="310" y="1082" type="line"/>
    </contour>
  </outline>
</glyph>
<glyph name="kgreenlandic" format="2">
  <advance width="1005"/>
  <unicode hex="0138"/>
  <anchor x="489" y="0" name="Bottom"/>
  <outline>
    <contour>
      <point x="160" y="1082" type="line"/>
      <point x="310" y="1082" type="line"/>
      <point x="310" y="540" type="line"/>
      <point x="741" y="1082" type="line"/>
      <point x="925" y="1082" type="line"/>
      <point x="549" y="609" type="line"/>
      <point x="935" y="0" type="line"/>
      <point x="763" y="0" type="line"/>
      <point x="449" y="495" type="line"/>
      <point x="310" y="317" type="line"/>
      <point x="310" y="0" type="line"/>
      <point x="160" y="0" type="line"/>
    </contour>
  </outline>
</glyph>
<glyph name="Lslash" format="2">
  <advance width="1087"/>
  <unicode hex="0141"/>
  <outline>
    <contour>
      <point x="565" y="998" type="line"/>
      <point x="641" y="890" type="line"/>
      <point x="413" y="731" type="line"/>
      <point x="413" y="140" type="line"/>
      <point x="1007" y="140" type="line"/>
      <point x="1007" y="0" type="line"/>
      <point x="257" y="0" type="line"/>
      <point x="257" y="623" type="line"/>
      <point x="141" y="542" type="line"/>
      <point x="65" y="650" type="line"/>
      <point x="257" y="784" type="line"/>
      <point x="257" y="1416" type="line"/>
      <point x="413" y="1416" type="line"/>
      <point x="413" y="892" type="line"/>
    </contour>
  </outline>
</glyph>
<glyph name="lslash" format="2">
  <advance width="696"/>
  <unicode hex="0142"/>
  <outline>
    <contour>
      <point x="137" y="542" type="line"/>
      <point x="65" y="646" type="line"/>
      <point x="278" y="794" type="line"/>
      <point x="278" y="1496" type="line"/>
      <point x="428" y="1496" type="line"/>
      <point x="428" y="899" type="line"/>
      <point x="559" y="990" type="line"/>
      <point x="631" y="886" type="line"/>
      <point x="428" y="745" type="line"/>
      <point x="428" y="191" type="line" smooth="yes"/>
      <point x="428" y="169"/>
      <point x="428" y="146"/>
      <point x="439" y="132" type="curve" smooth="yes"/>
      <point x="447" y="122"/>
      <point x="458" y="118"/>
      <point x="474" y="118" type="curve" smooth="yes"/>
      <point x="488" y="118"/>
      <point x="504" y="120"/>
      <point x="520" y="124" type="curve"/>
      <point x="544" y="-4" type="line"/>
      <point x="517" y="-12"/>
      <point x="487" y="-16"/>
      <point x="452" y="-16" type="curve" smooth="yes"/>
      <point x="396" y="-16"/>
      <point x="348" y="11"/>
      <point x="316" y="50" type="curve" smooth="yes"/>
      <point x="278" y="96"/>
      <point x="278" y="158"/>
      <point x="278" y="191" type="curve" smooth="yes"/>
      <point x="278" y="640" type="line"/>
    </contour>
  </outline>
</glyph>
<glyph name="Eng" format="2">
  <advance width="1286"/>
  <unicode hex="014A"/>
  <outline>
    <contour>
      <point x="954" y="1416" type="line"/>
      <point x="1110" y="1416" type="line"/>
      <point x="1110" y="-121" type="line" smooth="yes"/>
      <point x="1110" y="-223"/>
      <point x="1105" y="-268"/>
      <point x="1076" y="-319" type="curve" smooth="yes"/>
      <point x="1035" y="-391"/>
      <point x="958" y="-433"/>
      <point x="857" y="-433" type="curve" smooth="yes"/>
      <point x="817" y="-433"/>
      <point x="774" y="-425"/>
      <point x="733" y="-408" type="curve"/>
      <point x="784" y="-277" type="line"/>
      <point x="807" y="-287"/>
      <point x="834" y="-293"/>
      <point x="860" y="-293" type="curve" smooth="yes"/>
      <point x="893" y="-293"/>
      <point x="922" y="-281"/>
      <point x="938" y="-255" type="curve" smooth="yes"/>
      <point x="953" y="-230"/>
      <point x="954" y="-199"/>
      <point x="954" y="-121" type="curve" smooth="yes"/>
      <point x="954" y="-2" type="line"/>
      <point x="332" y="1136" type="line"/>
      <point x="332" y="0" type="line"/>
      <point x="176" y="0" type="line"/>
      <point x="176" y="1416" type="line"/>
      <point x="333" y="1416" type="line"/>
      <point x="954" y="280" type="line"/>
    </contour>
  </outline>
</glyph>
<glyph name="eng" format="2">
  <advance width="1100"/>
  <unicode hex="014B"/>
  <outline>
    <contour>
      <point x="950" y="-134" type="line" smooth="yes"/>
      <point x="950" y="-191"/>
      <point x="950" y="-228"/>
      <point x="940" y="-264" type="curve" smooth="yes"/>
      <point x="912" y="-363"/>
      <point x="825" y="-428"/>
      <point x="715" y="-428" type="curve" smooth="yes"/>
      <point x="668" y="-428"/>
      <point x="622" y="-421"/>
      <point x="584" y="-409" type="curve"/>
      <point x="622" y="-279" type="line"/>
      <point x="646" y="-287"/>
      <point x="676" y="-294"/>
      <point x="705" y="-294" type="curve" smooth="yes"/>
      <point x="750" y="-294"/>
      <point x="777" y="-273"/>
      <point x="790" y="-240" type="curve" smooth="yes"/>
      <point x="800" y="-215"/>
      <point x="800" y="-184"/>
      <point x="800" y="-129" type="curve" smooth="yes"/>
      <point x="800" y="615" type="line" smooth="yes"/>
      <point x="800" y="724"/>
      <point x="800" y="777"/>
      <point x="774" y="834" type="curve" smooth="yes"/>
      <point x="736" y="917"/>
      <point x="652" y="964"/>
      <point x="555" y="964" type="curve" smooth="yes"/>
      <point x="458" y="964"/>
      <point x="374" y="917"/>
      <point x="336" y="834" type="curve" smooth="yes"/>
      <point x="310" y="777"/>
      <point x="310" y="724"/>
      <point x="310" y="615" type="curve" smooth="yes"/>
      <point x="310" y="0" type="line"/>
      <point x="160" y="0" type="line"/>
      <point x="160" y="1082" type="line"/>
      <point x="310" y="1082" type="line"/>
      <point x="310" y="968" type="line"/>
      <point x="382" y="1047"/>
      <point x="466" y="1098"/>
      <point x="585" y="1098" type="curve" smooth="yes"/>
      <point x="730" y="1098"/>
      <point x="862" y="1018"/>
      <point x="919" y="876" type="curve" smooth="yes"/>
      <point x="950" y="799"/>
      <point x="950" y="716"/>
      <point x="950" y="625" type="curve" smooth="yes"/>
    </contour>
  </outline>
</glyph>
<glyph name="omacron" format="2">
  <advance width="1100"/>
  <unicode hex="014D"/>
  <outline>
    <contour>
      <point x="305" y="1386" type="line"/>
      <point x="875" y="1386" type="line"/>
      <point x="875" y="1252" type="line"/>
      <point x="305" y="1252" type="line"/>
    </contour>
    <component base="o" xOffset="20"/>
  </outline>
</glyph>
<glyph name="OE" format="2">
  <advance width="1670"/>
  <unicode hex="0152"/>
  <outline>
    <contour>
      <point x="588" y="1295" type="curve" smooth="yes"/>
      <point x="450" y="1295"/>
      <point x="365" y="1230"/>
      <point x="326" y="1128" type="curve" smooth="yes"/>
      <point x="286" y="1024"/>
      <point x="286" y="855"/>
      <point x="286" y="708" type="curve" smooth="yes"/>
      <point x="286" y="561"/>
      <point x="286" y="392"/>
      <point x="326" y="288" type="curve" smooth="yes"/>
      <point x="365" y="186"/>
      <point x="450" y="121"/>
      <point x="588" y="121" type="curve" smooth="yes"/>
      <point x="726" y="121"/>
      <point x="811" y="186"/>
      <point x="850" y="288" type="curve" smooth="yes"/>
      <point x="890" y="392"/>
      <point x="890" y="561"/>
      <point x="890" y="708" type="curve" smooth="yes"/>
      <point x="890" y="855"/>
      <point x="890" y="1024"/>
      <point x="850" y="1128" type="curve" smooth="yes"/>
      <point x="811" y="1230"/>
      <point x="726" y="1295"/>
    </contour>
    <contour>
      <point x="1046" y="652" type="line"/>
      <point x="1045" y="451"/>
      <point x="1036" y="261"/>
      <point x="931" y="140" type="curve"/>
      <point x="1530" y="140" type="line"/>
      <point x="1530" y="0" type="line"/>
      <point x="721" y="0" type="line"/>
      <point x="681" y="-12"/>
      <point x="636" y="-19"/>
      <point x="588" y="-19" type="curve" smooth="yes"/>
      <point x="379" y="-19"/>
      <point x="237" y="89"/>
      <point x="179" y="242" type="curve" smooth="yes"/>
      <point x="130" y="371"/>
      <point x="130" y="546"/>
      <point x="130" y="708" type="curve" smooth="yes"/>
      <point x="130" y="870"/>
      <point x="130" y="1045"/>
      <point x="179" y="1174" type="curve" smooth="yes"/>
      <point x="237" y="1327"/>
      <point x="379" y="1435"/>
      <point x="588" y="1435" type="curve" smooth="yes"/>
      <point x="636" y="1435"/>
      <point x="681" y="1428"/>
      <point x="721" y="1416" type="curve"/>
      <point x="1530" y="1416" type="line"/>
      <point x="1530" y="1276" type="line"/>
      <point x="931" y="1276" type="line"/>
      <point x="1032" y="1162"/>
      <point x="1044" y="984"/>
      <point x="1046" y="792" type="curve"/>
      <point x="1460" y="792" type="line"/>
      <point x="1460" y="652" type="line"/>
    </contour>
  </outline>
</glyph>
<glyph name="oe" format="2">
  <advance width="1715"/>
  <unicode hex="0153"/>
  <outline>
    <contour>
      <point x="956" y="633" type="curve"/>
      <point x="1445" y="633" type="line"/>
      <point x="1445" y="719"/>
      <point x="1430" y="808"/>
      <point x="1391" y="864" type="curve" smooth="yes"/>
      <point x="1350" y="923"/>
      <point x="1286" y="964"/>
      <point x="1198" y="964" type="curve" smooth="yes"/>
      <point x="1108" y="964"/>
      <point x="1044" y="918"/>
      <point x="1008" y="863" type="curve" smooth="yes"/>
      <point x="969" y="804"/>
      <point x="957" y="721"/>
    </contour>
    <contour>
      <point x="882" y="913" type="curve"/>
      <point x="936" y="1026"/>
      <point x="1053" y="1098"/>
      <point x="1198" y="1098" type="curve" smooth="yes"/>
      <point x="1349" y="1098"/>
      <point x="1468" y="1018"/>
      <point x="1528" y="920" type="curve" smooth="yes"/>
      <point x="1586" y="825"/>
      <point x="1595" y="727"/>
      <point x="1595" y="579" type="curve" smooth="yes"/>
      <point x="1595" y="509" type="line"/>
      <point x="955" y="509" type="line"/>
      <point x="955" y="394"/>
      <point x="960" y="297"/>
      <point x="1007" y="221" type="curve" smooth="yes"/>
      <point x="1047" y="157"/>
      <point x="1119" y="118"/>
      <point x="1220" y="118" type="curve" smooth="yes"/>
      <point x="1327" y="118"/>
      <point x="1430" y="159"/>
      <point x="1497" y="191" type="curve"/>
      <point x="1556" y="68" type="line"/>
      <point x="1471" y="28"/>
      <point x="1351" y="-16"/>
      <point x="1220" y="-16" type="curve" smooth="yes"/>
      <point x="1062" y="-16"/>
      <point x="945" y="49"/>
      <point x="880" y="168" type="curve"/>
      <point x="811" y="60"/>
      <point x="697" y="-16"/>
      <point x="540" y="-16" type="curve" smooth="yes"/>
      <point x="393" y="-16"/>
      <point x="274" y="51"/>
      <point x="209" y="144" type="curve" smooth="yes"/>
      <point x="125" y="263"/>
      <point x="125" y="399"/>
      <point x="125" y="541" type="curve" smooth="yes"/>
      <point x="125" y="683"/>
      <point x="125" y="819"/>
      <point x="209" y="938" type="curve" smooth="yes"/>
      <point x="274" y="1031"/>
      <point x="393" y="1098"/>
      <point x="540" y="1098" type="curve" smooth="yes"/>
      <point x="699" y="1098"/>
      <point x="812" y="1023"/>
    </contour>
    <contour>
      <point x="540" y="964" type="curve" smooth="yes"/>
      <point x="447" y="964"/>
      <point x="376" y="924"/>
      <point x="335" y="866" type="curve" smooth="yes"/>
      <point x="275" y="782"/>
      <point x="275" y="662"/>
      <point x="275" y="541" type="curve" smooth="yes"/>
      <point x="275" y="420"/>
      <point x="275" y="300"/>
      <point x="335" y="216" type="curve" smooth="yes"/>
      <point x="376" y="158"/>
      <point x="447" y="118"/>
      <point x="540" y="118" type="curve" smooth="yes"/>
      <point x="633" y="118"/>
      <point x="704" y="158"/>
      <point x="745" y="216" type="curve" smooth="yes"/>
      <point x="805" y="300"/>
      <point x="805" y="420"/>
      <point x="805" y="541" type="curve" smooth="yes"/>
      <point x="805" y="662"/>
      <point x="805" y="782"/>
      <point x="745" y="866" type="curve" smooth="yes"/>
      <point x="704" y="924"/>
      <point x="633" y="964"/>
    </contour>
  </outline>
</glyph>
<glyph name="racute" format="2">
  <advance width="697"/>
  <unicode hex="0155"/>
  <outline>
    <contour>
      <point x="677" y="1496" type="line"/>
      <point x="512" y="1222" type="line"/>
      <point x="354" y="1222" type="line"/>
      <point x="508" y="1496" type="line"/>
    </contour>
    <component base="r"/>
  </outline>
</glyph>
<glyph name="Scedilla" format="2">
  <advance width="1045"/>
  <unicode hex="015E"/>
  <outline>
    <contour>
      <point x="421" y="-306" type="curve" smooth="yes"/>
      <point x="467" y="-306"/>
      <point x="491" y="-269"/>
      <point x="491" y="-228" type="curve" smooth="yes"/>
      <point x="491" y="-183"/>
      <point x="467" y="-156"/>
      <point x="416" y="-138" type="curve"/>
      <point x="450.618" y="-15.5058" type="line"/>
      <point x="310.127" y="-0.812875"/>
      <point x="186.189" y="57.8435"/>
      <point x="84" y="115" type="curve"/>
      <point x="153" y="241" type="line"/>
      <point x="255" y="182"/>
      <point x="382" y="121"/>
      <point x="517" y="121" type="curve" smooth="yes"/>
      <point x="725" y="121"/>
      <point x="789" y="270"/>
      <point x="789" y="381" type="curve" smooth="yes"/>
      <point x="789" y="471"/>
      <point x="748" y="577"/>
      <point x="638" y="624" type="curve" smooth="yes"/>
      <point x="543" y="665"/>
      <point x="418" y="663"/>
      <point x="306" y="728" type="curve" smooth="yes"/>
      <point x="172" y="806"/>
      <point x="114" y="935"/>
      <point x="114" y="1061" type="curve" smooth="yes"/>
      <point x="114" y="1260"/>
      <point x="261" y="1435"/>
      <point x="517" y="1435" type="curve" smooth="yes"/>
      <point x="655" y="1435"/>
      <point x="785" y="1385"/>
      <point x="890" y="1335" type="curve"/>
      <point x="830" y="1206" type="line"/>
      <point x="743" y="1248"/>
      <point x="632" y="1295"/>
      <point x="517" y="1295" type="curve" smooth="yes"/>
      <point x="345" y="1295"/>
      <point x="270" y="1179"/>
      <point x="270" y="1061" type="curve" smooth="yes"/>
      <point x="270" y="987"/>
      <point x="302" y="895"/>
      <point x="390" y="846" type="curve" smooth="yes"/>
      <point x="478" y="797"/>
      <point x="591" y="798"/>
      <point x="697" y="754" type="curve" smooth="yes"/>
      <point x="871" y="681"/>
      <point x="945" y="529"/>
      <point x="945" y="381" type="curve" smooth="yes"/>
      <point x="945" y="186.856"/>
      <point x="815.566" y="8.24375"/>
      <point x="574.333" y="-16.1671" type="curve"/>
      <point x="551" y="-97" type="line"/>
      <point x="591" y="-117"/>
      <point x="631" y="-160"/>
      <point x="631" y="-229" type="curve" smooth="yes"/>
      <point x="631" y="-350"/>
      <point x="544" y="-430"/>
      <point x="425" y="-430" type="curve" smooth="yes"/>
      <point x="392" y="-430"/>
      <point x="362" y="-423"/>
      <point x="336" y="-416" type="curve"/>
      <point x="374" y="-297" type="line"/>
      <point x="392" y="-304"/>
      <point x="408" y="-306"/>
    </contour>
  </outline>
</glyph>
<glyph name="scedilla" format="2">
  <advance width="963"/>
  <unicode hex="015F"/>
  <outline>
    <contour>
      <point x="422" y="-306" type="curve" smooth="yes"/>
      <point x="468" y="-306"/>
      <point x="492" y="-269"/>
      <point x="492" y="-228" type="curve" smooth="yes"/>
      <point x="492" y="-183"/>
      <point x="468" y="-156"/>
      <point x="417" y="-138" type="curve"/>
      <point x="451.952" y="-14.3229" type="line"/>
      <point x="331.041" y="-5.65435"/>
      <point x="214.095" y="35.2788"/>
      <point x="120" y="77" type="curve"/>
      <point x="174" y="202" type="line"/>
      <point x="267" y="160"/>
      <point x="380" y="118"/>
      <point x="498" y="118" type="curve" smooth="yes"/>
      <point x="671" y="118"/>
      <point x="733" y="221"/>
      <point x="733" y="301" type="curve" smooth="yes"/>
      <point x="733" y="382"/>
      <point x="677" y="438"/>
      <point x="615" y="461" type="curve" smooth="yes"/>
      <point x="529" y="493"/>
      <point x="424" y="483"/>
      <point x="314" y="534" type="curve" smooth="yes"/>
      <point x="220" y="578"/>
      <point x="137" y="669"/>
      <point x="137" y="796" type="curve" smooth="yes"/>
      <point x="137" y="952"/>
      <point x="270" y="1098"/>
      <point x="498" y="1098" type="curve" smooth="yes"/>
      <point x="622" y="1098"/>
      <point x="744" y="1057"/>
      <point x="841" y="1016" type="curve"/>
      <point x="790" y="889" type="line"/>
      <point x="703" y="926"/>
      <point x="599" y="964"/>
      <point x="498" y="964" type="curve" smooth="yes"/>
      <point x="333" y="964"/>
      <point x="287" y="859"/>
      <point x="287" y="796" type="curve" smooth="yes"/>
      <point x="287" y="725"/>
      <point x="333" y="675"/>
      <point x="384" y="652" type="curve" smooth="yes"/>
      <point x="467" y="614"/>
      <point x="551" y="629"/>
      <point x="675" y="583" type="curve" smooth="yes"/>
      <point x="782" y="543"/>
      <point x="883" y="445"/>
      <point x="883" y="301" type="curve" smooth="yes"/>
      <point x="883" y="161.249"/>
      <point x="778.411" y="19.1206"/>
      <point x="576.991" y="-10.4224" type="curve"/>
      <point x="552" y="-97" type="line"/>
      <point x="592" y="-117"/>
      <point x="632" y="-160"/>
      <point x="632" y="-229" type="curve" smooth="yes"/>
      <point x="632" y="-350"/>
      <point x="545" y="-430"/>
      <point x="426" y="-430" type="curve" smooth="yes"/>
      <point x="393" y="-430"/>
      <point x="363" y="-423"/>
      <point x="337" y="-416" type="curve"/>
      <point x="375" y="-297" type="line"/>
      <point x="393" y="-304"/>
      <point x="409" y="-306"/>
    </contour>
  </outline>
</glyph>
<glyph name="uni0162" format="2">
  <advance width="1048"/>
  <unicode hex="0162"/>
  <outline>
    <contour>
      <point x="428" y="-306" type="curve" smooth="yes"/>
      <point x="474" y="-306"/>
      <point x="498" y="-269"/>
      <point x="498" y="-228" type="curve" smooth="yes"/>
      <point x="498" y="-183"/>
      <point x="474" y="-156"/>
      <point x="423" y="-138" type="curve"/>
      <point x="462" y="0" type="line"/>
      <point x="446" y="0" type="line"/>
      <point x="446" y="1277" type="line"/>
      <point x="60" y="1277" type="line"/>
      <point x="60" y="1417" type="line"/>
      <point x="988" y="1417" type="line"/>
      <point x="988" y="1277" type="line"/>
      <point x="602" y="1277" type="line"/>
      <point x="602" y="0" type="line"/>
      <point x="586" y="0" type="line"/>
      <point x="558" y="-97" type="line"/>
      <point x="598" y="-117"/>
      <point x="638" y="-160"/>
      <point x="638" y="-229" type="curve" smooth="yes"/>
      <point x="638" y="-350"/>
      <point x="551" y="-430"/>
      <point x="432" y="-430" type="curve" smooth="yes"/>
      <point x="399" y="-430"/>
      <point x="369" y="-423"/>
      <point x="343" y="-416" type="curve"/>
      <point x="381" y="-297" type="line"/>
      <point x="399" y="-304"/>
      <point x="415" y="-306"/>
    </contour>
  </outline>
</glyph>
<glyph name="uni0163" format="2">
  <advance width="652"/>
  <unicode hex="0163"/>
  <outline>
    <contour>
      <point x="359" y="-306" type="curve" smooth="yes"/>
      <point x="405" y="-306"/>
      <point x="429" y="-269"/>
      <point x="429" y="-228" type="curve" smooth="yes"/>
      <point x="429" y="-183"/>
      <point x="405" y="-156"/>
      <point x="354" y="-138" type="curve"/>
      <point x="389.872" y="-11.067" type="line"/>
      <point x="305.511" y="4.77556"/>
      <point x="245.042" y="58.267"/>
      <point x="221" y="142" type="curve" smooth="yes"/>
      <point x="210" y="180"/>
      <point x="210" y="218"/>
      <point x="210" y="303" type="curve" smooth="yes"/>
      <point x="210" y="958" type="line"/>
      <point x="60" y="958" type="line"/>
      <point x="60" y="1082" type="line"/>
      <point x="210" y="1082" type="line"/>
      <point x="210" y="1316" type="line"/>
      <point x="360" y="1316" type="line"/>
      <point x="360" y="1082" type="line"/>
      <point x="560" y="1082" type="line"/>
      <point x="560" y="958" type="line"/>
      <point x="360" y="958" type="line"/>
      <point x="360" y="303" type="line" smooth="yes"/>
      <point x="360" y="220"/>
      <point x="360" y="195"/>
      <point x="369" y="173" type="curve" smooth="yes"/>
      <point x="385" y="134"/>
      <point x="419" y="118"/>
      <point x="455" y="118" type="curve" smooth="yes"/>
      <point x="494" y="118"/>
      <point x="538" y="134"/>
      <point x="569" y="150" type="curve"/>
      <point x="627" y="26" type="line"/>
      <point x="590.409" y="10.0329"/>
      <point x="555.588" y="-3.27852"/>
      <point x="513.998" y="-10.4005" type="curve"/>
      <point x="489" y="-97" type="line"/>
      <point x="529" y="-117"/>
      <point x="569" y="-160"/>
      <point x="569" y="-229" type="curve" smooth="yes"/>
      <point x="569" y="-350"/>
      <point x="482" y="-430"/>
      <point x="363" y="-430" type="curve" smooth="yes"/>
      <point x="330" y="-430"/>
      <point x="300" y="-423"/>
      <point x="274" y="-416" type="curve"/>
      <point x="312" y="-297" type="line"/>
      <point x="330" y="-304"/>
      <point x="346" y="-306"/>
    </contour>
  </outline>
</glyph>
<glyph name="Tbar" format="2">
  <advance width="1048"/>
  <unicode hex="0166"/>
  <outline>
    <contour>
      <point x="60" y="1417" type="line"/>
      <point x="988" y="1417" type="line"/>
      <point x="988" y="1277" type="line"/>
      <point x="602" y="1277" type="line"/>
      <point x="602" y="846" type="line"/>
      <point x="800" y="846" type="line"/>
      <point x="800" y="722" type="line"/>
      <point x="602" y="722" type="line"/>
      <point x="602" y="0" type="line"/>
      <point x="446" y="0" type="line"/>
      <point x="446" y="722" type="line"/>
      <point x="248" y="722" type="line"/>
      <point x="248" y="846" type="line"/>
      <point x="446" y="846" type="line"/>
      <point x="446" y="1277" type="line"/>
      <point x="60" y="1277" type="line"/>
    </contour>
  </outline>
</glyph>
<glyph name="tbar" format="2">
  <advance width="687"/>
  <unicode hex="0167"/>
  <outline>
    <contour>
      <point x="560" y="782" type="line"/>
      <point x="560" y="658" type="line"/>
      <point x="360" y="658" type="line"/>
      <point x="360" y="303" type="line" smooth="yes"/>
      <point x="360" y="220"/>
      <point x="360" y="195"/>
      <point x="369" y="173" type="curve" smooth="yes"/>
      <point x="385" y="134"/>
      <point x="419" y="118"/>
      <point x="455" y="118" type="curve" smooth="yes"/>
      <point x="494" y="118"/>
      <point x="538" y="134"/>
      <point x="569" y="150" type="curve"/>
      <point x="627" y="26" type="line"/>
      <point x="572" y="2"/>
      <point x="521" y="-16"/>
      <point x="445" y="-16" type="curve" smooth="yes"/>
      <point x="332" y="-16"/>
      <point x="250" y="41"/>
      <point x="221" y="142" type="curve" smooth="yes"/>
      <point x="210" y="180"/>
      <point x="210" y="218"/>
      <point x="210" y="303" type="curve" smooth="yes"/>
      <point x="210" y="658" type="line"/>
      <point x="60" y="658" type="line"/>
      <point x="60" y="782" type="line"/>
      <point x="210" y="782" type="line"/>
      <point x="210" y="958" type="line"/>
      <point x="60" y="958" type="line"/>
      <point x="60" y="1082" type="line"/>
      <point x="210" y="1082" type="line"/>
      <point x="210" y="1316" type="line"/>
      <point x="360" y="1316" type="line"/>
      <point x="360" y="1082" type="line"/>
      <point x="560" y="1082" type="line"/>
      <point x="560" y="958" type="line"/>
      <point x="360" y="958" type="line"/>
      <point x="360" y="782" type="line"/>
    </contour>
  </outline>
</glyph>
<glyph name="Umacron" format="2">
  <advance width="1236"/>
  <unicode hex="016A"/>
  <outline>
    <contour>
      <point x="373" y="1720" type="line"/>
      <point x="943" y="1720" type="line"/>
      <point x="943" y="1586" type="line"/>
      <point x="373" y="1586" type="line"/>
    </contour>
    <component base="U" xOffset="20"/>
  </outline>
</glyph>
<glyph name="umacron" format="2">
  <advance width="1100"/>
  <unicode hex="016B"/>
  <outline>
    <contour>
      <point x="300" y="1386" type="line"/>
      <point x="870" y="1386" type="line"/>
      <point x="870" y="1252" type="line"/>
      <point x="300" y="1252" type="line"/>
    </contour>
    <component base="u" xOffset="20"/>
  </outline>
</glyph>
<glyph name="Uogonek" format="2">
  <advance width="1236"/>
  <unicode hex="0172"/>
  <outline>
    <contour>
      <point x="531" y="-216" type="curve" smooth="yes"/>
      <point x="531" y="-267"/>
      <point x="561" y="-306"/>
      <point x="612" y="-306" type="curve" smooth="yes"/>
      <point x="640" y="-306"/>
      <point x="668" y="-293"/>
      <point x="686" y="-281" type="curve"/>
      <point x="751" y="-391" type="line"/>
      <point x="713" y="-413"/>
      <point x="667" y="-430"/>
      <point x="612" y="-430" type="curve" smooth="yes"/>
      <point x="482" y="-430"/>
      <point x="407" y="-340"/>
      <point x="407" y="-237" type="curve" smooth="yes"/>
      <point x="407" y="-136"/>
      <point x="479" y="-65"/>
      <point x="567" y="-15" type="curve"/>
      <point x="432" y="-6"/>
      <point x="331" y="58"/>
      <point x="264" y="137" type="curve" smooth="yes"/>
      <point x="160" y="265"/>
      <point x="160" y="405"/>
      <point x="160" y="571" type="curve" smooth="yes"/>
      <point x="160" y="1416" type="line"/>
      <point x="316" y="1416" type="line"/>
      <point x="316" y="571" type="line" smooth="yes"/>
      <point x="316" y="428"/>
      <point x="316" y="308"/>
      <point x="390" y="219" type="curve" smooth="yes"/>
      <point x="439" y="160"/>
      <point x="517" y="121"/>
      <point x="618" y="121" type="curve" smooth="yes"/>
      <point x="719" y="121"/>
      <point x="797" y="160"/>
      <point x="846" y="219" type="curve" smooth="yes"/>
      <point x="920" y="308"/>
      <point x="920" y="428"/>
      <point x="920" y="571" type="curve" smooth="yes"/>
      <point x="920" y="1416" type="line"/>
      <point x="1076" y="1416" type="line"/>
      <point x="1076" y="571" type="line" smooth="yes"/>
      <point x="1076" y="405"/>
      <point x="1076" y="265"/>
      <point x="972" y="137" type="curve" smooth="yes"/>
      <point x="916" y="69"/>
      <point x="833" y="16"/>
      <point x="730" y="-7" type="curve" smooth="yes"/>
      <point x="647" y="-25"/>
      <point x="531" y="-105"/>
    </contour>
  </outline>
</glyph>
<glyph name="uogonek" format="2">
  <advance width="1100"/>
  <unicode hex="0173"/>
  <outline>
    <contour>
      <point x="418" y="-216" type="curve" smooth="yes"/>
      <point x="418" y="-267"/>
      <point x="448" y="-306"/>
      <point x="499" y="-306" type="curve" smooth="yes"/>
      <point x="527" y="-306"/>
      <point x="555" y="-293"/>
      <point x="573" y="-281" type="curve"/>
      <point x="638" y="-391" type="line"/>
      <point x="600" y="-413"/>
      <point x="554" y="-430"/>
      <point x="499" y="-430" type="curve" smooth="yes"/>
      <point x="369" y="-430"/>
      <point x="294" y="-340"/>
      <point x="294" y="-237" type="curve" smooth="yes"/>
      <point x="294" y="-131.124"/>
      <point x="364.015" y="-57.0312"/>
      <point x="447.147" y="-5.96784" type="curve"/>
      <point x="318.134" y="21.5498"/>
      <point x="220.561" y="104.03"/>
      <point x="177" y="221" type="curve" smooth="yes"/>
      <point x="150" y="293"/>
      <point x="150" y="364"/>
      <point x="150" y="437" type="curve" smooth="yes"/>
      <point x="150" y="1082" type="line"/>
      <point x="300" y="1082" type="line"/>
      <point x="300" y="437" type="line" smooth="yes"/>
      <point x="300" y="340"/>
      <point x="300" y="266"/>
      <point x="358" y="198" type="curve" smooth="yes"/>
      <point x="398" y="151"/>
      <point x="463" y="118"/>
      <point x="545" y="118" type="curve" smooth="yes"/>
      <point x="627" y="118"/>
      <point x="692" y="151"/>
      <point x="732" y="198" type="curve" smooth="yes"/>
      <point x="790" y="266"/>
      <point x="790" y="340"/>
      <point x="790" y="437" type="curve" smooth="yes"/>
      <point x="790" y="1082" type="line"/>
      <point x="940" y="1082" type="line"/>
      <point x="940" y="437" type="line" smooth="yes"/>
      <point x="940" y="364"/>
      <point x="940" y="293"/>
      <point x="913" y="221" type="curve" smooth="yes"/>
      <point x="863.104" y="87.0192"/>
      <point x="742.343" y="-1.71091"/>
      <point x="584.641" y="-14.4232" type="curve"/>
      <point x="506.919" y="-49.827"/>
      <point x="418" y="-115.727"/>
    </contour>
  </outline>
</glyph>
<glyph name="Zacute" format="2">
  <advance width="1027"/>
  <unicode hex="0179"/>
  <outline>
    <contour>
      <point x="726" y="1830" type="line"/>
      <point x="561" y="1556" type="line"/>
      <point x="403" y="1556" type="line"/>
      <point x="557" y="1830" type="line"/>
    </contour>
    <component base="Z"/>
  </outline>
</glyph>
<glyph name="zacute" format="2">
  <advance width="880"/>
  <unicode hex="017A"/>
  <outline>
    <contour>
      <point x="652" y="1496" type="line"/>
      <point x="487" y="1222" type="line"/>
      <point x="329" y="1222" type="line"/>
      <point x="483" y="1496" type="line"/>
    </contour>
    <component base="z"/>
  </outline>
</glyph>
